<svg width="94" height="94" viewBox="0 0 94 94" fill="none" xmlns="http://www.w3.org/2000/svg">
<g clip-path="url(#clip0_176_274)">
<g filter="url(#filter0_d_176_274)">
<path d="M32.3263 45.8526C32.3263 46.6802 32.4158 47.3512 32.5724 47.8433C32.7513 48.3354 32.975 48.8723 33.2881 49.4539C33.4 49.6328 33.4447 49.8118 33.4447 49.9683C33.4447 50.192 33.3105 50.4157 33.0197 50.6394L31.6105 51.5789C31.4092 51.7131 31.2079 51.7802 31.0289 51.7802C30.8052 51.7802 30.5816 51.6683 30.3579 51.467C30.0447 51.1315 29.7763 50.7736 29.5526 50.4157C29.3289 50.0354 29.1052 49.6104 28.8592 49.096C27.1145 51.1539 24.9224 52.1828 22.2829 52.1828C20.4039 52.1828 18.9052 51.646 17.8092 50.5723C16.7131 49.4986 16.1539 48.067 16.1539 46.2776C16.1539 44.3762 16.825 42.8328 18.1895 41.6697C19.5539 40.5065 21.3658 39.9249 23.6697 39.9249C24.4302 39.9249 25.2131 39.992 26.0408 40.1039C26.8684 40.2157 27.7184 40.3947 28.6131 40.596V38.9631C28.6131 37.2631 28.2552 36.0776 27.5618 35.3841C26.846 34.6907 25.6381 34.3552 23.9158 34.3552C23.1329 34.3552 22.3276 34.4447 21.5 34.646C20.6724 34.8473 19.8671 35.0933 19.0842 35.4065C18.7263 35.5631 18.4579 35.6526 18.3013 35.6973C18.1447 35.742 18.0329 35.7644 17.9434 35.7644C17.6302 35.7644 17.4737 35.5407 17.4737 35.071V33.9749C17.4737 33.617 17.5184 33.3486 17.6302 33.192C17.7421 33.0354 17.9434 32.8789 18.2566 32.7223C19.0395 32.3197 19.9789 31.9841 21.075 31.7157C22.171 31.4249 23.3342 31.2907 24.5645 31.2907C27.2263 31.2907 29.1724 31.8947 30.425 33.1026C31.6552 34.3104 32.2816 36.1447 32.2816 38.6052V45.8526H32.3263ZM23.2447 49.2526C23.9829 49.2526 24.7434 49.1183 25.5487 48.8499C26.3539 48.5815 27.0697 48.0894 27.6737 47.4183C28.0316 46.9933 28.3 46.5236 28.4342 45.9868C28.5684 45.4499 28.6579 44.8012 28.6579 44.0407V43.1012C28.0092 42.9447 27.3158 42.8104 26.6 42.721C25.8842 42.6315 25.1908 42.5868 24.4974 42.5868C22.9987 42.5868 21.9026 42.8776 21.1645 43.4815C20.4263 44.0854 20.0684 44.9354 20.0684 46.0539C20.0684 47.1052 20.3368 47.8881 20.896 48.4249C21.4329 48.9841 22.2158 49.2526 23.2447 49.2526ZM41.2066 51.6683C40.8039 51.6683 40.5355 51.6012 40.3566 51.4447C40.1776 51.3104 40.021 50.9973 39.8868 50.5723L34.6302 33.2815C34.496 32.8341 34.4289 32.5433 34.4289 32.3868C34.4289 32.0289 34.6079 31.8276 34.9658 31.8276H37.1579C37.5829 31.8276 37.8737 31.8947 38.0302 32.0512C38.2092 32.1854 38.3434 32.4986 38.4776 32.9236L42.2355 47.7315L45.725 32.9236C45.8368 32.4762 45.971 32.1854 46.15 32.0512C46.3289 31.917 46.6421 31.8276 47.0447 31.8276H48.8342C49.2592 31.8276 49.55 31.8947 49.7289 32.0512C49.9079 32.1854 50.0645 32.4986 50.1539 32.9236L53.6881 47.9104L57.5579 32.9236C57.6921 32.4762 57.8487 32.1854 58.0052 32.0512C58.1842 31.917 58.475 31.8276 58.8776 31.8276H60.9579C61.3158 31.8276 61.5171 32.0065 61.5171 32.3868C61.5171 32.4986 61.4947 32.6104 61.4724 32.7447C61.45 32.8789 61.4052 33.0578 61.3158 33.3039L55.925 50.5947C55.7908 51.042 55.6342 51.3328 55.4552 51.467C55.2763 51.6012 54.9855 51.6907 54.6052 51.6907H52.6816C52.2566 51.6907 51.9658 51.6236 51.7868 51.467C51.6079 51.3104 51.4513 51.0197 51.3618 50.5723L47.8947 36.1447L44.45 50.5499C44.3381 50.9973 44.2039 51.2881 44.025 51.4447C43.846 51.6012 43.5329 51.6683 43.1302 51.6683H41.2066ZM69.95 52.2723C68.7868 52.2723 67.6237 52.1381 66.5052 51.8697C65.3868 51.6012 64.5145 51.3104 63.9329 50.9749C63.575 50.7736 63.3289 50.5499 63.2395 50.3486C63.15 50.1473 63.1052 49.9236 63.1052 49.7223V48.5815C63.1052 48.1118 63.2842 47.8881 63.6197 47.8881C63.7539 47.8881 63.8881 47.9104 64.0224 47.9552C64.1566 47.9999 64.3579 48.0894 64.5816 48.1789C65.3421 48.5144 66.1697 48.7828 67.0421 48.9618C67.9368 49.1407 68.8092 49.2302 69.7039 49.2302C71.1131 49.2302 72.2092 48.9841 72.9697 48.492C73.7302 47.9999 74.1329 47.2841 74.1329 46.367C74.1329 45.7407 73.9316 45.2262 73.5289 44.8012C73.1263 44.3762 72.3658 43.996 71.2697 43.6381L68.0263 42.6315C66.3934 42.117 65.1855 41.3565 64.4474 40.3499C63.7092 39.3657 63.3289 38.2697 63.3289 37.1065C63.3289 36.167 63.5302 35.3394 63.9329 34.6236C64.3355 33.9078 64.8724 33.2815 65.5434 32.7894C66.2145 32.2749 66.975 31.8947 67.8697 31.6262C68.7645 31.3578 69.7039 31.246 70.6881 31.246C71.1802 31.246 71.6947 31.2683 72.1868 31.3354C72.7013 31.4026 73.171 31.492 73.6408 31.5815C74.0881 31.6933 74.5131 31.8052 74.9158 31.9394C75.3184 32.0736 75.6316 32.2078 75.8552 32.342C76.1684 32.521 76.3921 32.6999 76.5263 32.9012C76.6605 33.0802 76.7276 33.3262 76.7276 33.6394V34.6907C76.7276 35.1604 76.5487 35.4065 76.2131 35.4065C76.0342 35.4065 75.7434 35.317 75.3631 35.1381C74.0881 34.5565 72.6566 34.2657 71.0684 34.2657C69.7934 34.2657 68.7868 34.467 68.0934 34.892C67.4 35.317 67.0421 35.9657 67.0421 36.8828C67.0421 37.5091 67.2658 38.046 67.7131 38.471C68.1605 38.896 68.9881 39.321 70.1737 39.7012L73.35 40.7078C74.9605 41.2223 76.1237 41.9381 76.8171 42.8552C77.5105 43.7723 77.846 44.8236 77.846 45.9868C77.846 46.9486 77.6447 47.821 77.2645 48.5815C76.8618 49.342 76.325 50.0131 75.6316 50.5499C74.9381 51.1091 74.1105 51.5118 73.1487 51.8026C72.1421 52.1157 71.0908 52.2723 69.95 52.2723Z" fill="white"/>
</g>
<g filter="url(#filter1_d_176_274)">
<path fill-rule="evenodd" clip-rule="evenodd" d="M74.1776 63.1434C66.8184 68.5789 56.1263 71.4645 46.9328 71.4645C34.0486 71.4645 22.4394 66.7 13.671 58.7816C12.9776 58.1553 13.6039 57.3053 14.4315 57.7974C23.9157 63.3 35.6144 66.6329 47.7157 66.6329C55.8802 66.6329 64.85 64.9329 73.1039 61.4434C74.3342 60.8842 75.3855 62.2487 74.1776 63.1434Z" fill="#FF9900"/>
<path fill-rule="evenodd" clip-rule="evenodd" d="M77.2421 59.654C76.3026 58.4461 71.0237 59.0724 68.6303 59.3632C67.9145 59.4526 67.8026 58.8263 68.4513 58.3566C72.6566 55.404 79.5684 56.254 80.3737 57.2382C81.1789 58.2448 80.15 65.1566 76.2132 68.4671C75.6092 68.9816 75.0276 68.7132 75.296 68.0421C76.1908 65.8277 78.1816 60.8395 77.2421 59.654Z" fill="#FF9900"/>
</g>
</g>
<defs>
<filter id="filter0_d_176_274" x="-3.04607" y="12.046" width="100.092" height="59.4264" filterUnits="userSpaceOnUse" color-interpolation-filters="sRGB">
<feFlood flood-opacity="0" result="BackgroundImageFix"/>
<feColorMatrix in="SourceAlpha" type="matrix" values="0 0 0 0 0 0 0 0 0 0 0 0 0 0 0 0 0 0 127 0" result="hardAlpha"/>
<feOffset/>
<feGaussianBlur stdDeviation="9.6"/>
<feComposite in2="hardAlpha" operator="out"/>
<feColorMatrix type="matrix" values="0 0 0 0 1 0 0 0 0 1 0 0 0 0 1 0 0 0 0.3 0"/>
<feBlend mode="normal" in2="BackgroundImageFix" result="effect1_dropShadow_176_274"/>
<feBlend mode="normal" in="SourceGraphic" in2="effect1_dropShadow_176_274" result="shape"/>
</filter>
<filter id="filter1_d_176_274" x="-5.82695" y="37.1193" width="105.655" height="53.5451" filterUnits="userSpaceOnUse" color-interpolation-filters="sRGB">
<feFlood flood-opacity="0" result="BackgroundImageFix"/>
<feColorMatrix in="SourceAlpha" type="matrix" values="0 0 0 0 0 0 0 0 0 0 0 0 0 0 0 0 0 0 127 0" result="hardAlpha"/>
<feOffset/>
<feGaussianBlur stdDeviation="9.6"/>
<feComposite in2="hardAlpha" operator="out"/>
<feColorMatrix type="matrix" values="0 0 0 0 1 0 0 0 0 0.6 0 0 0 0 0 0 0 0 0.4 0"/>
<feBlend mode="normal" in2="BackgroundImageFix" result="effect1_dropShadow_176_274"/>
<feBlend mode="normal" in="SourceGraphic" in2="effect1_dropShadow_176_274" result="shape"/>
</filter>
<clipPath id="clip0_176_274">
<rect width="94" height="94" rx="25" fill="white"/>
</clipPath>
</defs>
</svg>
