<svg width="94" height="94" viewBox="0 0 94 94" fill="none" xmlns="http://www.w3.org/2000/svg">
<g clip-path="url(#clip0_202_32)">
<g filter="url(#filter0_d_202_32)">
<path d="M47.6746 40.8347C47.6704 40.9635 47.6162 41.0856 47.5236 41.1752C47.431 41.2648 47.3071 41.3148 47.1783 41.3148H42.0644C41.7293 41.3148 41.4494 41.043 41.4494 40.7124C41.4494 39.2207 40.9331 38.4943 39.877 38.4943C38.8209 38.4943 38.1398 39.1428 38.1199 40.2759C38.0972 41.5394 38.8119 42.6879 40.8462 44.6606C43.5245 47.1731 44.5978 49.3986 44.5461 52.3404C44.4619 57.0974 41.2275 60.1724 36.3057 60.1724C33.7922 60.1724 31.872 59.5004 30.5949 58.1743C29.2988 56.8275 28.7046 54.8512 28.8287 52.3006C28.8329 52.1716 28.8872 52.0494 28.9801 51.9598C29.0729 51.8702 29.1969 51.8202 29.326 51.8205H34.6155C34.6892 51.8217 34.7617 51.8392 34.8278 51.8718C34.8939 51.9044 34.9519 51.9512 34.9978 52.0089C35.0377 52.0566 35.067 52.1124 35.0835 52.1724C35.1001 52.2324 35.1036 52.2953 35.0938 52.3567C35.0349 53.277 35.1952 53.9644 35.5575 54.3448C35.7894 54.5912 36.1127 54.7162 36.5158 54.7162C37.4931 54.7162 38.0655 54.026 38.0873 52.8232C38.1054 51.7834 37.7766 50.8722 35.985 49.029C33.6708 46.7683 31.5958 44.4323 31.6601 40.7595C31.6981 38.6292 32.5441 36.681 34.0431 35.2734C35.6282 33.7862 37.7956 33 40.3118 33C42.8325 33.0181 44.7427 33.7373 45.9899 35.1376C47.171 36.4645 47.7389 38.381 47.6764 40.8347H47.6746Z" fill="#FFFCE1"/>
<path d="M63.5252 59.2777L63.5587 33.9774C63.5597 33.914 63.5479 33.8511 63.5243 33.7924C63.5006 33.7336 63.4654 33.6801 63.4207 33.6352C63.3761 33.5902 63.3229 33.5546 63.2643 33.5305C63.2057 33.5063 63.1429 33.4942 63.0795 33.4946H55.1651C54.8988 33.4946 54.782 33.7238 54.7059 33.8751L43.2464 59.1228V59.1273L43.2419 59.1336C43.1151 59.4443 43.356 59.7767 43.692 59.7767H49.2243C49.5232 59.7767 49.7216 59.6861 49.8185 59.4978L50.9172 56.8575C51.0521 56.5052 51.0775 56.4726 51.4615 56.4726H56.7475C57.1152 56.4726 57.1224 56.4798 57.117 56.8394L56.9984 59.294C56.9974 59.3572 57.0091 59.4201 57.0327 59.4788C57.0563 59.5375 57.0915 59.5909 57.136 59.6359C57.1805 59.6808 57.2336 59.7164 57.2921 59.7406C57.3506 59.7648 57.4133 59.7771 57.4766 59.7767H63.066C63.1352 59.7776 63.2037 59.7633 63.2667 59.7348C63.3298 59.7063 63.3859 59.6643 63.431 59.6119C63.4699 59.5663 63.4985 59.5128 63.5147 59.4551C63.531 59.3974 63.5346 59.3369 63.5252 59.2777ZM53.734 50.8307C53.6923 50.8309 53.6506 50.8294 53.6091 50.8261C53.5897 50.8245 53.5709 50.8187 53.554 50.809C53.5371 50.7994 53.5225 50.7861 53.5113 50.7703C53.5001 50.7544 53.4925 50.7362 53.489 50.7171C53.4856 50.6979 53.4863 50.6783 53.4913 50.6595C53.5022 50.6232 53.5176 50.5734 53.5402 50.5127L57.5038 40.7053C57.5394 40.6085 57.5805 40.5139 57.6269 40.4218C57.6913 40.2896 57.7691 40.2805 57.7936 40.3783C57.8144 40.4598 57.3389 50.4484 57.3389 50.4484C57.3018 50.8225 57.2846 50.8379 56.9159 50.8687L53.7377 50.8325H53.7304L53.734 50.8307Z" fill="#FFFCE1"/>
<path d="M74.7999 33.4944H70.5982C70.3763 33.4944 70.1272 33.6122 70.0692 33.8766L64.2217 59.2647C64.2089 59.322 64.2095 59.3814 64.2233 59.4384C64.2371 59.4954 64.2639 59.5485 64.3014 59.5935C64.3502 59.6509 64.4108 59.697 64.4792 59.7286C64.5475 59.7602 64.6219 59.7765 64.6972 59.7765H69.9488C70.2313 59.7765 70.4243 59.6379 70.4768 59.3979L71.1145 56.5203C71.1597 56.2957 71.0818 56.1218 70.8808 56.0167C70.7864 55.9681 70.6922 55.9192 70.5982 55.87L69.6879 55.3963L68.7822 54.9235L68.4316 54.7414C68.4031 54.7272 68.3792 54.7052 68.3627 54.678C68.3462 54.6507 68.3377 54.6193 68.3383 54.5875C68.3395 54.5403 68.3592 54.4955 68.393 54.4626C68.4269 54.4298 68.4723 54.4115 68.5195 54.4118L71.397 54.4244C72.2575 54.429 73.1189 54.3683 73.9657 54.2125C79.9256 53.112 83.8837 48.3387 83.9978 41.8436C84.0956 36.3004 81.0016 33.4917 74.8045 33.4917L74.7999 33.4944ZM73.3698 48.6023H73.2574C73.0047 48.6023 72.9604 48.5751 72.9531 48.5661C72.9486 48.5597 74.6124 41.254 74.6134 41.244C74.6559 41.033 74.6541 40.9116 74.5237 40.84C74.357 40.7476 71.9278 39.4669 71.9278 39.4669C71.8996 39.4521 71.876 39.4296 71.8599 39.4021C71.8437 39.3745 71.8355 39.343 71.8363 39.3111C71.8375 39.2646 71.8568 39.2204 71.8902 39.1879C71.9235 39.1554 71.9682 39.1372 72.0148 39.1372H75.856C77.0516 39.1735 77.7183 40.2431 77.6866 42.07C77.6313 45.232 76.1278 48.4909 73.3698 48.6023Z" fill="#FFFCE1"/>
<path d="M31.5662 45.6057V45.6175L30.5925 49.8437C30.54 50.0828 30.3008 50.2576 30.0255 50.2576H28.8489C28.8065 50.2578 28.7653 50.2717 28.7314 50.2971C28.6974 50.3226 28.6726 50.3583 28.6605 50.3989C27.5754 54.0799 26.1063 56.6096 24.1662 58.1286C22.5159 59.422 20.4816 60.0252 17.7635 60.0252C15.3216 60.0252 13.6749 59.2399 12.2783 57.6893C10.4324 55.6405 9.66972 52.2856 10.1317 48.2441C10.9649 40.6567 14.9004 33.0004 22.4779 33.0004C24.783 32.9805 26.5927 33.6915 27.8517 35.1108C29.1831 36.6125 29.8588 38.8733 29.8625 41.8333C29.8592 41.963 29.8053 42.0864 29.7125 42.177C29.6196 42.2677 29.495 42.3185 29.3652 42.3187H23.813C23.7157 42.3158 23.6232 42.2756 23.5547 42.2065C23.4861 42.1374 23.4466 42.0447 23.4443 41.9474C23.399 39.9004 22.7922 38.9041 21.5857 38.9041C19.4572 38.9041 18.2019 41.7934 17.5361 43.3948C16.6059 45.632 16.1322 48.0621 16.2255 50.4822C16.2699 51.609 16.4511 53.1931 17.5207 53.8498C18.4691 54.4313 19.8222 54.0455 20.6419 53.4015C21.4607 52.7566 22.1201 51.6416 22.3973 50.6244C22.4362 50.4832 22.4389 50.3736 22.4018 50.3246C22.3629 50.2739 22.2551 50.2621 22.1727 50.2621H20.747C20.6716 50.2624 20.5969 50.2461 20.5284 50.2145C20.4599 50.1829 20.3991 50.1367 20.3503 50.0792C20.3128 50.0343 20.2862 49.9813 20.2726 49.9245C20.2589 49.8676 20.2585 49.8083 20.2715 49.7513L21.2461 45.5178C21.2941 45.3014 21.4906 45.1374 21.7325 45.1084V45.0976H31.0888C31.1106 45.0976 31.1332 45.0976 31.1541 45.1021C31.3968 45.1338 31.568 45.3593 31.5635 45.6057H31.5662Z" fill="#FFFCE1"/>
</g>
</g>
<defs>
<filter id="filter0_d_202_32" x="-3.66033" y="19.3397" width="101.321" height="54.4931" filterUnits="userSpaceOnUse" color-interpolation-filters="sRGB">
<feFlood flood-opacity="0" result="BackgroundImageFix"/>
<feColorMatrix in="SourceAlpha" type="matrix" values="0 0 0 0 0 0 0 0 0 0 0 0 0 0 0 0 0 0 127 0" result="hardAlpha"/>
<feOffset/>
<feGaussianBlur stdDeviation="6.83017"/>
<feComposite in2="hardAlpha" operator="out"/>
<feColorMatrix type="matrix" values="0 0 0 0 1 0 0 0 0 0.988235 0 0 0 0 0.882353 0 0 0 0.3 0"/>
<feBlend mode="normal" in2="BackgroundImageFix" result="effect1_dropShadow_202_32"/>
<feBlend mode="normal" in="SourceGraphic" in2="effect1_dropShadow_202_32" result="shape"/>
</filter>
<clipPath id="clip0_202_32">
<rect width="94" height="94" rx="25" fill="white"/>
</clipPath>
</defs>
</svg>
