<svg width="94" height="94" viewBox="0 0 94 94" fill="none" xmlns="http://www.w3.org/2000/svg">
<g clip-path="url(#clip0_176_272)">
<g filter="url(#filter0_d_176_272)">
<path d="M73.8042 46.3898C73.8042 42.9036 70.9782 40.0776 67.4919 40.0776C67.2677 40.0776 67.0465 40.0896 66.8285 40.1124L75.4983 14.5416H38.6543L47.3121 40.0902C47.1851 40.0825 47.0574 40.0776 46.9285 40.0776C43.4424 40.0776 40.6162 42.9036 40.6162 46.3898C40.6162 49.2078 42.4629 51.5933 45.0118 52.405C43.6656 54.737 41.9716 56.8372 40.0484 58.6517C37.4333 61.1188 34.4403 62.9895 31.2031 64.1423C27.3491 62.1624 25.529 57.7592 27.1713 53.8984C27.3567 53.4625 27.5461 53.0206 27.727 52.5806C30.5192 51.929 32.5997 49.4259 32.5997 46.4351C32.5997 42.9489 29.7737 40.1229 26.2874 40.1229C22.8012 40.1229 19.975 42.9489 19.975 46.4351C19.975 48.5729 21.0388 50.4611 22.6646 51.6031C21.1023 55.1603 18.8057 58.8831 18.0902 63.1979C17.2327 68.369 18.0874 73.8579 22.5598 76.9577C32.9756 84.1767 44.2818 72.4824 56.2027 69.5428C60.5231 68.4773 65.2654 68.6491 69.0717 66.4445C71.9301 64.7889 73.8145 62.0454 74.3493 58.9651C74.8777 55.9222 74.1074 52.8925 72.3361 50.4359C73.2523 49.3402 73.8042 47.9297 73.8042 46.3898Z" fill="#99425B"/>
<path d="M72.8304 58.7013C72.366 61.3755 70.7144 63.7114 68.299 65.1105C66.0474 66.4146 63.3491 66.8039 60.4924 67.2158C58.962 67.4364 57.3795 67.6647 55.8335 68.046C51.7458 69.0539 47.7865 71.0206 43.9576 72.9224C36.2951 76.7285 29.6777 80.015 23.4379 75.6906C18.8674 72.5228 19.0784 66.6619 19.6109 63.4501C20.1044 60.4746 21.4386 57.7343 22.7288 55.084C22.9517 54.6258 23.1702 54.1761 23.3828 53.7303C24.0222 53.9857 24.7024 54.1601 25.4114 54.2393C24.0981 58.5737 26.1635 63.2866 30.4986 65.5137L31.0918 65.8184L31.7202 65.5947C35.1473 64.3742 38.3053 62.4157 41.1063 59.773C42.9169 58.0648 44.4736 56.175 45.7531 54.1558C46.1366 54.2136 46.529 54.2439 46.9284 54.2439C50.9071 54.2439 54.202 51.2695 54.7118 47.4278C56.3404 47.3681 58.0703 47.3677 59.7084 47.4272C60.2179 51.2691 63.5129 54.2439 67.4917 54.2439C69.1554 54.2439 70.6986 53.7225 71.9698 52.8369C72.8524 54.6435 73.1819 56.6764 72.8304 58.7013ZM26.2872 41.6646C28.9179 41.6646 31.0579 43.8047 31.0579 46.4353C31.0579 47.3801 30.7807 48.2612 30.3047 49.0032C29.5115 50.2399 28.1639 51.0877 26.615 51.1934C26.5066 51.2008 26.3975 51.2059 26.2872 51.2059C25.7011 51.2059 25.1395 51.0989 24.6202 50.9048C23.5699 50.5117 22.6947 49.7582 22.1442 48.7959C21.7457 48.0992 21.5166 47.2937 21.5166 46.4353C21.5166 43.8047 23.6567 41.6646 26.2872 41.6646ZM42.1577 46.3899C42.1577 43.9999 43.9245 42.0153 46.2203 41.6721C46.4514 41.6374 46.6879 41.6193 46.9284 41.6193C48.4578 41.6193 49.8194 42.3438 50.6927 43.4665C50.9098 43.7454 51.098 44.048 51.2496 44.3711C51.5374 44.9847 51.6991 45.6686 51.6991 46.3899C51.6991 46.7713 51.6529 47.1421 51.5679 47.4978C51.1029 49.4441 49.4433 50.9317 47.4097 51.1364C47.2516 51.1523 47.0909 51.1606 46.9284 51.1606C45.976 51.1606 45.0886 50.8789 44.3429 50.3961C43.0294 49.5453 42.1577 48.0679 42.1577 46.3899ZM62.0688 40.7171C61.0468 41.6949 60.2868 42.9443 59.9083 44.3492C58.1417 44.2829 56.2684 44.2829 54.512 44.3492C54.1086 42.8518 53.2718 41.5308 52.1462 40.5273L57.0826 30.5455L62.0688 40.7171ZM40.8045 16.0834H73.3476L65.6613 38.753C65.3282 38.833 65.0032 38.9337 64.6878 39.0547L57.0948 23.5653L49.4803 38.9622C49.1512 38.8489 48.812 38.7576 48.4648 38.6884L40.8045 16.0834ZM72.2624 46.3899C72.2624 46.8683 72.1909 47.33 72.0594 47.766C71.7461 48.8033 71.0888 49.692 70.2206 50.2997C69.4467 50.8415 68.506 51.1606 67.4917 51.1606C65.289 51.1606 63.4309 49.6595 62.8846 47.6267C62.7786 47.232 62.7211 46.8176 62.7211 46.3899C62.7211 45.7378 62.8529 45.1161 63.0908 44.5495C63.2133 44.2575 63.3663 43.9815 63.5419 43.7222C64.4004 42.4551 65.8493 41.6193 67.4917 41.6193C67.6424 41.6193 67.791 41.6271 67.9381 41.6408C70.3602 41.8665 72.2624 43.9099 72.2624 46.3899ZM75.3458 46.3899C75.3458 42.5555 72.5831 39.3562 68.9443 38.6727L77.6487 13.0001H36.504L45.2216 38.7249C41.7091 39.5066 39.0744 42.6454 39.0744 46.3899C39.0744 49.2016 40.5604 51.6715 42.7874 53.0593C41.7162 54.6553 40.4459 56.157 38.9904 57.5303C36.6818 59.7082 34.11 61.3598 31.3373 62.4465C28.5445 60.6923 27.3639 57.384 28.59 54.5019L28.6861 54.276C28.7462 54.1349 28.8063 53.9936 28.8663 53.8522C31.9337 52.7823 34.1412 49.8627 34.1412 46.4353C34.1412 42.1044 30.6179 38.5813 26.2872 38.5813C21.9566 38.5813 18.4332 42.1044 18.4332 46.4353C18.4332 48.6212 19.3317 50.6007 20.7778 52.0259C20.5157 52.5845 20.2398 53.1526 19.9566 53.7343C18.6344 56.4499 17.1359 59.5278 16.5692 62.9457C15.4436 69.7336 17.2593 75.1598 21.6815 78.2248C24.3651 80.0847 27.0901 80.8159 29.8326 80.8159C34.9966 80.8159 40.2202 78.2216 45.3293 75.6838C49.0087 73.8564 52.8136 71.9664 56.5718 71.0396C57.9701 70.6947 59.4091 70.4872 60.9326 70.2675C63.9535 69.8317 67.0773 69.3812 69.8443 67.7787C73.0518 65.9208 75.2474 62.8045 75.8682 59.2289C76.4012 56.1593 75.7598 53.0848 74.1955 50.4775C74.9247 49.2859 75.3458 47.8863 75.3458 46.3899Z" fill="white"/>
</g>
</g>
<defs>
<filter id="filter0_d_176_272" x="-2.95623" y="-6.19988" width="99.8049" height="106.216" filterUnits="userSpaceOnUse" color-interpolation-filters="sRGB">
<feFlood flood-opacity="0" result="BackgroundImageFix"/>
<feColorMatrix in="SourceAlpha" type="matrix" values="0 0 0 0 0 0 0 0 0 0 0 0 0 0 0 0 0 0 127 0" result="hardAlpha"/>
<feOffset/>
<feGaussianBlur stdDeviation="9.6"/>
<feComposite in2="hardAlpha" operator="out"/>
<feColorMatrix type="matrix" values="0 0 0 0 0.6 0 0 0 0 0.258824 0 0 0 0 0.356863 0 0 0 0.4 0"/>
<feBlend mode="normal" in2="BackgroundImageFix" result="effect1_dropShadow_176_272"/>
<feBlend mode="normal" in="SourceGraphic" in2="effect1_dropShadow_176_272" result="shape"/>
</filter>
<clipPath id="clip0_176_272">
<rect width="94" height="94" rx="25" fill="white"/>
</clipPath>
</defs>
</svg>
