<svg width="94" height="94" viewBox="0 0 94 94" fill="none" xmlns="http://www.w3.org/2000/svg">
<rect width="94" height="94" rx="25" fill="#68A2DF" fill-opacity="0.15"/>
<path d="M19.1278 30.706C13.373 38.9769 14.0894 49.7388 18.4855 58.5277C18.5898 58.7385 18.6994 58.9457 18.8074 59.1528L19.013 59.5489L19.1413 59.7769L19.3704 60.187C19.5071 60.4274 19.647 60.6672 19.7899 60.9066L20.0294 61.301C20.1881 61.5567 20.3503 61.8107 20.5163 62.0628L20.7239 62.3832C20.953 62.725 21.1873 63.0662 21.4294 63.4012L21.4497 63.4273L21.5687 63.588C21.7785 63.8768 21.9927 64.1618 22.2115 64.4432L22.4537 64.7511C22.6485 64.9956 22.8464 65.239 23.0474 65.4811L23.2744 65.7524C23.5452 66.072 23.8211 66.3872 24.102 66.6979L24.1192 66.7151L24.151 66.7506C24.4271 67.0502 24.7075 67.3457 24.9921 67.6371L25.2619 67.909C25.4828 68.1309 25.7066 68.3504 25.9334 68.5674L26.2084 68.8283C26.5107 69.1136 26.8175 69.3931 27.1289 69.6669L27.1435 69.6783L27.3037 69.815C27.5792 70.0537 27.858 70.289 28.1401 70.521L28.4866 70.797C28.7168 70.9818 28.9492 71.1633 29.1837 71.3418L29.5562 71.6251C29.815 71.8157 30.0757 72.0027 30.3384 72.186L30.6233 72.388L30.7015 72.4438C30.951 72.6155 31.2061 72.7809 31.4613 72.9463L31.79 73.1654C32.1813 73.4128 32.5779 73.6575 32.9791 73.8938L33.3079 74.0791C33.6025 74.2495 33.8999 74.4163 34.2001 74.5795C34.3629 74.6671 34.5299 74.7501 34.6937 74.8341C34.9061 74.9453 35.1169 75.058 35.3329 75.166L35.4806 75.2375L35.742 75.3637C36.0763 75.5237 36.4137 75.6798 36.7543 75.8318L36.9682 75.9278C37.3588 76.0986 37.7524 76.2623 38.149 76.4188L38.4365 76.532C38.8039 76.6734 39.1764 76.8132 39.5505 76.9447L39.6904 76.9933C40.101 77.1368 40.5153 77.2698 40.9327 77.3997L41.2328 77.4895C41.6575 77.6173 42.0775 77.7702 42.5153 77.8511C70.3469 82.9265 78.4315 61.1262 78.4315 61.1262C71.6415 69.9721 59.5892 72.3055 48.1699 69.7076C47.7374 69.61 47.3179 69.4748 46.8957 69.3501L46.578 69.2536C46.1667 69.1275 45.7575 68.9944 45.3507 68.8544L45.1822 68.7934C44.8194 68.6652 44.4586 68.5314 44.1 68.3921L43.7963 68.2726C43.4032 68.1178 43.0138 67.9559 42.628 67.7869L42.3948 67.6835C42.0645 67.5343 41.736 67.3814 41.4091 67.2249L41.1242 67.0882C40.868 66.9635 40.6145 66.8309 40.3619 66.7005C40.1929 66.6113 40.0207 66.5273 39.8532 66.4344C39.5457 66.2688 39.2411 66.098 38.9395 65.922L38.6311 65.7498C38.2306 65.5134 37.834 65.2704 37.4415 65.0209L37.1206 64.8069C36.8352 64.6239 36.5529 64.4362 36.2737 64.2439L36.0013 64.0524C35.7325 63.8624 35.4657 63.6695 35.2009 63.4738L34.8466 63.2056C34.6034 63.0206 34.3626 62.8324 34.1245 62.641L33.8025 62.3827C33.4993 62.1341 33.1994 61.8813 32.903 61.6245L32.8043 61.5416C32.485 61.2597 32.1698 60.9732 31.8589 60.6822L31.5922 60.426C31.3621 60.2069 31.1357 59.9861 30.9129 59.7597L30.6468 59.4941C30.364 59.2047 30.086 58.9107 29.8129 58.6123L29.7717 58.5684C29.4839 58.2529 29.2019 57.9321 28.9259 57.6063L28.7047 57.3433C28.4984 57.0951 28.2954 56.8443 28.0957 56.5909L27.8729 56.3133C27.6342 56.0046 27.3999 55.6926 27.1701 55.3772C20.8304 46.7291 18.5522 34.8021 23.6193 25.0071M36.9922 23.7371C32.8299 29.7261 33.0564 37.7439 36.3029 44.0779C36.8468 45.1423 37.4619 46.1689 38.1438 47.1507C38.7673 48.0445 39.4587 49.1079 40.2863 49.8259C40.5888 50.1574 40.9003 50.4806 41.2202 50.7954L41.4665 51.038C41.7773 51.3409 42.0954 51.6363 42.4204 51.924L42.459 51.9574L42.4684 51.9668C42.8319 52.2834 43.2034 52.5909 43.5824 52.8888L43.8354 53.086C44.2165 53.3796 44.605 53.6634 45.0006 53.9371L45.0345 53.9626C45.2098 54.0837 45.3883 54.1964 45.5662 54.3133L45.8182 54.4797C46.1021 54.6623 46.3899 54.8389 46.6818 55.0093L46.8044 55.0803C47.057 55.2257 47.3114 55.368 47.5678 55.5071L47.8396 55.6485C48.0165 55.7409 48.1934 55.8353 48.3734 55.9251L48.4543 55.9616C48.8211 56.1421 49.1911 56.3164 49.5688 56.4808L49.8151 56.582C50.1172 56.7104 50.4225 56.8356 50.7283 56.9525L51.1196 57.096C51.3977 57.1993 51.6769 57.2932 51.9581 57.3876L52.3375 57.5092C52.7377 57.6334 53.1332 57.7905 53.5501 57.8599C75.0388 61.42 80 44.8747 80 44.8747C75.5283 51.3151 66.8677 54.3884 57.6263 51.9892C57.2177 51.8819 56.8118 51.7646 56.409 51.6375L56.0432 51.5191C55.7577 51.4268 55.4739 51.329 55.1921 51.2259L54.8081 51.0829C54.5006 50.9649 54.1952 50.8418 53.8919 50.7135L53.6451 50.6091C53.2672 50.4446 52.8935 50.2708 52.5243 50.0878C52.3348 49.9955 52.1486 49.8979 51.9618 49.8019L51.6372 49.6349C51.3978 49.5051 51.1607 49.3712 50.926 49.2331L50.7559 49.1366C50.4653 48.9671 50.178 48.7917 49.8944 48.6107L49.6346 48.4374C49.4474 48.3164 49.2615 48.1934 49.0768 48.0685C48.683 47.7946 48.2957 47.5114 47.9153 47.219L47.6539 47.0129C43.609 43.8196 40.4021 39.4543 38.8779 34.5052C37.2802 29.3729 37.6246 23.6113 40.3927 18.9351M52.0171 18.5307C49.5636 22.1414 49.3226 26.6257 51.0252 30.6132C52.8206 34.8464 56.4992 38.1666 60.793 39.7418C60.9699 39.8071 61.1473 39.8655 61.3263 39.9265L61.5616 40.0012C61.8147 40.0805 62.0657 40.1728 62.3271 40.2224C74.1925 42.5151 77.4109 34.1337 78.2671 32.8996C75.4484 36.9586 70.7106 37.9328 64.8974 36.5219C64.4382 36.4107 63.9337 36.2448 63.4912 36.0878C62.9227 35.886 62.3651 35.6546 61.8209 35.3943C60.7878 34.8977 59.8069 34.2992 58.8927 33.6077C53.691 29.6604 50.4595 22.1315 53.8538 16" fill="#0868AC"/>
</svg>
