<svg width="94" height="94" viewBox="0 0 94 94" fill="none" xmlns="http://www.w3.org/2000/svg">
<g clip-path="url(#clip0_176_289)">
<g filter="url(#filter0_d_176_289)">
<rect x="13" y="13" width="68" height="68" rx="18.0851" fill="white"/>
<path d="M73.1367 71.573L72.0384 70.5265C71.5143 69.8332 70.9289 69.1884 70.2893 68.6001L70.2784 68.5914C69.6327 68.0048 68.9617 67.447 68.2655 66.918C67.7077 66.5346 66.9409 66.0726 65.9651 65.5321C65.1732 65.1806 64.5421 64.5448 64.1965 63.7505L64.1878 63.7289L64.084 63.677C64.5424 63.6316 64.9618 63.5472 65.364 63.4283L65.3143 63.4413L66.5467 63.1019C67.0569 62.9419 67.6472 62.8381 68.259 62.8143H68.272C68.9149 62.7855 69.5253 62.6853 70.1033 62.5138L70.0493 62.5267C70.3289 62.4576 70.6164 62.379 70.9119 62.2911C71.2074 62.2031 71.4604 62.1246 71.6708 62.0554V61.69C71.4618 61.3772 71.2089 61.0198 70.9119 60.6176C70.6359 60.2419 70.3141 59.902 69.9541 59.6057L69.9433 59.5971C69.0367 58.7957 68.0976 58.0202 67.1261 57.2707C66.2149 56.5637 65.2688 55.9027 64.2916 55.2902L64.1446 55.2037C63.5806 54.8353 62.9834 54.5204 62.3608 54.2632L62.2873 54.2372C61.6416 53.9749 61.0052 53.6874 60.3782 53.3746C60.1526 53.2634 59.9155 53.1771 59.6712 53.1173L59.6474 53.113C59.4025 53.067 59.181 52.938 59.0204 52.7476L59.0182 52.7454C58.7115 52.3382 58.4539 51.8962 58.2507 51.4287L58.2334 51.3854C58.0244 50.8968 57.7981 50.4276 57.5545 49.9779C57.0313 48.966 56.5253 47.9376 56.0367 46.8926C55.5481 45.8476 55.0789 44.8011 54.6292 43.7532C54.3164 43.0556 54.0288 42.3587 53.7665 41.6625C53.5011 40.9528 53.1673 40.2707 52.7698 39.6258L52.7979 39.6755C51.9384 38.197 50.9768 36.7803 49.9201 35.4356L49.9807 35.5178C49.0154 34.2956 47.961 33.1466 46.8261 32.0801L46.8089 32.0649C45.6913 31.0191 44.5131 30.0401 43.2803 29.1331L43.1744 29.0574C41.8829 28.1191 40.4703 27.1952 38.9366 26.2856C38.2847 25.9054 37.5823 25.6193 36.8502 25.4359L36.794 25.4229L34.3876 24.8219L33.0276 24.7181C32.575 24.6835 32.1217 24.6662 31.6677 24.6662C31.3618 24.5055 31.0801 24.3024 30.8309 24.063C30.589 23.8359 30.3341 23.623 30.0677 23.4252L30.0461 23.41C28.6416 22.5998 27.1624 21.9264 25.6289 21.3993L25.4451 21.3431C25.0635 21.1256 24.638 20.9964 24.1998 20.965C23.7617 20.9336 23.3221 21.0007 22.9133 21.1615L22.9328 21.155C22.5304 21.3128 22.1678 21.5573 21.8707 21.8712C21.5736 22.1851 21.3493 22.5607 21.2139 22.9711L21.2074 22.9927C20.9792 23.5439 20.9053 24.1469 20.9937 24.7369C21.082 25.3269 21.3293 25.8817 21.709 26.3418L21.7047 26.3354C22.4888 27.3804 23.0899 28.202 23.5079 28.8001C23.8207 29.2196 24.1436 29.6556 24.4765 30.1082C24.7814 30.5147 25.0516 30.9795 25.27 31.4703L25.2873 31.5157C25.4084 31.773 25.5143 32.0801 25.5922 32.3957L25.5987 32.4303C25.6678 32.7272 25.755 33.0501 25.8603 33.3989C26.1731 34.2004 26.4693 35.0219 26.7489 35.8637C27.0538 36.7826 27.391 37.561 27.7824 38.3026L27.7413 38.2161C27.9503 38.5995 28.16 38.9743 28.3705 39.3404C28.5809 39.7065 28.8072 40.064 29.0494 40.4128C29.1881 40.6189 29.3649 40.7965 29.5704 40.936L29.5769 40.9403C29.6859 41.0173 29.7756 41.1185 29.839 41.2359C29.9024 41.3533 29.9377 41.4837 29.9423 41.6171C29.6852 41.995 29.5242 42.432 29.4731 42.8862L29.471 42.8992C29.4056 43.4089 29.2949 43.9118 29.1402 44.4019L29.1575 44.337C28.6488 45.8941 28.3926 47.5226 28.3986 49.1606C28.3986 49.7185 28.4274 50.2684 28.4851 50.8103L28.4786 50.7433C28.6083 52.8146 29.2331 54.7172 30.2342 56.3648L30.2039 56.3107C30.6299 56.9485 31.0861 57.5042 31.5898 58.0123C31.8825 58.3415 32.2768 58.5635 32.71 58.643C33.1432 58.7225 33.5906 58.655 33.9811 58.4512L33.9703 58.4555C34.3443 58.3224 34.6706 58.0816 34.908 57.7634C35.1454 57.4452 35.2833 57.0639 35.3043 56.6674V56.6631C35.4081 55.6383 35.5638 54.7216 35.7778 53.8264L35.7497 53.9713C35.8043 53.8254 35.8321 53.6709 35.8319 53.5151L35.8276 53.4178V53.4221C35.8103 53.265 35.9061 53.1166 36.1151 52.9767V53.0805C36.3241 53.5692 36.5418 54.0571 36.7681 54.5443C36.9944 55.0315 37.2293 55.5194 37.4729 56.008C38.1107 56.9788 38.7875 57.8263 39.5312 58.6069L39.5247 58.6004C40.2642 59.3997 41.0804 60.1246 41.9614 60.7646L42.009 60.7971C42.4645 61.1459 42.8724 61.5264 43.2327 61.9386L43.2414 61.9473C43.5859 62.3509 43.9895 62.6781 44.4522 62.9289L44.4738 62.9397V62.8878H44.5776C44.4956 62.7041 44.3599 62.5496 44.1884 62.4446L44.1841 62.4424C44.026 62.354 43.8736 62.2558 43.7279 62.1484L43.7387 62.1549C43.4259 61.8421 43.103 61.4933 42.7701 61.1084C42.4371 60.7235 42.1322 60.3574 41.8555 60.0101C41.1233 58.9982 40.4249 57.9409 39.7604 56.8383C39.0959 55.7356 38.4682 54.6149 37.8772 53.4762C37.5976 52.9184 37.3273 52.3432 37.0664 51.7508C36.8055 51.1584 36.5526 50.5833 36.3075 50.0255C36.1967 49.7987 36.1265 49.5543 36.1 49.3033V49.2925C36.0937 49.1739 36.057 49.0588 35.9934 48.9585C35.9298 48.8581 35.8414 48.7758 35.7367 48.7196L35.7324 48.7174C35.484 49.1424 35.1881 49.5377 34.8503 49.8958L34.8524 49.8936C34.5061 50.2602 34.2266 50.6846 34.0265 51.1476L34.0157 51.1757C33.6928 51.9744 33.4825 52.8142 33.3909 53.6708L33.3865 53.7119C33.2828 54.6358 33.1783 55.5857 33.073 56.5615L32.9693 56.6134L32.9174 56.6653C32.647 56.6103 32.3923 56.4958 32.1716 56.3301C31.951 56.1645 31.77 55.9518 31.6417 55.7075L31.6374 55.6967C31.3751 55.1907 31.1401 54.6934 30.9326 54.2048C30.3683 52.7223 30.0591 51.155 30.018 49.5693V49.5498C29.9047 47.8551 30.1146 46.1544 30.6363 44.5381L30.6104 44.6332C30.7142 44.2498 30.9405 43.604 31.2893 42.696C31.6381 41.7879 31.708 41.1602 31.499 40.8128C31.3934 40.4701 31.1951 40.1634 30.9261 39.9263L30.9239 39.9241C30.6638 39.7022 30.4216 39.46 30.1996 39.1998L30.1931 39.1912C29.9495 38.8395 29.7146 38.4647 29.4883 38.0669C29.262 37.6691 29.0616 37.277 28.8872 36.8907C28.4824 35.9389 28.14 34.9618 27.8624 33.9654L27.8148 33.773C27.5087 32.66 27.1139 31.5733 26.6343 30.5233L26.6905 30.6617C26.4672 30.1481 26.1842 29.6627 25.8473 29.2153L25.8603 29.2326C25.5086 28.7627 25.1943 28.318 24.9176 27.8986C24.5659 27.446 24.2171 27.0099 23.8711 26.5905C23.5104 26.154 23.2014 25.6774 22.9501 25.17L22.9306 25.1267C22.8194 24.9011 22.7331 24.6641 22.6733 24.4197L22.669 24.396C22.631 24.2732 22.6207 24.1436 22.6391 24.0164C22.6574 23.8893 22.7038 23.7678 22.775 23.6608L22.7728 23.6652C22.7956 23.5481 22.8502 23.4397 22.9306 23.3517C23.0177 23.2727 23.1245 23.2189 23.2398 23.196H23.2441C23.4147 23.0854 23.6108 23.0203 23.8137 23.0071C24.0166 22.9938 24.2195 23.0328 24.403 23.1203L24.3965 23.1182C24.87 23.2522 25.2527 23.3863 25.6268 23.5398L25.5489 23.5117C26.2105 23.7913 26.821 24.0615 27.3802 24.3224C28.0245 24.6295 28.5737 24.9538 29.0926 25.3148L29.0537 25.2889C29.3333 25.4633 29.6122 25.655 29.8904 25.864C30.1686 26.073 30.4648 26.2827 30.779 26.4932H31.512C32.0698 26.4932 32.6622 26.5199 33.2892 26.5732C33.9227 26.6229 34.5087 26.7418 35.0665 26.9278L35.0146 26.9126C36.0546 27.2218 36.9475 27.5872 37.7951 28.0261L37.7064 27.985C38.5612 28.4203 39.372 28.8823 40.1388 29.3709C41.4123 30.1644 42.5128 30.9774 43.5484 31.866L43.5117 31.8357C44.5927 32.7611 45.5743 33.7103 46.4953 34.7135L46.517 34.7394C47.4164 35.721 48.2748 36.7869 49.0596 37.9047L49.1266 38.0064C49.8488 39.0269 50.5774 40.2074 51.2325 41.4311L51.3233 41.6149C51.5144 41.991 51.6834 42.378 51.8292 42.7738L51.853 42.8451C51.9928 43.2459 52.1492 43.6567 52.3222 44.0775C52.7056 44.9496 53.1164 45.8296 53.5546 46.7175C53.9928 47.6054 54.4036 48.4688 54.787 49.3077L55.9372 51.8179C56.3415 52.6957 56.7934 53.4524 57.3188 54.1508L57.295 54.1183C57.7339 54.5875 58.3199 54.9161 58.9771 55.0307L58.9944 55.0329C59.7901 55.2318 60.4603 55.4567 61.109 55.7226L61.0074 55.6859C61.3165 55.8264 61.7144 55.9756 62.123 56.1075L62.2095 56.1312C62.6679 56.2718 63.0657 56.4577 63.4311 56.6912L63.4116 56.6804C64.1186 57.0761 64.7175 57.4653 65.2883 57.889L65.2429 57.8566C65.8353 58.2919 66.4277 58.7027 67.0202 59.089C67.2998 59.298 67.769 59.6029 68.4277 60.0036C69.0864 60.4043 69.4352 60.779 69.4741 61.1279C68.1494 61.0799 66.8231 61.1429 65.5088 61.316L65.6299 61.303C64.5324 61.4465 63.4578 61.7299 62.4322 62.1462L62.5187 62.1159C62.2468 62.2308 61.9663 62.324 61.6798 62.3948L61.6387 62.4035C61.4895 62.4242 61.3516 62.4945 61.2472 62.6032C61.1429 62.7118 61.0782 62.8525 61.0636 63.0024C61.1976 63.1682 61.3007 63.3577 61.3728 63.5667L61.3771 63.5797C61.4491 63.7973 61.5392 63.9934 61.6473 64.1678L61.6409 64.1548C61.8981 64.611 62.1749 65.0045 62.4862 65.3677L62.4776 65.3569C62.7832 65.7317 63.1262 66.0589 63.5067 66.3385L63.5219 66.3493C63.8736 66.629 64.2397 66.9165 64.6202 67.212C64.9683 67.4844 65.3618 67.7525 65.7705 67.9947L65.8224 68.0228C66.4364 68.399 67.1499 68.7579 67.8936 69.0584L67.9931 69.093C68.8017 69.4173 69.4958 69.7936 70.1401 70.2411L70.1055 70.2173C70.5249 70.4609 70.9429 70.7312 71.3595 71.0281C71.7761 71.325 72.1768 71.6126 72.5616 71.8908C72.7202 72.0465 72.8578 72.2187 72.9746 72.4075L72.9811 72.4183C73.1801 72.6488 73.4573 72.7975 73.7594 72.8356H73.7659V72.7318C73.5728 72.589 73.4329 72.3858 73.3681 72.1546L73.3659 72.1459C73.3148 71.9383 73.2332 71.7394 73.1238 71.5557L73.1281 71.5643L73.1367 71.573ZM32.9736 30.0498C32.6939 30.0498 32.4323 30.0585 32.1887 30.0758C31.9511 30.0914 31.7165 30.1372 31.4904 30.212L31.5098 30.2055V30.2574H31.6136C31.7534 30.4664 31.9293 30.7014 32.1412 30.9622C32.3531 31.2231 32.5448 31.4761 32.7163 31.7211L33.553 33.4465L33.6568 33.3946C33.8999 33.2189 34.0887 32.9784 34.2017 32.7006L34.206 32.6898C34.3184 32.3892 34.3833 32.039 34.3833 31.6757L34.3811 31.559V31.5655C34.2829 31.4703 34.2037 31.3573 34.1476 31.2325L34.1454 31.226L33.9703 30.8325C33.86 30.6518 33.6992 30.5075 33.5076 30.4174L33.5011 30.4152C33.3081 30.3204 33.1303 30.1972 32.9736 30.0498Z" fill="black"/>
</g>
</g>
<defs>
<filter id="filter0_d_176_289" x="-0.6" y="-0.6" width="95.2" height="95.2" filterUnits="userSpaceOnUse" color-interpolation-filters="sRGB">
<feFlood flood-opacity="0" result="BackgroundImageFix"/>
<feColorMatrix in="SourceAlpha" type="matrix" values="0 0 0 0 0 0 0 0 0 0 0 0 0 0 0 0 0 0 127 0" result="hardAlpha"/>
<feOffset/>
<feGaussianBlur stdDeviation="6.8"/>
<feComposite in2="hardAlpha" operator="out"/>
<feColorMatrix type="matrix" values="0 0 0 0 1 0 0 0 0 1 0 0 0 0 1 0 0 0 0.3 0"/>
<feBlend mode="normal" in2="BackgroundImageFix" result="effect1_dropShadow_176_289"/>
<feBlend mode="normal" in="SourceGraphic" in2="effect1_dropShadow_176_289" result="shape"/>
</filter>
<clipPath id="clip0_176_289">
<rect width="94" height="94" fill="white"/>
</clipPath>
</defs>
</svg>
