<svg width="94" height="94" viewBox="0 0 94 94" fill="none" xmlns="http://www.w3.org/2000/svg">
<rect width="94" height="94" rx="25" fill="white"/>
<path d="M83.1303 80.9685L81.612 79.5219C80.8875 78.5635 80.0783 77.6723 79.194 76.8589L79.1791 76.847C78.2864 76.036 77.3589 75.2649 76.3965 74.5336C75.6254 74.0036 74.5654 73.365 73.2165 72.6178C72.1219 72.132 71.2495 71.2532 70.7716 70.1551L70.7597 70.1252L70.6162 70.0535C71.2498 69.9907 71.8297 69.8741 72.3856 69.7097L72.3168 69.7277L74.0204 69.2584C74.7258 69.0373 75.5417 68.8938 76.3876 68.8609H76.4055C77.2942 68.8211 78.138 68.6826 78.937 68.4455L78.8623 68.4634C79.2488 68.3678 79.6463 68.2592 80.0548 68.1376C80.4633 68.0161 80.813 67.9075 81.1039 67.8119V67.3068C80.8149 66.8744 80.4653 66.3802 80.0548 65.8243C79.6732 65.305 79.2284 64.8351 78.7308 64.4256L78.7158 64.4136C77.4625 63.3058 76.1644 62.2338 74.8214 61.1977C73.5618 60.2204 72.2541 59.3066 70.9031 58.46L70.6999 58.3404C69.9203 57.8312 69.0948 57.3959 68.2342 57.0403L68.1325 57.0044C67.2399 56.6418 66.3602 56.2443 65.4934 55.8119C65.1816 55.6582 64.8539 55.5389 64.5161 55.4562L64.4832 55.4502C64.1447 55.3868 63.8386 55.2084 63.6165 54.9451L63.6135 54.9422C63.1895 54.3792 62.8334 53.7683 62.5525 53.122L62.5286 53.0622C62.2397 52.3867 61.9268 51.7382 61.5901 51.1165C60.8668 49.7178 60.1674 48.2961 59.492 46.8515C58.8165 45.4069 58.1679 43.9604 57.5463 42.5118C57.1139 41.5474 56.7164 40.584 56.3537 39.6216C55.9869 38.6407 55.5255 37.6978 54.9759 36.8062L55.0148 36.875C53.8267 34.8311 52.4975 32.8727 51.0367 31.0139L51.1204 31.1275C49.7861 29.4381 48.3285 27.8497 46.7597 26.3754L46.7358 26.3544C45.191 24.9088 43.5623 23.5555 41.8581 22.3016L41.7117 22.197C39.9264 20.8999 37.9737 19.6227 35.8537 18.3654C34.9525 17.8398 33.9815 17.4443 32.9695 17.1908L32.8918 17.1729L29.5653 16.342L27.6853 16.1985C27.0597 16.1507 26.433 16.1268 25.8054 16.1268C25.3825 15.9046 24.9932 15.6239 24.6487 15.2929C24.3142 14.979 23.962 14.6847 23.5937 14.4112L23.5638 14.3903C21.6222 13.2702 19.5774 12.3394 17.4577 11.6108L17.2037 11.533C16.6761 11.2324 16.0879 11.0539 15.4822 11.0104C14.8766 10.967 14.2689 11.0598 13.7038 11.282L13.7307 11.273C13.1745 11.4912 12.6732 11.8292 12.2625 12.2632C11.8518 12.6971 11.5418 13.2162 11.3546 13.7836L11.3456 13.8135C11.0301 14.5754 10.928 15.4089 11.0501 16.2245C11.1723 17.0401 11.5141 17.807 12.039 18.4431L12.0331 18.4342C13.117 19.8787 13.9479 21.0145 14.5257 21.8414C14.9581 22.4212 15.4044 23.0239 15.8647 23.6496C16.2861 24.2115 16.6597 24.8541 16.9616 25.5325L16.9855 25.5953C17.1528 25.9509 17.2993 26.3754 17.4069 26.8117L17.4159 26.8595C17.5115 27.27 17.632 27.7163 17.7775 28.1985C18.2099 29.3064 18.6193 30.4421 19.0059 31.6057C19.4273 32.876 19.8936 33.9519 20.4345 34.9771L20.3777 34.8575C20.6667 35.3875 20.9566 35.9056 21.2475 36.4117C21.5384 36.9178 21.8512 37.4119 22.186 37.8941C22.3777 38.179 22.6222 38.4245 22.9063 38.6174L22.9152 38.6234C23.0659 38.7298 23.1899 38.8696 23.2775 39.0319C23.3651 39.1942 23.414 39.3746 23.4203 39.5589C23.065 40.0813 22.8423 40.6854 22.7718 41.3133L22.7688 41.3312C22.6784 42.0358 22.5253 42.731 22.3115 43.4084L22.3354 43.3188C21.6322 45.4712 21.278 47.7224 21.2863 49.9867C21.2863 50.7579 21.3262 51.518 21.4059 52.2672L21.3969 52.1745C21.5762 55.0378 22.44 57.6679 23.8238 59.9454L23.782 59.8707C24.3708 60.7524 25.0014 61.5205 25.6978 62.2228C26.1023 62.6779 26.6473 62.9848 27.2462 63.0947C27.8451 63.2046 28.4636 63.1113 29.0034 62.8296L28.9884 62.8355C29.5055 62.6516 29.9565 62.3187 30.2847 61.8789C30.6129 61.439 30.8035 60.9118 30.8325 60.3638V60.3578C30.976 58.9412 31.1912 57.6739 31.4871 56.4365L31.4482 56.6368C31.5236 56.4351 31.5621 56.2215 31.5618 56.0062L31.5558 55.8717V55.8776C31.5319 55.6605 31.6644 55.4552 31.9533 55.262V55.4054C32.2422 56.0809 32.5431 56.7554 32.8559 57.4288C33.1687 58.1023 33.4935 58.7768 33.8303 59.4522C34.712 60.7942 35.6474 61.9658 36.6756 63.0448L36.6666 63.0358C37.6889 64.1408 38.8171 65.1429 40.035 66.0276L40.1007 66.0724C40.7304 66.5546 41.2943 67.0806 41.7924 67.6505L41.8043 67.6624C42.2806 68.2203 42.8385 68.6726 43.4781 69.0193L43.5079 69.0343V68.9625H43.6514C43.5382 68.7086 43.3506 68.495 43.1134 68.3498L43.1075 68.3469C42.8889 68.2247 42.6783 68.0889 42.4768 67.9404L42.4918 67.9493C42.0594 67.517 41.6131 67.0348 41.1528 66.5028C40.6925 65.9708 40.2711 65.4647 39.8885 64.9845C38.8763 63.5857 37.911 62.1242 36.9924 60.5999C36.0738 59.0756 35.2061 57.5265 34.3892 55.9524C34.0026 55.1813 33.629 54.3862 33.2684 53.5673C32.9077 52.7484 32.558 51.9534 32.2193 51.1823C32.0661 50.8688 31.969 50.531 31.9324 50.184V50.1691C31.9237 50.005 31.873 49.846 31.7851 49.7073C31.6971 49.5686 31.5749 49.4548 31.4303 49.377L31.4243 49.374C31.0809 49.9615 30.6718 50.508 30.2049 51.0029L30.2079 50.9999C29.7291 51.5068 29.3427 52.0935 29.0661 52.7334L29.0512 52.7723C28.6049 53.8764 28.3142 55.0372 28.1874 56.2214L28.1815 56.2781C28.038 57.5553 27.8935 58.8684 27.7481 60.2174L27.6046 60.2891L27.5329 60.3608C27.1591 60.2848 26.807 60.1265 26.502 59.8975C26.197 59.6685 25.9468 59.3745 25.7695 59.0368L25.7635 59.0218C25.4009 58.3225 25.0761 57.635 24.7892 56.9596C24.0092 54.9103 23.5817 52.7437 23.5249 50.5516V50.5247C23.3684 48.1821 23.6585 45.8311 24.3797 43.5967L24.3439 43.7282C24.4873 43.1982 24.8002 42.3056 25.2823 41.0503C25.7645 39.795 25.8612 38.9273 25.5723 38.4471C25.4262 37.9734 25.1521 37.5493 24.7802 37.2216L24.7772 37.2187C24.4176 36.9118 24.0828 36.577 23.776 36.2174L23.767 36.2055C23.4303 35.7193 23.1055 35.2012 22.7927 34.6513C22.4799 34.1014 22.2029 33.5594 21.9618 33.0254C21.4021 31.7097 20.9289 30.3589 20.5451 28.9816L20.4794 28.7156C20.0562 27.177 19.5105 25.6748 18.8475 24.2234L18.9252 24.4147C18.6165 23.7048 18.2252 23.0337 17.7596 22.4152L17.7775 22.4391C17.2913 21.7896 16.857 21.1749 16.4744 20.595C15.9882 19.9694 15.506 19.3667 15.0278 18.7868C14.5292 18.1835 14.102 17.5246 13.7546 16.8232L13.7277 16.7634C13.574 16.4515 13.4547 16.1238 13.372 15.7861L13.3661 15.7532C13.3135 15.5836 13.2993 15.4044 13.3246 15.2286C13.35 15.0528 13.4142 14.8849 13.5125 14.737L13.5095 14.743C13.541 14.5812 13.6165 14.4313 13.7277 14.3096C13.848 14.2005 13.9958 14.1261 14.1551 14.0944H14.1611C14.3969 13.9415 14.668 13.8516 14.9484 13.8333C15.2289 13.815 15.5094 13.8689 15.7631 13.9898L15.7541 13.9868C16.4086 14.1721 16.9377 14.3574 17.4547 14.5697L17.3471 14.5308C18.2617 14.9173 19.1055 15.2909 19.8786 15.6516C20.7693 16.076 21.5284 16.5243 22.2457 17.0234L22.1919 16.9876C22.5785 17.2287 22.964 17.4937 23.3486 17.7826C23.7332 18.0715 24.1426 18.3614 24.577 18.6523H25.5902C26.3613 18.6523 27.1802 18.6892 28.047 18.7629C28.9227 18.8317 29.7326 18.996 30.5037 19.2531L30.432 19.2322C31.8696 19.6596 33.104 20.1647 34.2756 20.7714L34.1531 20.7146C35.3346 21.3163 36.4554 21.9549 37.5154 22.6304C39.2758 23.7273 40.7971 24.8511 42.2288 26.0795L42.1779 26.0376C43.6723 27.3168 45.0292 28.6289 46.3025 30.0157L46.3324 30.0516C47.5757 31.4085 48.7622 32.8819 49.8472 34.4271L49.9398 34.5676C50.9381 35.9783 51.9453 37.6102 52.8509 39.3018L52.9764 39.5559C53.2406 40.0758 53.4741 40.6107 53.6758 41.1579L53.7087 41.2565C53.9019 41.8104 54.1181 42.3783 54.3572 42.9601C54.8872 44.1656 55.4551 45.382 56.0608 46.6094C56.6666 47.8368 57.2344 49.0303 57.7645 50.19L59.3545 53.66C59.9134 54.8734 60.538 55.9195 61.2643 56.8849L61.2314 56.84C61.8382 57.4886 62.6481 57.9429 63.5567 58.1013L63.5806 58.1043C64.6805 58.3793 65.607 58.6901 66.5037 59.0577L66.3632 59.0069C66.7906 59.2012 67.3405 59.4074 67.9054 59.5897L68.0249 59.6226C68.6586 59.8169 69.2085 60.0739 69.7136 60.3967L69.6867 60.3817C70.664 60.9287 71.4919 61.4667 72.281 62.0525L72.2182 62.0076C73.0371 62.6094 73.8561 63.1773 74.675 63.7113C75.0615 64.0002 75.7101 64.4216 76.6207 64.9755C77.5313 65.5294 78.0135 66.0475 78.0673 66.5297C76.2361 66.4634 74.4025 66.5504 72.5858 66.7897L72.7532 66.7718C71.236 66.9701 69.7505 67.3619 68.3328 67.9374L68.4523 67.8955C68.0765 68.0543 67.6888 68.1832 67.2927 68.2811L67.2359 68.2931C67.0296 68.3216 66.839 68.4189 66.6948 68.5691C66.5505 68.7193 66.4611 68.9137 66.4409 69.121C66.6262 69.3501 66.7687 69.6121 66.8683 69.901L66.8743 69.919C66.9739 70.2198 67.0984 70.4908 67.2479 70.7319L67.2389 70.714C67.5946 71.3446 67.9771 71.8886 68.4075 72.3907L68.3956 72.3757C68.818 72.8938 69.2922 73.3461 69.8182 73.7326L69.8391 73.7476C70.3253 74.1341 70.8314 74.5316 71.3574 74.9401C71.8386 75.3167 72.3826 75.6873 72.9475 76.0221L73.0192 76.0609C73.868 76.581 74.8543 77.0771 75.8825 77.4925L76.0199 77.5404C77.1377 77.9887 78.0972 78.5087 78.9878 79.1274L78.94 79.0945C79.5198 79.4313 80.0976 79.8049 80.6735 80.2153C81.2493 80.6258 81.8032 81.0233 82.3353 81.4078C82.5544 81.623 82.7447 81.8611 82.9061 82.1222L82.9151 82.1371C83.1901 82.4557 83.5734 82.6612 83.991 82.7139H84V82.5705C83.7331 82.373 83.5396 82.0922 83.4501 81.7725L83.4471 81.7605C83.3765 81.4735 83.2636 81.1985 83.1123 80.9446L83.1183 80.9565L83.1303 80.9685ZM27.6106 23.5689C27.2241 23.5689 26.8624 23.5808 26.5257 23.6047C26.1972 23.6264 25.8728 23.6896 25.5603 23.793L25.5872 23.7841V23.8558H25.7307C25.9239 24.1447 26.167 24.4695 26.4599 24.8302C26.7528 25.1908 27.0178 25.5405 27.2549 25.8792L28.4116 28.2643L28.5551 28.1925C28.8911 27.9497 29.1521 27.6172 29.3082 27.2331L29.3142 27.2182C29.4696 26.8027 29.5593 26.3186 29.5593 25.8165L29.5563 25.6551V25.664C29.4206 25.5324 29.311 25.3762 29.2335 25.2037L29.2305 25.1948L28.9884 24.6508C28.836 24.401 28.6136 24.2015 28.3488 24.077L28.3399 24.074C28.073 23.9428 27.8272 23.7726 27.6106 23.5689Z" fill="black"/>
</svg>
