<svg width="94" height="94" viewBox="0 0 94 94" fill="none" xmlns="http://www.w3.org/2000/svg">
<g clip-path="url(#clip0_176_192)">
<g filter="url(#filter0_d_176_192)">
<path d="M73.9084 26.2197C62.4318 11.358 41.0788 8.61444 26.2165 20.0933C11.3564 31.5721 8.61558 52.9251 20.0944 67.7852C31.5754 82.6448 52.9301 85.3839 67.788 73.9029C82.6421 62.4241 85.3834 41.0776 73.9084 26.2197Z" fill="#F37036"/>
<path d="M61.8347 25.1778C60.6642 25.2714 59.5544 25.7371 58.6676 26.5068C57.6299 27.4081 56.9676 28.6655 56.8114 30.0311C56.6552 31.3966 57.0165 32.7711 57.8239 33.8834C58.6307 34.9959 59.825 35.7657 61.1713 36.0411C62.5177 36.3164 63.9183 36.0773 65.097 35.3708H65.0981L65.1836 35.4563C65.5718 35.2338 65.9331 34.9673 66.2601 34.6619C67.2691 33.5947 67.8242 32.1773 67.8082 30.7087C67.7923 29.2401 67.2066 27.8351 66.1746 26.79V26.7889L61.3296 31.6039L61.2441 31.519L66.0892 26.7018C65.5283 26.1612 64.859 25.7458 64.1255 25.4832C63.3921 25.2207 62.6112 25.1169 61.8347 25.1789V25.1778ZM55.4556 33.0595C53.1328 33.0557 49.3401 35.6886 40.0795 44.9492L40.1255 44.9963C40.0751 44.9788 40.0242 44.9771 40.0242 44.9771L36.5377 48.4329C36.4482 48.5181 36.3889 48.6301 36.369 48.7521C36.349 48.874 36.3694 48.9991 36.4271 49.1084C36.4847 49.2177 36.5765 49.3051 36.6885 49.3574C36.8004 49.4097 36.9264 49.424 37.0472 49.3982L43.0263 48.1228C43.0529 48.0982 43.0707 48.0654 43.0767 48.0297L43.2093 48.1666L41.1713 50.1882H41.0727L28.9732 62.383L32.8552 66.1215C32.9636 66.2196 33.1006 66.2805 33.2461 66.2952C33.3916 66.3099 33.5379 66.2776 33.6638 66.2031C33.7907 66.1293 33.8923 66.0188 33.9553 65.8863C34.0184 65.7537 34.0399 65.6052 34.0171 65.4602L33.4501 62.995C33.4145 62.9455 33.3953 62.8861 33.3953 62.8251C33.3953 62.7642 33.4145 62.7047 33.4501 62.6553C38.7499 60.1287 43.6785 56.8876 48.0982 53.0227L45.6137 50.5371L45.6609 50.5295L44.1872 49.0563L44.2814 48.961L44.3811 49.0629L44.3296 49.1128L48.2395 53.1081V53.1065C55.7339 46.0098 61.0534 40.3052 59.6702 36.4659C59.6071 36.0068 59.3939 35.5815 59.0637 35.2563V35.2585C58.9796 35.1964 58.8912 35.1404 58.7991 35.0909C58.7536 35.0427 58.7136 34.9934 58.6654 34.9462L58.6293 34.9824C58.5275 34.9209 58.4208 34.8677 58.3104 34.8235L58.4687 34.6636C57.4848 33.787 56.6718 33.0617 55.4556 33.0584V33.0595ZM28.8888 62.4559L26.056 65.2893V65.2915C25.9543 65.3544 25.8753 65.4481 25.8303 65.5588C25.7853 65.6696 25.7767 65.7918 25.8056 65.9078C25.8336 66.0238 25.8974 66.128 25.9879 66.2056C26.0785 66.2832 26.1913 66.3302 26.3102 66.34L33.2524 66.8194L28.8888 62.4559Z" fill="white"/>
<path d="M62.3122 24.7099C60.7222 24.7081 59.1954 25.3319 58.0616 26.4466C57.255 27.2722 56.7027 28.3124 56.4706 29.443C56.2384 30.5737 56.3362 31.7473 56.7522 32.824C54.1549 31.7118 50.6411 33.6512 39.7112 44.5789C39.7036 44.5957 39.6968 44.6129 39.6909 44.6304C39.6685 44.6402 39.6467 44.6516 39.6257 44.6644L36.1694 48.1508C36.0038 48.3134 35.895 48.5251 35.8591 48.7544C35.8233 48.9838 35.8624 49.2186 35.9706 49.424C36.0671 49.5865 36.2038 49.7215 36.3676 49.8159C36.5314 49.9104 36.7167 49.961 36.9057 49.963L37.0772 49.8518L41.6922 48.8674L39.4844 51.0954C39.4719 51.1248 39.462 51.1552 39.4548 51.1864L28.635 62.033C28.5919 62.0693 28.5562 62.1135 28.5299 62.1634L25.7436 64.9519C25.6049 65.0985 25.5101 65.2812 25.47 65.479C25.4299 65.6769 25.4461 65.882 25.5167 66.0711C25.5897 66.2588 25.7129 66.4228 25.873 66.5451C26.033 66.6673 26.2237 66.7431 26.424 66.7641L33.3366 67.2462C33.4547 67.2051 33.5552 67.1249 33.6214 67.0188C33.6806 66.9361 33.7123 66.837 33.7123 66.7353C33.7123 66.6337 33.6806 66.5345 33.6214 66.4518L33.6072 66.4381C33.7567 66.3604 33.8883 66.2521 33.9934 66.1204C34.1043 65.9763 34.1818 65.8093 34.2203 65.6316C34.2588 65.4538 34.2572 65.2697 34.2159 65.0927L33.6768 62.7989C38.8487 60.3273 43.6945 57.2247 48.1035 53.5618C48.1461 53.5866 48.1918 53.6056 48.2394 53.6182C48.3785 53.6078 48.5089 53.5481 48.6075 53.4495C56.0307 46.4207 60.3942 41.6041 60.3942 37.7802C60.4107 37.2498 60.3307 36.7208 60.1581 36.2189C60.8272 36.4958 61.5408 36.6498 62.2646 36.6736L62.2563 36.6758C63.2533 36.6457 64.2279 36.3731 65.0958 35.8814L65.098 35.882C65.2104 35.9154 65.3313 35.9046 65.436 35.8518C65.8548 35.6052 66.2366 35.3005 66.57 34.9468C67.135 34.3926 67.5839 33.7312 67.8904 33.0015C68.1968 32.2717 68.3547 31.4882 68.3549 30.6967C68.3548 29.9052 68.197 29.1217 67.8906 28.392C67.5842 27.6622 67.1355 27.0009 66.5706 26.4466C66.5503 26.4284 66.5287 26.4117 66.5059 26.3967C65.378 25.3141 63.875 24.7099 62.3117 24.7105L62.3122 24.7099ZM62.2646 25.6807C63.3717 25.6873 64.4463 26.0555 65.3248 26.7293L60.9048 31.1761C60.8899 31.1931 60.8759 31.211 60.8632 31.2297C60.7835 31.3104 60.7368 31.4178 60.7323 31.5311C60.7322 31.5995 60.7476 31.6671 60.7773 31.7287C60.807 31.7904 60.8502 31.8445 60.9037 31.8872H60.9048L64.2466 35.229C63.332 35.6281 62.318 35.7417 61.3377 35.5547C60.3574 35.3677 59.4564 34.8888 58.7529 34.1809C57.3362 32.7566 56.9253 30.6178 57.683 28.7623C58.4407 26.9051 60.2469 25.6917 62.2646 25.6807ZM66.1652 27.5609C66.8879 28.4353 67.2819 29.5349 67.2789 30.6693C67.2769 31.9982 66.7472 33.272 65.8063 34.2105C65.6177 34.388 65.4167 34.5518 65.2048 34.7008L62.5078 32.0455L61.9802 31.5179L62.1254 31.3727L66.1646 27.5598L66.1652 27.5609ZM65.9647 29.858C65.8655 29.8268 65.7584 29.8328 65.6633 29.8749C65.5693 29.9236 65.4984 30.0075 65.4661 30.1083C65.4503 30.1587 65.4445 30.2116 65.4492 30.2642C65.4539 30.3167 65.469 30.3679 65.4935 30.4146C65.5906 30.6193 65.6289 30.847 65.604 31.0722C65.5792 31.2974 65.4922 31.5113 65.3527 31.6899C65.317 31.7244 65.289 31.766 65.2706 31.8121C65.2522 31.8582 65.2438 31.9077 65.2459 31.9573C65.2481 32.0581 65.2842 32.1545 65.3527 32.2268C65.4257 32.2547 65.5065 32.2547 65.5795 32.2268C65.6454 32.2432 65.7145 32.2414 65.7794 32.2214C65.8443 32.2014 65.9025 32.1641 65.9477 32.1134C66.181 31.8276 66.3287 31.4817 66.3737 31.1156C66.4188 30.7495 66.3594 30.378 66.2024 30.0442V30.0464C66.1489 29.9566 66.0643 29.8896 65.9647 29.858ZM55.404 33.5411C56.065 33.5636 56.7011 33.7992 57.2173 34.2127C56.6615 34.2929 56.1463 34.5503 55.7486 34.9468L43.2541 47.3855L40.8019 44.9333C47.2818 38.4842 51.2437 35.1156 53.7068 34.0117C54.2143 33.6921 54.8044 33.5288 55.404 33.5411ZM57.5762 35.1627C57.9957 35.163 58.398 35.3292 58.6954 35.625C58.8532 35.7737 58.9777 35.9541 59.0608 36.1544C59.1438 36.3547 59.1834 36.5703 59.177 36.787C59.1698 37.003 59.1181 37.2151 59.0253 37.4102C58.9324 37.6053 58.8004 37.7792 58.6373 37.921L45.3523 49.4837L43.9186 48.05L56.4569 35.625C56.7544 35.3294 57.1568 35.1628 57.5762 35.1627ZM59.2164 38.8321C58.2906 42.5037 53.3836 47.4786 48.2668 52.3127L46.1976 50.2457L59.2164 38.8321ZM40.0794 45.6576L40.2295 45.8055L42.154 47.7301L36.8783 48.8586L40.0794 45.6576ZM43.253 48.857L43.2552 48.8591L43.895 49.5138L43.9049 49.5598L43.9476 49.5664L44.0835 49.7055L44.5327 50.1657L41.5826 50.5273L43.253 48.857ZM45.3715 51.0899L47.3316 53.049C42.9973 56.6532 38.241 59.7172 33.1673 62.1738C33.0026 62.2522 32.8701 62.3853 32.7925 62.5504C32.7149 62.7156 32.6969 62.9025 32.7416 63.0793L33.3086 65.5446C33.3295 65.5736 33.3408 65.6083 33.3408 65.644C33.3408 65.6797 33.3295 65.7145 33.3086 65.7435C33.2775 65.7714 33.2371 65.7869 33.1952 65.7869C33.1534 65.7869 33.113 65.7714 33.0818 65.7435L29.7389 62.3732L40.0426 51.9183L45.3715 51.0899ZM28.9731 63.1095L29.4491 63.5554L31.91 66.0163L26.4229 65.6613L28.9731 63.1095Z" fill="#F37036"/>
</g>
</g>
<defs>
<filter id="filter0_d_176_192" x="-6.2" y="-6.19999" width="106.4" height="106.4" filterUnits="userSpaceOnUse" color-interpolation-filters="sRGB">
<feFlood flood-opacity="0" result="BackgroundImageFix"/>
<feColorMatrix in="SourceAlpha" type="matrix" values="0 0 0 0 0 0 0 0 0 0 0 0 0 0 0 0 0 0 127 0" result="hardAlpha"/>
<feOffset/>
<feGaussianBlur stdDeviation="9.6"/>
<feComposite in2="hardAlpha" operator="out"/>
<feColorMatrix type="matrix" values="0 0 0 0 0.952941 0 0 0 0 0.439216 0 0 0 0 0.211765 0 0 0 0.4 0"/>
<feBlend mode="normal" in2="BackgroundImageFix" result="effect1_dropShadow_176_192"/>
<feBlend mode="normal" in="SourceGraphic" in2="effect1_dropShadow_176_192" result="shape"/>
</filter>
<clipPath id="clip0_176_192">
<rect width="94" height="94" rx="25" fill="white"/>
</clipPath>
</defs>
</svg>
