<svg width="94" height="94" viewBox="0 0 94 94" fill="none" xmlns="http://www.w3.org/2000/svg">
<rect width="94" height="94" rx="25" fill="#F37036"/>
<g clip-path="url(#clip0_19_475)">
<path d="M81.1355 21.5247C66.7897 2.9475 40.0984 -0.481964 21.5206 13.8666C2.94551 28.2151 -0.480529 54.9064 13.868 73.4815C28.2193 92.0559 54.9126 95.4799 73.485 81.1286C92.0526 66.7801 95.4793 40.097 81.1355 21.5247Z" fill="#F37036"/>
<path d="M66.0433 20.2222C64.5802 20.3392 63.1929 20.9213 62.0844 21.8835C60.7873 23.01 59.9594 24.5819 59.7642 26.2888C59.569 27.9958 60.0206 29.7139 61.0299 31.1043C62.0383 32.4949 63.5312 33.4571 65.2141 33.8013C66.897 34.1455 68.6478 33.8465 70.1212 32.9635H70.1226L70.2294 33.0703C70.7147 32.7923 71.1663 32.4591 71.575 32.0774C72.8363 30.7433 73.5302 28.9716 73.5102 27.1358C73.4903 25.3001 72.7582 23.5438 71.4682 22.2375V22.2361L65.4119 28.2548L65.305 28.1487L71.3614 22.1273C70.6603 21.4514 69.8237 20.9322 68.9069 20.604C67.99 20.2758 67.014 20.1461 66.0433 20.2235V20.2222ZM58.0695 30.0743C55.166 30.0695 50.4251 33.3607 38.8493 44.9365L38.9068 44.9954C38.8438 44.9734 38.7801 44.9714 38.7801 44.9714L34.4221 49.2911C34.3102 49.3975 34.2361 49.5376 34.2111 49.69C34.1862 49.8425 34.2117 49.9989 34.2838 50.1355C34.3559 50.2721 34.4706 50.3814 34.6105 50.4468C34.7505 50.5121 34.9079 50.53 35.059 50.4977L42.5328 48.9035C42.5661 48.8727 42.5883 48.8318 42.5958 48.7871L42.7616 48.9583L40.2141 51.4852H40.0908L24.9664 66.7287L29.8189 71.4018C29.9544 71.5245 30.1256 71.6006 30.3075 71.619C30.4894 71.6373 30.6724 71.597 30.8297 71.5038C30.9883 71.4115 31.1153 71.2735 31.1941 71.1078C31.2729 70.9421 31.2998 70.7565 31.2714 70.5752L30.5626 67.4937C30.518 67.4318 30.494 67.3576 30.494 67.2814C30.494 67.2052 30.518 67.1309 30.5626 67.0691C37.1873 63.9108 43.348 59.8595 48.8727 55.0283L45.7671 51.9214L45.826 51.9118L43.9839 50.0704L44.1017 49.9512L44.2263 50.0786L44.162 50.1409L49.0494 55.1351V55.1331C58.4174 46.2622 65.0667 39.1314 63.3376 34.3324C63.2588 33.7585 62.9923 33.2268 62.5796 32.8204V32.8231C62.4744 32.7454 62.3639 32.6754 62.2488 32.6136C62.192 32.5533 62.142 32.4917 62.0817 32.4328L62.0365 32.478C61.9093 32.4011 61.776 32.3346 61.638 32.2794L61.8359 32.0794C60.606 30.9837 59.5897 30.0771 58.0695 30.073V30.0743ZM24.861 66.8198L21.3199 70.3616V70.3643C21.1928 70.443 21.0941 70.56 21.0378 70.6985C20.9816 70.837 20.9708 70.9897 21.0069 71.1347C21.0419 71.2797 21.1216 71.4099 21.2349 71.5069C21.3481 71.6039 21.489 71.6628 21.6376 71.675L30.3154 72.2742L24.861 66.8198Z" fill="white"/>
<path d="M66.6403 19.6374C64.6529 19.6351 62.7443 20.4149 61.327 21.8082C60.3188 22.8403 59.6284 24.1404 59.3383 25.5538C59.0481 26.9671 59.1703 28.4341 59.6903 29.7799C56.4437 28.3898 52.0514 30.814 38.3891 44.4736C38.3795 44.4946 38.3711 44.5161 38.3637 44.538C38.3356 44.5503 38.3084 44.5645 38.2822 44.5804L33.9619 48.9385C33.7548 49.1417 33.6188 49.4063 33.574 49.693C33.5292 49.9797 33.578 50.2732 33.7133 50.5299C33.8339 50.7331 34.0048 50.9019 34.2095 51.0199C34.4143 51.1379 34.6459 51.2012 34.8822 51.2038L35.0966 51.0648L40.8653 49.8342L38.1056 52.6192C38.0899 52.656 38.0776 52.694 38.0686 52.7329L24.5439 66.2912C24.49 66.3366 24.4453 66.3919 24.4124 66.4542L20.9295 69.9398C20.7561 70.1231 20.6377 70.3514 20.5875 70.5987C20.5374 70.8461 20.5577 71.1025 20.646 71.3388C20.7371 71.5735 20.8912 71.7785 21.0913 71.9313C21.2913 72.0842 21.5296 72.1789 21.78 72.2051L30.4208 72.8077C30.5684 72.7564 30.6941 72.6561 30.7769 72.5235C30.8508 72.4201 30.8905 72.2962 30.8905 72.1691C30.8905 72.0421 30.8508 71.9182 30.7769 71.8148L30.7591 71.7976C30.946 71.7005 31.1105 71.5652 31.2418 71.4005C31.3805 71.2203 31.4774 71.0116 31.5254 70.7894C31.5735 70.5672 31.5716 70.3371 31.5199 70.1158L30.846 67.2485C37.3109 64.1591 43.3681 60.2808 48.8795 55.7022C48.9326 55.7332 48.9898 55.757 49.0493 55.7727C49.2232 55.7597 49.3862 55.6851 49.5095 55.5618C58.7885 46.7759 64.2429 40.7551 64.2429 35.9753C64.2635 35.3122 64.1635 34.6509 63.9477 34.0236C64.7841 34.3697 65.6761 34.5623 66.5808 34.592L66.5705 34.5947C67.8167 34.5571 69.035 34.2163 70.1198 33.6018L70.1225 33.6024C70.263 33.6442 70.4142 33.6307 70.545 33.5648C71.0686 33.2565 71.5458 32.8756 71.9626 32.4335C72.6689 31.7407 73.2299 30.914 73.613 30.0018C73.9961 29.0896 74.1935 28.1102 74.1936 27.1208C74.1936 26.1315 73.9963 25.1522 73.6133 24.24C73.2304 23.3278 72.6694 22.5011 71.9633 21.8082C71.9379 21.7854 71.9109 21.7646 71.8825 21.7459C70.4726 20.3927 68.5939 19.6373 66.6397 19.6381L66.6403 19.6374ZM66.5808 20.8509C67.9646 20.8591 69.3079 21.3194 70.406 22.1616L64.8811 27.72C64.8624 27.7413 64.845 27.7637 64.8291 27.7872C64.7295 27.8879 64.6711 28.0222 64.6654 28.1638C64.6653 28.2493 64.6846 28.3338 64.7217 28.4109C64.7588 28.4879 64.8128 28.5556 64.8797 28.6089H64.8811L69.0584 32.7862C67.915 33.2852 66.6476 33.4271 65.4222 33.1933C64.1968 32.9595 63.0706 32.361 62.1912 31.4762C60.4203 29.6957 59.9067 27.0222 60.8538 24.7028C61.8009 22.3814 64.0587 20.8646 66.5808 20.8509ZM71.4565 23.2011C72.3599 24.2941 72.8524 25.6686 72.8487 27.0866C72.8461 28.7478 72.1841 30.34 71.008 31.5131C70.7721 31.7349 70.5209 31.9398 70.2561 32.126L66.8848 28.8068L66.2254 28.1474L66.4068 27.9659L71.4558 23.1997L71.4565 23.2011ZM71.2059 26.0724C71.0819 26.0335 70.948 26.041 70.8292 26.0937C70.7117 26.1544 70.623 26.2593 70.5827 26.3854C70.5629 26.4483 70.5557 26.5145 70.5616 26.5802C70.5675 26.6459 70.5863 26.7098 70.617 26.7682C70.7383 27.0241 70.7862 27.3087 70.7551 27.5902C70.724 27.8718 70.6153 28.1391 70.441 28.3624C70.3963 28.4055 70.3613 28.4575 70.3383 28.5151C70.3153 28.5727 70.3048 28.6346 70.3074 28.6966C70.3102 28.8226 70.3554 28.9431 70.441 29.0335C70.5322 29.0684 70.6332 29.0684 70.7245 29.0335C70.8068 29.054 70.8932 29.0517 70.9743 29.0267C71.0554 29.0017 71.1281 28.9551 71.1846 28.8917C71.4762 28.5345 71.6609 28.1021 71.7172 27.6445C71.7736 27.1868 71.6993 26.7225 71.5031 26.3053V26.308C71.4362 26.1958 71.3304 26.112 71.2059 26.0724ZM58.0051 30.6763C58.8314 30.7045 59.6264 30.999 60.2717 31.5159C59.5769 31.6161 58.933 31.9379 58.4358 32.4335L42.8176 47.9818L39.7525 44.9166C47.8523 36.8552 52.8047 32.6444 55.8836 31.2646C56.518 30.8651 57.2555 30.661 58.0051 30.6763ZM60.7203 32.7033C61.2446 32.7037 61.7476 32.9115 62.1193 33.2813C62.3166 33.4671 62.4722 33.6926 62.576 33.943C62.6798 34.1933 62.7293 34.4628 62.7212 34.7337C62.7123 35.0037 62.6477 35.2689 62.5317 35.5128C62.4156 35.7567 62.2505 35.974 62.0467 36.1513L45.4404 50.6046L43.6483 48.8125L59.3212 33.2813C59.6931 32.9117 60.196 32.7035 60.7203 32.7033ZM62.7706 37.2901C61.6133 41.8796 55.4795 48.0982 49.0835 54.1409L46.4971 51.5571L62.7706 37.2901ZM38.8493 45.822L39.0369 46.0068L41.4426 48.4125L34.848 49.8232L38.8493 45.822ZM42.8163 49.8212L42.819 49.8239L43.6189 50.6422L43.6312 50.6998L43.6846 50.708L43.8544 50.8819L44.416 51.4571L40.7283 51.9091L42.8163 49.8212ZM45.4644 52.6124L47.9146 55.0612C42.4966 59.5664 36.5512 63.3965 30.2092 66.4672C30.0033 66.5652 29.8377 66.7316 29.7407 66.938C29.6437 67.1444 29.6212 67.3781 29.6771 67.5992L30.3859 70.6807C30.412 70.7169 30.426 70.7604 30.426 70.805C30.426 70.8497 30.412 70.8931 30.3859 70.9293C30.3469 70.9643 30.2964 70.9836 30.2441 70.9836C30.1918 70.9836 30.1413 70.9643 30.1023 70.9293L25.9237 66.7165L38.8034 53.6478L45.4644 52.6124ZM24.9664 67.6368L25.5615 68.1942L28.6376 71.2704L21.7786 70.8266L24.9664 67.6368Z" fill="#F37036"/>
</g>
<defs>
<clipPath id="clip0_19_475">
<rect width="85" height="84.9997" fill="white" transform="translate(5 5)"/>
</clipPath>
</defs>
</svg>
