<svg width="94" height="94" viewBox="0 0 94 94" fill="none" xmlns="http://www.w3.org/2000/svg">
<g clip-path="url(#clip0_187_568)">
<g filter="url(#filter0_d_187_568)">
<path d="M76.8257 57.8056C68.7186 59.4768 68.1597 56.732 68.1597 56.732C76.7206 44.0318 80.2954 27.9062 77.2075 23.9605C68.785 13.1972 54.2033 18.2883 53.9598 18.4211L53.8768 18.4322C52.2775 18.1002 50.4845 17.901 48.4702 17.8678C44.8013 17.8069 42.0178 18.8307 39.9094 20.4299C39.9094 20.4299 13.8947 9.71086 15.1066 33.9104C15.3667 39.0569 22.4832 72.8577 30.9777 62.6477C34.0822 58.9124 37.0816 55.7581 37.0816 55.7581C38.5702 56.7486 40.3576 57.2522 42.2225 57.0696L42.3664 56.9478C42.3221 57.4127 42.3442 57.8665 42.4217 58.4032C40.2358 60.8492 40.8778 61.2753 36.5005 62.1773C32.0734 63.0904 34.6743 64.7118 36.3732 65.1379C38.4318 65.6526 43.1909 66.3831 46.4116 61.8785L46.2844 62.3931C47.1421 63.0793 47.7453 66.859 47.6457 70.2844C47.5461 73.7099 47.4797 76.0618 48.1548 77.899C48.8299 79.7363 49.5051 83.87 55.2547 82.636C60.0581 81.6067 62.5484 78.9394 62.897 74.4902C63.1405 71.3248 63.6994 71.7952 63.7326 68.9674L64.1808 67.6282C64.6955 63.3394 64.2638 61.956 67.2245 62.5979L67.9439 62.6588C70.1242 62.7584 72.9741 62.3101 74.6454 61.5299C78.2368 59.8642 80.3784 57.0696 76.8257 57.8056Z" fill="#336791"/>
<path d="M45.7586 60.2349C45.7752 59.6815 46.2345 59.2444 46.7879 59.261C47.3413 59.2776 47.7785 59.7369 47.7619 60.2903C47.6457 64.4019 47.6678 68.5246 47.8172 71.8228C47.9556 74.7945 48.1935 77.0302 48.5255 77.8602C48.8797 78.7401 49.4276 80.0406 50.479 80.9205C51.5028 81.7837 53.0799 82.3095 55.5923 81.7727C57.7892 81.3023 59.2668 80.6327 60.2518 79.6089C61.2257 78.5962 61.7791 77.163 62.1222 75.1597C62.3768 73.6988 62.7254 71.1477 63.0408 68.6076C63.4393 65.4312 63.8045 62.2216 63.882 61.1867C63.9207 60.6334 64.4022 60.2183 64.9556 60.2626C65.5089 60.3013 65.924 60.7828 65.8797 61.3362C65.8022 62.3433 65.437 65.5917 65.022 68.8622C64.6899 71.4852 64.3358 74.0861 64.0923 75.4973C63.6772 77.8934 62.9744 79.6587 61.685 80.9979C60.4012 82.3316 58.6027 83.1727 55.9962 83.7317C52.7589 84.4234 50.6229 83.6653 49.1785 82.4478C47.7563 81.2525 47.0812 79.6698 46.6551 78.6018C46.2345 77.5559 45.9523 75.0878 45.8029 71.9058C45.659 68.58 45.6424 64.4019 45.7586 60.2349Z" fill="#E9F5FF"/>
<path d="M40.2358 19.3232C40.7505 19.5279 40.9995 20.109 40.7948 20.6236C40.59 21.1383 40.009 21.3873 39.4943 21.1825C39.4279 21.1549 14.9129 11.1386 16.0474 33.761C16.1857 36.5556 18.3993 47.9885 21.7638 55.9628C22.8263 58.4752 23.994 60.6223 25.2336 61.9947C26.2684 63.1458 27.3254 63.6991 28.3436 63.3339C28.908 63.1292 29.5112 62.6698 30.1476 61.9062C33.2632 58.1597 36.0965 55.1991 36.1076 55.1936C36.4894 54.7952 37.1203 54.7786 37.5187 55.1604C37.9172 55.5422 37.9338 56.1731 37.5519 56.5715C37.5464 56.5771 34.7795 59.4602 31.686 63.1845C30.8062 64.247 29.9097 64.9055 29.0077 65.2265C27.0929 65.9071 25.3332 65.1103 23.7394 63.3394C22.3449 61.7955 21.061 59.4547 19.9211 56.7376C16.4624 48.553 14.188 36.7548 14.0441 33.8551C12.7547 8.08944 40.1584 19.29 40.2358 19.3232Z" fill="#E9F5FF"/>
<path d="M54.4522 19.1682L52.9636 17.5413C53.0854 17.497 53.2071 17.4583 53.3289 17.4251C53.6554 17.3199 54.0095 17.2148 54.3914 17.1041C54.9503 16.9381 55.7693 16.7223 56.7709 16.5286C61.768 15.5601 71.5186 15.0344 77.9434 23.2467C79.7585 25.5654 79.6091 31.304 77.7332 38.0995C76.073 44.1148 73.0792 51.0488 68.9399 57.1913C68.63 57.6506 68.0046 57.7724 67.5453 57.4625C67.086 57.1526 66.9643 56.5273 67.2742 56.068C71.2917 50.108 74.1915 43.3844 75.8018 37.5628C77.5173 31.3538 77.7885 26.2903 76.3663 24.4752C70.6 17.1096 61.7071 17.6077 57.1417 18.4986C56.2065 18.6812 55.4594 18.8749 54.9503 19.0243L54.4522 19.1682Z" fill="#E9F5FF"/>
<path d="M69.0562 56.3225C69.0672 56.3502 69.0728 56.3778 69.0783 56.4055C69.0783 56.411 69.4214 58.1985 76.5656 56.7265C77.5783 56.5162 78.2977 56.5604 78.7625 56.7873C79.3657 57.0751 79.6258 57.5565 79.5871 58.1763C79.565 58.5526 79.3879 58.9566 79.0946 59.3606C78.4195 60.2847 76.8755 61.48 74.9995 62.3489C73.5939 63.0019 71.4523 63.439 69.4878 63.5497C68.3312 63.6161 67.2245 63.5718 66.3446 63.3948C65.2378 63.1734 64.3967 62.7141 64.048 61.967C63.954 61.7678 63.8986 61.552 63.8875 61.3196C63.6662 57.4348 65.5588 56.7541 66.8814 56.3778C66.743 56.1786 66.5549 55.9407 66.3446 55.6806C65.675 54.8449 64.8172 53.7714 64.1366 52.1278C64.0314 51.8788 63.7271 51.3254 63.3176 50.5949C61.5855 47.4905 58.1766 41.37 58.8462 37.192C59.3221 34.2092 61.5965 32.2281 67.2798 32.8202L67.2245 32.6542C66.9533 31.885 66.5217 30.8778 65.8963 29.7489C63.4172 25.2333 58.0106 18.9358 48.4094 18.7808C33.7612 18.5429 34.2427 37.0149 34.2427 37.0647C34.2538 37.6181 33.811 38.0718 33.2577 38.0829C32.7043 38.094 32.2505 37.6513 32.2394 37.0979C32.2394 37.037 31.6971 16.5064 48.437 16.7776C59.0067 16.9491 64.939 23.8443 67.6506 28.7805C68.3257 30.009 68.8071 31.1268 69.1115 31.9957C69.4546 32.9696 69.5819 33.7333 69.5265 34.0709C69.4491 34.5689 69.1724 34.8788 68.6965 34.9729L68.3368 34.9784C63.1239 34.1428 61.1538 35.4211 60.8218 37.5018C60.2629 41.0048 63.4504 46.7157 65.0663 49.621C65.5034 50.4068 65.8355 51.0045 65.9849 51.3697C66.5604 52.7587 67.313 53.6994 67.8996 54.441C68.4474 55.1106 68.8791 55.6529 69.0562 56.3225ZM76.9696 58.6854C71.6737 59.7811 69.2056 58.9787 68.0711 58.1155C67.9162 58.1653 67.7502 58.2095 67.5731 58.2593C66.8648 58.4586 65.7635 58.7684 65.8797 61.148C65.9627 61.2365 66.2726 61.3306 66.7264 61.4247C67.4513 61.5686 68.381 61.6018 69.3716 61.5464C71.1037 61.4468 72.9686 61.0761 74.1584 60.5227C75.3814 59.9527 76.4051 59.2665 77.036 58.6688L76.9696 58.6854Z" fill="#E9F5FF"/>
<path d="M43.1079 58.9787C42.6984 59.438 42.3608 59.8641 42.0731 60.2293C40.8446 61.7899 40.4627 62.2768 36.6499 63.0626C35.9637 63.2065 35.4989 63.3449 35.2111 63.4832C35.5653 63.7378 36.0965 63.9481 36.5614 64.0643C37.5021 64.3022 39.0627 64.5845 40.7339 64.3022C42.3608 64.0255 44.1151 63.1899 45.5373 61.1977C45.5815 61.1313 45.6203 61.0594 45.6535 60.9875C45.7974 60.6388 45.7642 60.2016 45.6203 59.7866C45.4653 59.3439 45.1831 58.9565 44.8566 58.7186C44.7791 58.6632 44.7017 58.619 44.6187 58.5858L44.5688 58.5636C44.3641 58.4806 44.1372 58.3921 43.9435 58.4087C43.7332 58.4308 43.4676 58.5747 43.1079 58.9787ZM40.4959 58.9842C40.7671 58.6411 41.0825 58.2427 41.5584 57.7059C41.5972 57.6561 41.6414 57.6063 41.6857 57.562C42.4217 56.7651 43.1245 56.4663 43.772 56.411C44.4139 56.3556 44.9119 56.5382 45.3325 56.7153C45.3491 56.7209 45.3657 56.7264 45.3879 56.7375C45.6037 56.826 45.814 56.9477 46.0187 57.0916C46.6772 57.562 47.2196 58.3091 47.5129 59.1225C47.8117 59.9692 47.8615 60.9155 47.5073 61.7567C47.4188 61.9669 47.3081 62.1662 47.1698 62.3598C45.3768 64.8722 43.1411 65.9236 41.0715 66.2778C39.0405 66.6264 37.1922 66.2889 36.0744 66.0122C35.2609 65.8074 34.2537 65.3537 33.6616 64.8003C33.313 64.4738 33.075 64.0864 33.0086 63.6548C32.9312 63.1401 33.0861 62.6421 33.5565 62.1994C34.0103 61.7733 34.8514 61.3859 36.2404 61.0981C39.3338 60.4617 39.6105 60.1131 40.4959 58.9842Z" fill="#E9F5FF"/>
<path d="M43.2131 58.1099C43.2961 58.6578 42.9198 59.1724 42.3719 59.2499C41.8241 59.3274 41.3094 58.9566 41.2319 58.4087C41.2098 58.2759 41.1987 58.1431 41.1877 58.0048C40.8556 57.9937 40.5291 57.9716 40.2082 57.9218C38.061 57.6229 36.1187 56.5383 34.6577 54.9335C33.2134 53.3508 32.2394 51.259 32.0125 48.9237C31.9295 48.0936 31.9461 47.2304 32.0679 46.3615C32.5604 42.8531 32.3722 39.7154 32.2782 38.0884C32.2505 37.6457 32.2339 37.3137 32.2339 37.0591C32.2394 36.4006 33.8941 34.9507 36.0744 34.0543C37.0594 33.6503 38.1607 33.3127 39.2508 33.1467C40.4019 32.9752 41.564 32.9918 42.6099 33.3183C44.2479 33.8329 45.5484 35.0448 46.0464 37.3635C47.8449 45.6698 46.2346 49.2392 44.9784 52.0338C44.7625 52.5152 44.5578 52.969 44.4028 53.3785C44.3973 53.4061 44.3862 53.4283 44.3752 53.456C43.8495 54.8726 44.6187 52.7974 44.2202 53.8544C43.5949 55.5588 43.0471 57.0198 43.2131 58.1099ZM41.4035 56.0071C41.6193 55.1161 41.9735 54.1754 42.3498 53.1627C42.6486 52.3658 41.8683 54.452 42.4937 52.7642C42.5047 52.7365 42.5158 52.7089 42.5269 52.6812C42.7206 52.1666 42.9308 51.7073 43.1467 51.2203C44.2866 48.6913 45.7365 45.4595 44.0819 37.8007C43.7609 36.3121 42.9806 35.5484 42.0067 35.244C41.2762 35.0171 40.4185 35.0116 39.5386 35.1444C38.5978 35.2883 37.6571 35.5761 36.8159 35.9192C35.3384 36.5224 34.2206 37.0315 34.2206 37.0757C34.2206 37.2196 34.2372 37.5461 34.2648 37.9833C34.3644 39.6711 34.5581 42.9416 34.0435 46.6493C33.9439 47.3742 33.9273 48.077 33.9937 48.7522C34.1763 50.6337 34.9621 52.3215 36.1297 53.5998C37.2808 54.8615 38.8026 55.7193 40.4738 55.9517C40.7837 55.9849 41.0936 56.0071 41.4035 56.0071Z" fill="#E9F5FF"/>
<path d="M39.7709 36.9263C39.7267 37.2528 40.3741 38.1326 41.2153 38.2489C42.0564 38.3651 42.7814 37.6789 42.8256 37.3524C42.8699 37.0259 42.2224 36.6606 41.3813 36.5444C40.5401 36.4282 39.8152 36.5998 39.7709 36.9263Z" fill="#E9F5FF"/>
<path d="M40.1031 36.9705C40.092 37.0425 40.2082 37.2306 40.4019 37.4354C40.6177 37.6623 40.9221 37.867 41.2596 37.9168H41.2652C41.5972 37.9611 41.9071 37.8504 42.1395 37.6899C42.3553 37.5461 42.4882 37.3911 42.5048 37.3026C42.5048 37.286 42.4218 37.2362 42.2834 37.1587C42.0565 37.0314 41.7245 36.9263 41.3427 36.8709H41.3316C40.9553 36.8211 40.6066 36.8322 40.3576 36.8931C40.2027 36.9318 40.1031 36.9595 40.1031 36.9705ZM39.9205 37.8947C39.594 37.5516 39.4113 37.1421 39.4445 36.8875V36.8765C39.4888 36.561 39.771 36.3452 40.2027 36.2401C40.5292 36.1626 40.9608 36.146 41.4201 36.2069C41.4257 36.2069 41.4312 36.2069 41.4367 36.2069C41.9016 36.2733 42.3166 36.4061 42.6099 36.5721C42.9973 36.7879 43.2131 37.0812 43.1688 37.3911C43.1356 37.6346 42.8866 37.9888 42.5158 38.2378C42.1672 38.4757 41.6913 38.6473 41.1766 38.5754H41.1711C40.662 38.509 40.2248 38.2157 39.9205 37.8947Z" fill="#E9F5FF"/>
<path d="M65.4702 36.2567C65.5144 36.5832 64.867 37.4631 64.0258 37.5793C63.1791 37.6955 62.4597 37.0093 62.4155 36.6828C62.3712 36.3563 63.0187 35.9911 63.8653 35.8749C64.701 35.7587 65.4204 35.9302 65.4702 36.2567Z" fill="#E9F5FF"/>
<path d="M65.6307 36.2346C65.6584 36.4449 65.4924 36.8046 65.1991 37.1144C64.9169 37.4133 64.5074 37.6844 64.0425 37.7453H64.037C63.5721 37.8062 63.1405 37.6512 62.8195 37.4354C62.4875 37.2141 62.2717 36.9097 62.2385 36.7049C62.2053 36.467 62.3879 36.2346 62.7144 36.052C62.9911 35.897 63.384 35.7697 63.8267 35.7088C64.2694 35.648 64.6844 35.6646 64.9943 35.7365C65.3596 35.8195 65.5975 35.9911 65.6307 36.2346ZM64.9556 36.882C65.1825 36.6441 65.3153 36.4006 65.2987 36.2788C65.2876 36.1903 65.1438 36.1128 64.9224 36.0575C64.6512 35.9911 64.2805 35.98 63.8765 36.0353C63.4781 36.0907 63.1239 36.2069 62.8804 36.3397C62.6812 36.4504 62.565 36.5666 62.576 36.6551C62.5927 36.7769 62.7587 36.9816 63.0132 37.1532C63.2733 37.3303 63.6275 37.4575 64.0038 37.4077H64.0093C64.3801 37.3579 64.7177 37.1311 64.9556 36.882Z" fill="#E9F5FF"/>
<path d="M67.4845 34.0321C67.4568 33.4787 67.8829 33.0083 68.4363 32.9806C68.9897 32.953 69.4601 33.3791 69.4878 33.9325C69.5708 35.4819 69.3826 36.7105 69.1834 37.9998C69.034 38.9627 68.879 39.9699 68.8458 41.0933C68.8126 42.1613 68.951 43.3456 69.1004 44.563C69.4878 47.7671 69.8973 51.1981 67.5177 54.7453C67.2078 55.2046 66.588 55.3263 66.1287 55.022C65.6694 54.7121 65.5477 54.0923 65.852 53.633C67.811 50.7056 67.4458 47.6564 67.1027 44.801C66.9477 43.5282 66.7983 42.2886 66.8426 41.0379C66.8813 39.743 67.0418 38.7082 67.1967 37.7066C67.3849 36.5002 67.5564 35.3602 67.4845 34.0321Z" fill="#E9F5FF"/>
</g>
</g>
<defs>
<filter id="filter0_d_187_568" x="1.49312" y="3.49312" width="90.6046" height="93.0084" filterUnits="userSpaceOnUse" color-interpolation-filters="sRGB">
<feFlood flood-opacity="0" result="BackgroundImageFix"/>
<feColorMatrix in="SourceAlpha" type="matrix" values="0 0 0 0 0 0 0 0 0 0 0 0 0 0 0 0 0 0 127 0" result="hardAlpha"/>
<feOffset/>
<feGaussianBlur stdDeviation="6.25344"/>
<feComposite in2="hardAlpha" operator="out"/>
<feColorMatrix type="matrix" values="0 0 0 0 0.323756 0 0 0 0 0.572849 0 0 0 0 0.774038 0 0 0 0.4 0"/>
<feBlend mode="normal" in2="BackgroundImageFix" result="effect1_dropShadow_187_568"/>
<feBlend mode="normal" in="SourceGraphic" in2="effect1_dropShadow_187_568" result="shape"/>
</filter>
<clipPath id="clip0_187_568">
<rect width="94" height="94" rx="25" fill="white"/>
</clipPath>
</defs>
</svg>
