<svg width="94" height="94" viewBox="0 0 94 94" fill="none" xmlns="http://www.w3.org/2000/svg">
<g clip-path="url(#clip0_176_208)">
<g filter="url(#filter0_d_176_208)">
<path d="M54.8627 60.9256C53.1416 63.425 51.2671 65.8103 49.2504 68.067C54.625 73.396 59.6205 75.8914 62.3929 74.253C65.1654 72.6178 65.5476 66.9474 63.7197 59.5302C60.9794 60.154 58.0046 60.6301 54.8627 60.9256ZM50.6543 61.208C48.2191 61.3092 45.7809 61.3092 43.3457 61.208C44.5536 62.8234 45.7808 64.3207 46.9984 65.6833C48.2213 64.3196 49.4399 62.83 50.6543 61.208ZM66.8455 35.2855C75.407 37.794 81 41.964 81 46.9974C81 52.0309 75.4102 56.2008 66.8487 58.7093C69.0011 67.5417 68.2622 74.5747 63.9992 77.0898C59.7361 79.6082 53.4074 76.7451 46.9984 70.4212C40.5926 76.7418 34.2639 79.6082 30.0008 77.0898C25.7378 74.5714 24.9989 67.5417 27.1513 58.7093C18.5898 56.2074 13 52.0374 13 47.004C13 41.9705 18.5898 37.8006 27.1513 35.2921C24.9989 26.4597 25.7378 19.4267 30.0008 16.9083C34.2639 14.3932 40.5926 17.2564 46.9984 23.5802C53.4074 17.2564 59.7361 14.3932 63.9992 16.9083C68.2622 19.4267 69.0011 26.4597 66.8487 35.2921M63.7229 34.4778C65.5541 27.0573 65.1686 21.3902 62.3961 19.7517C59.6237 18.1166 54.6282 20.612 49.2568 25.941C51.2724 28.1978 53.1459 30.583 54.8659 33.0824C58.0078 33.3779 60.9826 33.8507 63.7229 34.4778ZM30.2803 59.5302C28.4524 66.9507 28.8346 72.6178 31.6103 74.253C34.3827 75.8881 39.3782 73.396 44.7496 68.067C42.7339 65.8092 40.8604 63.4228 39.1405 60.9223C36.1623 60.6492 33.204 60.1831 30.2835 59.5269M43.3522 32.7934C45.7873 32.6922 48.2255 32.6922 50.6607 32.7934C49.5022 31.2506 48.2803 29.7586 46.9984 28.3214C45.7776 29.6895 44.5601 31.1824 43.3457 32.8M39.1373 33.0856C40.8573 30.5863 42.7308 28.2011 44.7464 25.9442C39.375 20.612 34.3795 18.1166 31.6103 19.7517C28.8379 21.3902 28.4524 27.0606 30.2835 34.4778C33.0238 33.854 35.9986 33.3811 39.1405 33.0824M53.083 57.7736C55.3706 54.3435 57.4044 50.7436 59.1675 47.004C57.4054 43.2645 55.3727 39.6646 53.0862 36.2344C49.0365 35.925 44.9699 35.925 40.9203 36.2344C38.6315 39.6644 36.5966 43.2643 34.8325 47.004C36.5956 50.7436 38.6294 54.3435 40.917 57.7736C44.9667 58.083 49.0333 58.083 53.083 57.7736ZM57.2111 57.3401C59.19 57.0775 61.064 56.7458 62.833 56.3453C62.2535 54.4933 61.5975 52.6672 60.867 50.8718C59.7356 53.0776 58.5171 55.2355 57.2143 57.3401M36.7921 36.6645C34.8132 36.9294 32.9392 37.2621 31.1702 37.6627C31.7163 39.427 32.3727 41.2515 33.1395 43.1361C34.2708 40.9304 35.4894 38.7725 36.7921 36.6678M31.1702 56.3486C32.9392 56.7469 34.8132 57.0786 36.7921 57.3434C35.4894 55.2388 34.2708 53.0809 33.1395 50.8751C32.4078 52.6704 31.7508 54.4965 31.1702 56.3486ZM28.0283 55.5441C28.87 52.8058 29.9558 49.9361 31.273 47.0073C30.0158 44.2347 28.9321 41.3833 28.0283 38.4704C20.829 40.5587 16.2158 43.737 16.2158 47.0073C16.2158 50.2775 20.829 53.4526 28.0283 55.5441ZM62.8363 37.6627C61.0651 37.2621 59.1911 36.9294 57.2143 36.6645C58.5171 38.7692 59.7356 40.9271 60.867 43.1329C61.6315 41.2504 62.288 39.427 62.8363 37.6627ZM65.9749 38.4671C65.1396 41.2055 64.0474 44.0752 62.7302 47.004C64.0474 49.9328 65.1396 52.8025 65.9749 55.5408C73.1774 53.4493 77.7907 50.2743 77.7907 47.004C77.7907 43.7337 73.1774 40.5587 65.9749 38.4671ZM46.9984 53.1735C46.1891 53.2005 45.3828 53.0609 44.6274 52.763C43.8719 52.4651 43.1828 52.015 42.601 51.4394C42.0192 50.8639 41.5566 50.1746 41.2406 49.4126C40.9247 48.6507 40.7618 47.8316 40.7618 47.004C40.7618 46.1764 40.9247 45.3573 41.2406 44.5953C41.5566 43.8334 42.0192 43.1441 42.601 42.5686C43.1828 41.993 43.8719 41.5429 44.6274 41.245C45.3828 40.9471 46.1891 40.8075 46.9984 40.8345C48.5653 40.8867 50.0508 41.5596 51.1411 42.7109C52.2314 43.8622 52.841 45.4017 52.841 47.004C52.841 48.6063 52.2314 50.1458 51.1411 51.2971C50.0508 52.4484 48.5653 53.1213 46.9984 53.1735Z" fill="#00D8FF"/>
</g>
</g>
<defs>
<filter id="filter0_d_176_208" x="-6.2" y="-3.2" width="106.4" height="100.4" filterUnits="userSpaceOnUse" color-interpolation-filters="sRGB">
<feFlood flood-opacity="0" result="BackgroundImageFix"/>
<feColorMatrix in="SourceAlpha" type="matrix" values="0 0 0 0 0 0 0 0 0 0 0 0 0 0 0 0 0 0 127 0" result="hardAlpha"/>
<feOffset/>
<feGaussianBlur stdDeviation="9.6"/>
<feComposite in2="hardAlpha" operator="out"/>
<feColorMatrix type="matrix" values="0 0 0 0 0 0 0 0 0 0.847059 0 0 0 0 1 0 0 0 0.4 0"/>
<feBlend mode="normal" in2="BackgroundImageFix" result="effect1_dropShadow_176_208"/>
<feBlend mode="normal" in="SourceGraphic" in2="effect1_dropShadow_176_208" result="shape"/>
</filter>
<clipPath id="clip0_176_208">
<rect width="94" height="94" rx="25" fill="white"/>
</clipPath>
</defs>
</svg>
