<svg width="94" height="94" viewBox="0 0 94 94" fill="none" xmlns="http://www.w3.org/2000/svg">
<rect width="94" height="94" rx="25" fill="#CD6799" fill-opacity="0.15"/>
<g clip-path="url(#clip0_18_120)">
<path d="M71.5121 50.3553C69.1465 50.3675 67.0903 50.9373 65.3688 51.7796C64.7368 50.5285 64.1052 49.4139 63.9939 48.5963C63.8698 47.6427 63.7213 47.0605 63.8698 45.9209C64.0186 44.7814 64.6874 43.1587 64.6749 43.0349C64.6625 42.9111 64.5262 42.3289 63.1638 42.3167C61.8014 42.3045 60.6247 42.5767 60.4884 42.9358C60.3522 43.295 60.0921 44.1126 59.9187 44.9546C59.6833 46.1935 57.1939 50.6151 55.7696 52.9313C55.3111 52.0274 54.9148 51.2345 54.828 50.6028C54.7042 49.6493 54.5554 49.067 54.7042 47.9275C54.8529 46.7879 55.5218 45.1655 55.5093 45.0415C55.4968 44.9177 55.3605 44.3354 53.9981 44.3232C52.6355 44.3107 51.4588 44.5833 51.3228 44.9424C51.1865 45.3018 51.0378 46.1438 50.753 46.9614C50.4683 47.779 47.161 55.1612 46.294 57.0684C45.9436 57.8404 45.576 58.6044 45.1916 59.36C45.1916 59.36 45.1791 59.3972 45.1419 59.459C45.0212 59.696 44.8974 59.9313 44.7706 60.1651V60.1773C44.5847 60.512 44.3865 60.8214 44.2874 60.8214C44.213 60.8214 44.0768 59.9297 44.3121 58.7158C44.8075 56.152 45.9842 52.1637 45.972 52.0274C45.972 51.953 46.1949 51.2595 45.2041 50.9001C44.2377 50.541 43.8911 51.1354 43.8043 51.1354C43.7174 51.1354 43.6555 51.3461 43.6555 51.3461C43.6555 51.3461 44.7334 46.8623 41.5996 46.8623C39.6427 46.8623 36.9424 49.0051 35.6047 50.9373C34.084 51.7648 32.5646 52.5947 31.0465 53.427C30.3161 53.8358 29.5604 54.2446 28.8543 54.6284C28.8047 54.579 28.7553 54.5168 28.7056 54.4674C24.9154 50.4172 17.905 47.5559 18.2022 42.1185C18.3138 40.1367 18.9949 34.9344 31.666 28.6176C42.095 23.4772 50.3939 24.9015 51.8306 28.06C53.8866 32.5688 47.3841 40.9418 36.6079 42.1554C32.4958 42.6139 30.3405 41.0284 29.7957 40.4339C29.226 39.8145 29.1391 39.7773 28.9285 39.9013C28.5818 40.0873 28.8047 40.6446 28.9285 40.9665C29.2507 41.8085 30.5759 43.295 32.8177 44.026C34.7996 44.6698 39.6177 45.0292 45.4517 42.7749C51.9791 40.248 57.0823 33.2251 55.5837 27.3418C54.0847 21.3716 44.1759 19.4023 34.7996 22.734C29.226 24.7161 23.1814 27.8372 18.8339 31.8999C13.6688 36.7303 12.8512 40.9293 13.1857 42.6883C14.3873 48.9307 22.9957 52.9935 26.439 56.0033C26.2656 56.1023 26.1043 56.1892 25.9683 56.2636C24.2465 57.1181 17.6819 60.5489 16.047 64.1781C14.1892 68.2903 16.3445 71.2385 17.7687 71.6345C22.1906 72.8609 26.7362 70.6562 29.1763 67.0145C31.6163 63.373 31.3191 58.6415 30.192 56.474C30.1795 56.4492 30.1673 56.4243 30.1424 56.3996C30.5883 56.1395 31.0465 55.867 31.4925 55.607C32.3122 55.1224 33.1423 54.6557 33.9822 54.2071C33.561 55.3591 33.2512 56.734 33.1027 58.7158C32.9168 61.0446 33.8704 64.0666 35.1215 65.2555C35.679 65.7761 36.3354 65.7884 36.7567 65.7884C38.2182 65.7884 38.8748 64.5745 39.6055 63.1377C40.4972 61.379 41.3023 59.3353 41.3023 59.3353C41.3023 59.3353 40.2991 64.8595 43.0241 64.8595C44.0149 64.8595 45.0182 63.5712 45.4641 62.9148V62.927C45.4641 62.927 45.4888 62.8899 45.5385 62.8033C45.6376 62.6423 45.6995 62.543 45.6995 62.543V62.5185C46.0958 61.8247 46.9878 60.2517 48.313 57.6382C50.0223 54.2693 51.6697 50.058 51.6697 50.058C51.6697 50.058 51.8184 51.086 52.326 52.7953C52.6235 53.7986 53.2424 54.9009 53.7381 55.9661C53.3418 56.5236 53.094 56.8331 53.094 56.8331L53.1064 56.8456C52.7842 57.2666 52.4376 57.7248 52.0535 58.171C50.7033 59.781 49.0934 61.6268 48.8703 62.1591C48.6099 62.7908 48.6721 63.2493 49.1677 63.6209C49.5269 63.8934 50.1707 63.9303 50.8274 63.8934C52.0413 63.8065 52.8958 63.5093 53.3168 63.3236C53.9734 63.0883 54.7414 62.7289 55.4596 62.1963C56.7851 61.2178 57.5899 59.8182 57.5158 57.9729C57.4786 56.9571 57.1442 55.9414 56.7354 54.9875C56.8595 54.8143 56.9707 54.6409 57.0948 54.4674C59.1879 51.408 60.8106 48.0513 60.8106 48.0513C60.8106 48.0513 60.9594 49.0792 61.467 50.7888C61.7148 51.6558 62.2227 52.5972 62.6684 53.5136C60.6991 55.1116 59.4852 56.9693 59.0517 58.1832C58.2715 60.4376 58.8782 61.4531 60.0302 61.6884C60.5503 61.8 61.2935 61.5522 61.8386 61.3168C62.5321 61.094 63.3497 60.7101 64.1301 60.1401C65.4556 59.1618 66.7311 57.7992 66.6568 55.9539C66.6196 55.1116 66.3967 54.2815 66.087 53.4764C67.7591 52.7831 69.9144 52.399 72.6639 52.7209C78.56 53.4145 79.7242 57.0931 79.5011 58.6417C79.2782 60.1898 78.0396 61.0321 77.6311 61.2921C77.222 61.5524 77.086 61.639 77.1232 61.8247C77.1726 62.0972 77.3708 62.085 77.7177 62.0353C78.2008 61.9487 80.8143 60.7842 80.9256 57.9354C81.1115 54.294 77.6433 50.3181 71.5121 50.3553ZM26.0302 65.6893C24.0731 67.8196 21.3483 68.6247 20.1716 67.9436C18.9083 67.2126 19.4037 64.0666 21.8065 61.8125C23.268 60.4376 25.1507 59.1615 26.4018 58.3814C26.6866 58.208 27.1079 57.9604 27.6157 57.6507C27.7023 57.601 27.752 57.5763 27.752 57.5763L28.0492 57.3904C28.9285 60.6108 28.0864 63.4474 26.0302 65.6893ZM40.2744 56.0033C39.593 57.6632 38.1687 61.9116 37.3018 61.6762C36.5585 61.4781 36.1001 58.2576 37.153 55.0744C37.6856 53.4764 38.8126 51.5689 39.4692 50.826C40.5344 49.6368 41.7111 49.2402 41.9959 49.7236C42.3553 50.3553 40.6954 54.9628 40.2744 56.0033ZM52.0288 61.6265C51.7438 61.7753 51.4715 61.8744 51.3475 61.8C51.2609 61.7503 51.4715 61.5522 51.4715 61.5522C51.4715 61.5522 52.9455 59.9669 53.5275 59.2484C53.8621 58.8274 54.2582 58.332 54.6795 57.7745V57.9354C54.6795 59.8307 52.8461 61.1065 52.0285 61.6265M61.0951 59.5581C60.8845 59.4094 60.9217 58.914 61.6277 57.3657C61.9002 56.7587 62.5441 55.7432 63.6467 54.7647C63.7705 55.161 63.8573 55.5451 63.8449 55.9042C63.8324 58.2948 62.1233 59.1865 61.0951 59.5581Z" fill="#CD6799"/>
</g>
<defs>
<clipPath id="clip0_18_120">
<rect width="68" height="51" fill="white" transform="translate(13 21)"/>
</clipPath>
</defs>
</svg>
