<svg width="1241" height="45" viewBox="0 0 1241 45" fill="none" xmlns="http://www.w3.org/2000/svg">
<g clip-path="url(#clip0)">
<rect width="1241" height="45" fill="white"/>
<rect x="100.815" y="-55" width="18.5471" height="185" transform="rotate(45 100.815 -55)" fill="#121212"/>
<rect x="155.815" y="-46" width="18.5471" height="185" transform="rotate(45 155.815 -46)" fill="#121212"/>
<rect x="214.815" y="-42" width="18.5471" height="185" transform="rotate(45 214.815 -42)" fill="#121212"/>
<rect x="268.815" y="-33" width="18.5471" height="185" transform="rotate(45 268.815 -33)" fill="#121212"/>
<rect x="327.815" y="-29" width="18.5471" height="185" transform="rotate(45 327.815 -29)" fill="#121212"/>
<rect x="380.815" y="-20" width="18.5471" height="185" transform="rotate(45 380.815 -20)" fill="#121212"/>
<rect x="436.815" y="-16" width="18.5471" height="185" transform="rotate(45 436.815 -16)" fill="#121212"/>
<rect x="499.815" y="-16" width="18.5471" height="185" transform="rotate(45 499.815 -16)" fill="#121212"/>
<rect x="562.815" y="-16" width="18.5471" height="185" transform="rotate(45 562.815 -16)" fill="#121212"/>
<rect x="621.815" y="-16" width="18.5471" height="185" transform="rotate(45 621.815 -16)" fill="#121212"/>
<rect x="680.815" y="-16" width="18.5471" height="185" transform="rotate(45 680.815 -16)" fill="#121212"/>
<rect x="765.815" y="-42" width="18.5471" height="185" transform="rotate(45 765.815 -42)" fill="#121212"/>
<rect x="824.815" y="-38" width="18.5471" height="185" transform="rotate(45 824.815 -38)" fill="#121212"/>
<rect x="878.815" y="-29" width="18.5471" height="185" transform="rotate(45 878.815 -29)" fill="#121212"/>
<rect x="937.815" y="-25" width="18.5471" height="185" transform="rotate(45 937.815 -25)" fill="#121212"/>
<rect x="990.815" y="-16" width="18.5471" height="185" transform="rotate(45 990.815 -16)" fill="#121212"/>
<rect x="1046.81" y="-12" width="18.5471" height="185" transform="rotate(45 1046.81 -12)" fill="#121212"/>
<rect x="1109.81" y="-12" width="18.5471" height="185" transform="rotate(45 1109.81 -12)" fill="#121212"/>
<rect x="1172.81" y="-12" width="18.5471" height="185" transform="rotate(45 1172.81 -12)" fill="#121212"/>
<rect x="1231.81" y="-12" width="18.5471" height="185" transform="rotate(45 1231.81 -12)" fill="#121212"/>
<rect x="1290.81" y="-12" width="18.5471" height="185" transform="rotate(45 1290.81 -12)" fill="#121212"/>
</g>
<defs>
<clipPath id="clip0">
<rect width="1241" height="45" fill="white"/>
</clipPath>
</defs>
</svg>
