<svg width="611" height="540" viewBox="0 0 611 540" fill="none" xmlns="http://www.w3.org/2000/svg">
<g clip-path="url(#clip0)">
<path d="M237.076 13.9055L239.478 10.1886C238.766 8.21837 237.943 6.28994 237.014 4.41251L235.46 5.66861L236.69 3.76555C235.518 1.45547 234.595 0 234.595 0C234.595 0 229.777 7.60099 228.167 15.6487L231.25 20.4184L227.837 17.6588C227.716 18.5963 227.653 19.5404 227.65 20.4858C227.65 30.017 230.759 37.7435 234.595 37.7435C238.431 37.7435 241.541 30.017 241.541 20.4858C241.469 17.4534 240.933 14.45 239.952 11.5801L237.076 13.9055Z" fill="#D8D8D8"/>
<path d="M254.082 22.1685L258.406 21.2409C259.294 19.3434 260.074 17.3973 260.743 15.4118L258.757 15.2003L260.971 14.7254C261.774 12.2621 262.15 10.58 262.15 10.58C262.15 10.58 253.374 12.544 246.551 17.0951L245.362 22.6501L244.898 18.2828C244.15 18.8597 243.438 19.4831 242.768 20.1493C236.036 26.8889 232.777 34.5535 235.489 37.2687C238.202 39.9839 245.858 36.7215 252.591 29.982C254.682 27.7868 256.425 25.2838 257.758 22.56L254.082 22.1685Z" fill="#D8D8D8"/>
<path d="M255.661 59.0493C245.633 59.6915 234.707 59.012 223.083 59.0493V32.4085C233.326 34.0046 244.248 33.8407 255.661 32.4085V59.0493Z" fill="#E6E6E6"/>
<path d="M327.402 79.8228L328.969 77.3988C328.504 76.1139 327.967 74.8563 327.361 73.632L326.348 74.4511L327.15 73.2101C326.386 71.7036 325.784 70.7544 325.784 70.7544C323.854 73.9115 322.439 77.3564 321.592 80.9596L323.603 84.0701L321.377 82.2704C321.297 82.8818 321.257 83.4975 321.255 84.114C321.255 90.3297 323.283 95.3685 325.784 95.3685C328.286 95.3685 330.314 90.3297 330.314 84.114C330.267 82.1365 329.917 80.1778 329.277 78.3063L327.402 79.8228Z" fill="#C7C7C7"/>
<path d="M338.492 85.2114L341.312 84.6065C341.891 83.369 342.4 82.0999 342.836 80.8051L341.541 80.6671L342.985 80.3574C343.509 78.751 343.754 77.654 343.754 77.654C340.159 78.5201 336.725 79.9544 333.581 81.9028L332.805 85.5254L332.503 82.6774C332.015 83.0536 331.551 83.4601 331.114 83.8946C326.724 88.2897 324.598 93.2881 326.367 95.0588C328.136 96.8295 333.129 94.702 337.52 90.3069C338.883 88.8753 340.02 87.243 340.889 85.4667L338.492 85.2114Z" fill="#C7C7C7"/>
<path d="M339.522 109.263C332.982 109.682 325.857 109.239 318.277 109.263V91.8893C325.324 92.8775 332.475 92.8775 339.522 91.8893V109.263Z" fill="#E6E6E6"/>
<path d="M335.484 160.751C329.709 161.121 323.418 160.73 316.724 160.751V145.41C322.947 146.283 329.261 146.283 335.484 145.41V160.751Z" fill="#E6E6E6"/>
<path d="M368.433 57.1758H115.995V64.2346H368.433V57.1758Z" fill="#E6E6E6"/>
<path d="M368.433 107.293H115.995V114.352H368.433V107.293Z" fill="#E6E6E6"/>
<path d="M368.433 157.41H115.995V164.469H368.433V157.41Z" fill="#E6E6E6"/>
<path d="M326.125 151.057C333.914 151.057 340.228 144.737 340.228 136.94C340.228 129.143 333.914 122.822 326.125 122.822C318.336 122.822 312.022 129.143 312.022 136.94C312.022 144.737 318.336 151.057 326.125 151.057Z" fill="#E6E6E6"/>
<path d="M326.125 148.234C332.356 148.234 337.407 143.177 337.407 136.94C337.407 130.702 332.356 125.646 326.125 125.646C319.894 125.646 314.843 130.702 314.843 136.94C314.843 143.177 319.894 148.234 326.125 148.234Z" fill="white"/>
<path d="M326.125 139.763C327.683 139.763 328.946 138.499 328.946 136.94C328.946 135.38 327.683 134.116 326.125 134.116C324.567 134.116 323.305 135.38 323.305 136.94C323.305 138.499 324.567 139.763 326.125 139.763Z" fill="#E6E6E6"/>
<path d="M335.997 137.646V136.234H324.715V137.646H335.997Z" fill="#E6E6E6"/>
<path d="M325.42 138.351H326.83V127.057H325.42V138.351Z" fill="#E6E6E6"/>
<path d="M244.581 72.858H235.25V109.832H244.581V72.858Z" fill="#E6E6E6"/>
<path d="M244.581 78.696H235.25V82.9773H244.581V78.696Z" fill="#CCCCCC"/>
<path d="M244.581 97.3778H235.25V101.659H244.581V97.3778Z" fill="#CCCCCC"/>
<path d="M230.196 72.858H220.865V109.832H230.196V72.858Z" fill="#E6E6E6"/>
<path d="M230.196 78.696H220.865V82.9773H230.196V78.696Z" fill="#CCCCCC"/>
<path d="M230.196 97.3778H220.865V101.659H230.196V97.3778Z" fill="#CCCCCC"/>
<path d="M252.621 72.7052L244.259 76.8496L260.647 109.985L269.009 105.841L252.621 72.7052Z" fill="#E6E6E6"/>
<path d="M255.209 77.9371L246.846 82.0815L248.744 85.9183L257.106 81.7738L255.209 77.9371Z" fill="#CCCCCC"/>
<path d="M263.489 94.6793L255.127 98.8237L257.024 102.66L265.387 98.516L263.489 94.6793Z" fill="#CCCCCC"/>
<path d="M161.375 122.975H152.044V159.949H161.375V122.975Z" fill="#E6E6E6"/>
<path d="M161.375 128.813H152.044V133.094H161.375V128.813Z" fill="#CCCCCC"/>
<path d="M161.375 147.495H152.044V151.776H161.375V147.495Z" fill="#CCCCCC"/>
<path d="M146.99 122.975H137.659V159.949H146.99V122.975Z" fill="#E6E6E6"/>
<path d="M146.99 128.813H137.659V133.094H146.99V128.813Z" fill="#CCCCCC"/>
<path d="M146.99 147.495H137.659V151.776H146.99V147.495Z" fill="#CCCCCC"/>
<path d="M169.415 122.822L161.053 126.967L177.441 160.102L185.803 155.958L169.415 122.822Z" fill="#E6E6E6"/>
<path d="M172.003 128.054L163.64 132.199L165.538 136.035L173.9 131.891L172.003 128.054Z" fill="#CCCCCC"/>
<path d="M180.283 144.796L171.921 148.941L173.818 152.778L182.181 148.633L180.283 144.796Z" fill="#CCCCCC"/>
<path d="M248.812 122.975H239.481V159.949H248.812V122.975Z" fill="#E6E6E6"/>
<path d="M248.812 128.813H239.481V133.094H248.812V128.813Z" fill="#CCCCCC"/>
<path d="M248.812 147.495H239.481V151.776H248.812V147.495Z" fill="#CCCCCC"/>
<path d="M234.427 122.975H225.096V159.949H234.427V122.975Z" fill="#E6E6E6"/>
<path d="M234.427 128.813H225.096V133.094H234.427V128.813Z" fill="#CCCCCC"/>
<path d="M234.427 147.495H225.096V151.776H234.427V147.495Z" fill="#CCCCCC"/>
<path d="M256.852 122.822L248.49 126.967L264.878 160.102L273.24 155.958L256.852 122.822Z" fill="#E6E6E6"/>
<path d="M259.44 128.054L251.077 132.199L252.975 136.035L261.337 131.891L259.44 128.054Z" fill="#CCCCCC"/>
<path d="M267.72 144.796L259.357 148.941L261.255 152.778L269.617 148.633L267.72 144.796Z" fill="#CCCCCC"/>
<path d="M348.689 22.6299H311.604V59.7548H348.689V22.6299Z" fill="#E6E6E6"/>
<path d="M341.272 30.0549H319.021V52.3298H341.272V30.0549Z" fill="#CCCCCC"/>
<path d="M325.462 37.5318L330.18 45.7122L334.898 53.8927H325.462H316.025L320.744 45.7122L325.462 37.5318Z" fill="#E6E6E6"/>
<path d="M333.66 39.095L338.378 47.2754L343.096 55.4558H333.66H324.224L328.942 47.2754L333.66 39.095Z" fill="#E6E6E6"/>
<path d="M336.978 36.6983C338.487 36.6983 339.711 35.4735 339.711 33.9628C339.711 32.452 338.487 31.2272 336.978 31.2272C335.469 31.2272 334.246 32.452 334.246 33.9628C334.246 35.4735 335.469 36.6983 336.978 36.6983Z" fill="#E6E6E6"/>
<path d="M161.124 22.6299H124.038V59.7548H161.124V22.6299Z" fill="#E6E6E6"/>
<path d="M153.706 30.0549H131.455V52.3298H153.706V30.0549Z" fill="#CCCCCC"/>
<path d="M137.896 37.5318L142.614 45.7122L147.332 53.8927H137.896H128.46L133.178 45.7122L137.896 37.5318Z" fill="#E6E6E6"/>
<path d="M146.094 39.095L150.812 47.2754L155.53 55.4558H146.094H136.658L141.376 47.2754L146.094 39.095Z" fill="#E6E6E6"/>
<path d="M149.412 36.6983C150.921 36.6983 152.145 35.4735 152.145 33.9628C152.145 32.452 150.921 31.2272 149.412 31.2272C147.903 31.2272 146.679 32.452 146.679 33.9628C146.679 35.4735 147.903 36.6983 149.412 36.6983Z" fill="#E6E6E6"/>
<path d="M49.51 275.785L51.9126 272.068C51.2001 270.098 50.3771 268.169 49.4477 266.292L47.8941 267.548L49.1242 265.645C47.9519 263.335 47.0295 261.879 47.0295 261.879C47.0295 261.879 42.2111 269.48 40.6013 277.528L43.6843 282.298L40.2712 279.538C40.1497 280.476 40.0871 281.42 40.084 282.365C40.084 291.896 43.1936 299.623 47.0295 299.623C50.8654 299.623 53.975 291.896 53.975 282.365C53.903 279.333 53.3672 276.329 52.3861 273.46L49.51 275.785Z" fill="#CB181E"/>
<path d="M66.5155 284.048L70.8399 283.12C71.7278 281.223 72.5081 279.277 73.177 277.291L71.1912 277.08L73.4053 276.605C74.2081 274.142 74.5839 272.46 74.5839 272.46C74.5839 272.46 65.8077 274.424 58.9848 278.975L57.7956 284.53L57.3315 280.162C56.5834 280.739 55.8722 281.363 55.2022 282.029C48.4697 288.768 45.2108 296.433 47.9231 299.148C50.6355 301.863 58.2921 298.601 65.0246 291.862C67.1157 289.666 68.8584 287.163 70.1918 284.44L66.5155 284.048Z" fill="#CB181E"/>
<path d="M68.095 320.929C58.0672 321.571 47.1409 320.892 35.5171 320.929V294.288C45.7596 295.884 56.6823 295.72 68.095 294.288V320.929Z" fill="#3F3D56"/>
<path d="M482.313 329.291H346.927V505.053H482.313V329.291Z" fill="#E6E6E6"/>
<path d="M71.2186 338.467H64.1672V505.053H71.2186V338.467Z" fill="#E6E6E6"/>
<path d="M482.313 317.291H0V331.408H482.313V317.291Z" fill="#E6E6E6"/>
<path d="M74.7443 331.408H60.6416V345.526H74.7443V331.408Z" fill="#E6E6E6"/>
<path d="M425.285 339.525L424.491 342.702H404.748L403.558 339.525H353.273V371.996H475.966V339.525H425.285Z" fill="#882828"/>
<path d="M425.285 380.466L424.491 383.643H404.748L403.558 380.466H353.273V412.936H475.966V380.466H425.285Z" fill="#882828"/>
<path d="M425.285 421.407L424.491 424.584H404.748L403.558 421.407H353.273V453.877H475.966V421.407H425.285Z" fill="#882828"/>
<path d="M425.285 462.348L424.491 465.525H404.748L403.558 462.348H353.273V494.818H475.966V462.348H425.285Z" fill="#882828"/>
<path d="M261.605 315.173H220.002L221.412 296.82H260.195L261.605 315.173Z" fill="#E6E6E6"/>
<path d="M264.426 313.055H217.887V317.291H264.426V313.055Z" fill="#E6E6E6"/>
<path d="M320.484 178.586H161.476C160.354 178.586 159.278 179.033 158.484 179.827C157.691 180.621 157.245 181.698 157.245 182.822V279.879H324.715V182.822C324.715 181.698 324.269 180.621 323.476 179.827C322.682 179.033 321.606 178.586 320.484 178.586Z" fill="#3F3D56"/>
<path d="M157.245 279.879V295.762C157.245 296.885 157.691 297.962 158.484 298.756C159.278 299.551 160.354 299.997 161.476 299.997H320.484C321.606 299.997 322.682 299.551 323.476 298.756C324.269 297.962 324.715 296.885 324.715 295.762V279.879H157.245Z" fill="#E6E6E6"/>
<path d="M316.606 187.41H165.707V272.115H316.606V187.41Z" fill="white"/>
<path d="M241.156 293.997C243.493 293.997 245.387 292.101 245.387 289.762C245.387 287.423 243.493 285.526 241.156 285.526C238.82 285.526 236.926 287.423 236.926 289.762C236.926 292.101 238.82 293.997 241.156 293.997Z" fill="#3F3D56"/>
<path d="M599.013 503.995C583.602 504.981 566.811 503.937 548.948 503.995V463.054C564.688 465.507 581.474 465.255 599.013 463.054V503.995Z" fill="#3F3D56"/>
<path d="M575.743 466.73H571.512L572.923 383.996H574.333L575.743 466.73Z" fill="#3F3D56"/>
<path d="M594.782 467.289H590.551L591.962 384.555H593.371L594.782 467.289Z" fill="#3F3D56"/>
<path d="M558.82 467.289H554.589L555.999 384.555H557.409L558.82 467.289Z" fill="#3F3D56"/>
<path d="M598.308 332.467L605.137 321.901C603.112 316.3 600.773 310.818 598.13 305.481L593.714 309.052L597.211 303.642C593.878 297.076 591.256 292.938 591.256 292.938C591.256 292.938 577.559 314.545 572.983 337.422L581.747 350.981L572.045 343.136C571.699 345.801 571.521 348.485 571.512 351.173C571.512 378.267 580.352 400.231 591.256 400.231C602.16 400.231 611 378.267 611 351.173C611 342.773 609.102 333.986 606.483 325.857L598.308 332.467Z" fill="#5C0909"/>
<path d="M579.269 331.055L586.099 320.489C584.073 314.888 581.734 309.407 579.092 304.07L574.676 307.64L578.172 302.231C574.84 295.664 572.218 291.526 572.218 291.526C572.218 291.526 558.52 313.133 553.944 336.011L562.708 349.569L553.006 341.725C552.661 344.39 552.483 347.074 552.474 349.761C552.474 376.855 561.313 398.819 572.218 398.819C583.122 398.819 591.961 376.855 591.961 349.761C591.961 341.361 590.063 332.574 587.445 324.445L579.269 331.055Z" fill="#F7F7F7"/>
<path d="M562.346 332.467L569.175 321.901C567.15 316.3 564.811 310.818 562.169 305.481L557.752 309.052L561.249 303.642C557.917 297.076 555.294 292.938 555.294 292.938C555.294 292.938 541.597 314.545 537.021 337.422L545.785 350.981L536.083 343.136C535.737 345.801 535.559 348.485 535.551 351.173C535.551 378.267 544.39 400.231 555.294 400.231C566.199 400.231 575.038 378.267 575.038 351.173C575.038 342.773 573.14 333.986 570.521 325.857L562.346 332.467Z" fill="#631010"/>
<path d="M255.328 211.32H214.641V213.658H255.328V211.32Z" fill="#3F3D56"/>
<path d="M277.471 219.848H214.641V222.186H277.471V219.848Z" fill="#CB181E"/>
<path d="M265.846 227.883H214.641V230.221H265.846V227.883Z" fill="#CB181E"/>
<path d="M244.534 235.888H214.641V238.226H244.534V235.888Z" fill="#3F3D56"/>
<path d="M259.757 243.893H214.641V246.231H259.757V243.893Z" fill="#3F3D56"/>
<path d="M201.079 210.489H196.097V215.476H201.079V210.489Z" fill="#3F3D56"/>
<path d="M201.079 218.524H196.097V223.511H201.079V218.524Z" fill="#CB181E"/>
<path d="M201.079 226.559H196.097V231.546H201.079V226.559Z" fill="#CB181E"/>
<path d="M201.079 234.594H196.097V239.581H201.079V234.594Z" fill="#3F3D56"/>
<path d="M201.079 242.629H196.097V247.616H201.079V242.629Z" fill="#3F3D56"/>
<path d="M309.615 206.894H288.264C286.807 198.462 286.807 189.842 288.264 181.41H309.615C307.209 189.734 307.209 198.57 309.615 206.894Z" fill="#CB181E"/>
<path d="M154.258 257.97L145.474 255.826C142.122 255.831 138.811 255.089 135.781 253.655C132.75 252.221 130.076 250.13 127.952 247.535C125.828 244.939 124.307 241.903 123.499 238.647C122.691 235.39 122.616 231.995 123.28 228.706C123.27 220.858 126.375 213.328 131.911 207.772C137.447 202.216 144.961 199.089 152.801 199.08H152.801C160.64 199.07 168.162 202.178 173.712 207.72C179.262 213.262 182.386 220.784 182.396 228.631V228.631C187.376 245.981 171.778 262.245 154.258 257.97Z" fill="#2F2E41"/>
<path d="M163.853 261.063C175.847 261.063 185.571 251.329 185.571 239.322C185.571 227.315 175.847 217.581 163.853 217.581C151.858 217.581 142.134 227.315 142.134 239.322C142.134 251.329 151.858 261.063 163.853 261.063Z" fill="#FFB8B8"/>
<path d="M149.688 250.665C149.688 250.665 143.078 273.352 139.301 275.242C135.524 277.133 169.518 279.969 169.518 279.969C169.518 279.969 168.574 258.227 170.463 256.337C172.351 254.446 149.688 250.665 149.688 250.665Z" fill="#FFB8B8"/>
<path d="M183.683 390.565C183.683 390.565 226.175 386.784 231.841 400.963C237.507 415.142 228.064 499.271 228.064 499.271H210.122V430.267C210.122 430.267 133.623 408.499 133.623 400.937C133.623 393.375 183.683 390.565 183.683 390.565Z" fill="#2F2E41"/>
<path d="M225.231 495.49L234.674 499.271C234.674 499.271 246.005 498.326 241.284 506.834C239.932 509.303 238.042 511.436 235.753 513.072C233.464 514.709 230.835 515.808 228.064 516.286C228.064 516.286 210.122 522.903 209.178 516.286C208.234 509.669 213.899 496.436 213.899 496.436L225.231 495.49Z" fill="#2F2E41"/>
<path d="M160.075 390.565C160.075 390.565 202.568 386.784 208.234 400.963C213.899 415.142 204.457 499.271 204.457 499.271H186.515V430.267C186.515 430.267 132.213 417.675 132.213 410.113C132.213 406.561 128.513 388.506 135.033 384.702C142.393 380.409 160.075 390.565 160.075 390.565Z" fill="#2F2E41"/>
<path d="M201.624 495.49L211.067 499.271C211.067 499.271 222.398 498.326 217.677 506.834C216.325 509.303 214.435 511.436 212.146 513.072C209.857 514.709 207.228 515.808 204.457 516.286C204.457 516.286 186.515 522.903 185.571 516.286C184.627 509.669 190.292 496.436 190.292 496.436L201.624 495.49Z" fill="#2F2E41"/>
<path d="M140.245 272.406L168.623 275.494C173.003 275.971 177.12 277.82 180.387 280.779C183.654 283.738 185.903 287.654 186.813 291.969L197.847 344.247C197.847 344.247 201.624 396.237 194.069 399.073C186.515 401.908 176.128 387.729 161.964 389.62C147.8 391.511 129.386 395.764 129.386 395.764C129.386 395.764 126.462 302.704 126.081 295.093C125.32 279.876 140.245 272.406 140.245 272.406Z" fill="#575A89"/>
<path d="M207.465 393.266L219.115 400.134C219.115 400.134 240.015 397.132 239.363 404.486C238.711 411.84 215.896 410.419 215.896 410.419L201.856 401.759L207.465 393.266Z" fill="#FFB8B8"/>
<path d="M121.697 221.639C129.445 221.639 135.726 215.352 135.726 207.595C135.726 199.839 129.445 193.551 121.697 193.551C113.949 193.551 107.668 199.839 107.668 207.595C107.668 215.352 113.949 221.639 121.697 221.639Z" fill="#2F2E41"/>
<path d="M134.642 200.046C134.64 197.968 134.178 195.917 133.288 194.04C132.399 192.163 131.104 190.507 129.498 189.192C127.892 187.877 126.014 186.934 124 186.434C121.986 185.933 119.886 185.886 117.852 186.295C119.647 185.446 121.601 184.988 123.586 184.952C125.571 184.916 127.542 185.302 129.366 186.085C131.191 186.868 132.829 188.029 134.172 189.493C135.515 190.957 136.532 192.69 137.155 194.577C137.779 196.464 137.996 198.462 137.79 200.438C137.585 202.415 136.963 204.326 135.965 206.044C134.967 207.762 133.616 209.248 132.001 210.405C130.386 211.561 128.544 212.361 126.598 212.751C129.005 211.616 131.039 209.818 132.464 207.569C133.888 205.319 134.644 202.709 134.642 200.046Z" fill="#2F2E41"/>
<path d="M146.677 208.011L165.591 204.524L180.136 213.65C183.712 215.894 186.57 219.117 188.372 222.938C190.173 226.758 190.842 231.016 190.3 235.205L175.732 231.509L172.47 223.321L168.585 229.696L148.272 255.864L136.867 248.594L126.699 232.644L146.677 208.011Z" fill="#2F2E41"/>
<path d="M162.252 280.447L171.695 275.721C171.695 275.721 191.525 278.557 195.302 291.791C199.079 305.024 216.076 396.716 216.076 396.716L200.023 404.278L177.361 348.507L162.252 280.447Z" fill="#575A89"/>
<path opacity="0.2" d="M170.291 317.644L179.741 354.366L196.501 395.609L195.92 397.037L175.931 355.055L170.291 317.644Z" fill="black"/>
<path d="M99.774 520.161L96.4412 519.012L128.728 423.011L133.395 424.62L99.774 520.161Z" fill="#3F3D56"/>
<path d="M223.177 520.161L226.511 519.012L194.224 423.011L189.557 424.62L223.177 520.161Z" fill="#3F3D56"/>
<path d="M154.954 539.988L158.48 540L159.575 427.777L154.639 427.76L154.954 539.988Z" fill="#3F3D56"/>
<path d="M91.6139 366.602L101.285 405.73C102.639 411.209 105.459 416.216 109.441 420.212C113.424 424.208 118.418 427.043 123.889 428.412H123.889C150.86 435.162 179.097 434.98 205.979 427.883L220.418 424.071C228.808 421.856 235.117 414.642 235.714 405.977C235.956 402.914 235.401 399.84 234.105 397.055C234.049 396.935 233.992 396.816 233.935 396.698C232.052 392.826 229.147 389.543 225.534 387.204C221.922 384.866 217.739 383.561 213.439 383.431L198.143 382.937L142.437 358.231C142.437 358.231 123.279 348.49 107.529 347.399C97.1273 346.679 89.1097 356.47 91.6139 366.602Z" fill="#922626"/>
<path d="M431.19 243.527H376.19V318.35H431.19V243.527Z" fill="#E6E6E6"/>
<path d="M424.844 252.16H382.536V309.716H424.844V252.16Z" fill="white"/>
<path d="M419.686 267.222H399.188V269.56H419.686V267.222Z" fill="#3F3D56"/>
<path d="M392.676 265.928H387.694V270.915H392.676V265.928Z" fill="#3F3D56"/>
<path d="M419.686 277.104H399.188V279.442H419.686V277.104Z" fill="#3F3D56"/>
<path d="M392.676 275.81H387.694V280.797H392.676V275.81Z" fill="#3F3D56"/>
<path d="M419.686 286.986H399.188V289.325H419.686V286.986Z" fill="#3F3D56"/>
<path d="M392.676 285.692H387.694V290.68H392.676V285.692Z" fill="#3F3D56"/>
<path d="M405.806 247.762C405.806 246.593 404.858 245.644 403.69 245.644C402.522 245.644 401.575 246.593 401.575 247.762C401.575 248.932 402.522 249.88 403.69 249.88C404.858 249.88 405.806 248.932 405.806 247.762Z" fill="#3F3D56"/>
</g>
<defs>
<clipPath id="clip0">
<rect width="611" height="540" fill="white"/>
</clipPath>
</defs>
</svg>
