<svg width="616" height="388" viewBox="0 0 616 388" fill="none" xmlns="http://www.w3.org/2000/svg">
<g clip-path="url(#clip0)">
<path d="M474.119 293.068C499.457 229.691 491.793 158.923 459.113 104.572L117.033 151.959L444.855 83.6063C306.692 -88.7676 37.777 25.5659 63.699 243.2L474.119 293.068Z" fill="#E6E6E6"/>
<path d="M489.206 223.01H53.39V358.785H489.206V223.01Z" fill="#831519"/>
<path d="M174.935 206.453C178.845 209.491 180.275 210.471 181.107 210.347C221.452 222.101 186.084 235.876 166.481 212.494L174.935 206.453Z" fill="#FFB8B8"/>
<path d="M41.8052 330.636V358.233L61.6648 357.13L56.1486 328.429L41.8052 330.636Z" fill="#FFB8B8"/>
<path d="M152.138 330.636V358.233L132.278 357.13L137.795 328.429L152.138 330.636Z" fill="#FFB8B8"/>
<path d="M91.455 188.239L121.245 187.135C189.966 259.214 163.977 242.774 162.068 341.675L125.658 330.637L133.382 262.198C133.385 262.195 135.419 260.839 133.729 260.807C123.158 264.442 115.445 219.443 92.5583 224.666C66.5142 223.42 62.2743 262.073 51.735 262.198L59.4584 330.637L23.0485 341.675C18.9719 232.993 -1.00768 257.545 63.8717 187.135L91.455 188.239Z" fill="#2F2E41"/>
<path d="M47.3217 349.403C47.3217 349.403 42.9084 340.572 37.3918 344.987C31.8751 349.403 18.6351 362.649 18.6351 362.649C18.6351 362.649 -13.3615 376.999 6.49849 385.83C26.3584 394.661 42.9084 373.688 42.9084 373.688C61.8247 369.741 72.7357 367.214 62.7041 346.571C57.0088 349.037 48.949 351.891 47.3217 349.403Z" fill="#2F2E41"/>
<path d="M146.622 349.403C146.622 349.403 151.035 340.572 156.551 344.987C162.068 349.403 175.308 362.649 175.308 362.649C175.308 362.649 207.305 376.999 187.445 385.83C167.585 394.661 151.035 373.688 151.035 373.688C132.118 369.741 121.207 367.214 131.239 346.571C136.934 349.037 144.994 351.891 146.622 349.403Z" fill="#2F2E41"/>
<path d="M121.245 63.5026C119.604 90.9821 82.1183 88.5628 81.5251 63.5023C83.166 36.023 120.652 38.4423 121.245 63.5026Z" fill="#FFB8B8"/>
<path d="M92.5583 77.8527C102.21 107.039 79.4222 91.149 111.315 114.28L123.452 89.9952C123.452 89.9952 114.625 86.6836 115.728 74.5411L92.5583 77.8527Z" fill="#FFB8B8"/>
<path d="M152.138 94.4107L119.248 86.8999C120.173 106.741 99.0094 102.748 95.3166 92.7671L63.8717 110.969C77.07 160.149 73.7251 162.178 56.1484 193.758C49.4404 199.887 59.4723 203.399 68.2057 200.046C74.8668 195.932 78.2496 192.277 85.3872 193.207C119.114 200.233 147.191 201.892 151.634 199.146C153.224 196.87 151.588 94.8059 152.138 94.4107Z" fill="#575A89"/>
<path d="M143.312 96.6184C144.415 96.6184 150.098 93.9449 150.098 93.9449C166.634 93.666 177.73 204.945 178.618 208.108L167.585 215.835L149.931 170.577L143.312 96.6184Z" fill="#575A89"/>
<path d="M66.0784 225.77C66.6425 229.936 67.6025 276.72 84.3537 254.866C86.5514 238.922 79.0795 234.163 77.1117 223.562L66.0784 225.77Z" fill="#FFB8B8"/>
<path d="M70.4917 110.969L67.1111 109.094C58.0478 108.796 60.9042 132.798 57.0697 150.376C53.9371 170.854 54.8291 193.434 58.5043 223.622C58.8257 234.7 78.6578 227.721 81.525 226.874C81.525 226.874 74.905 181.616 78.215 173.889C81.525 166.162 70.4917 110.969 70.4917 110.969Z" fill="#575A89"/>
<path d="M120.377 44.2408C117.313 39.2629 112.517 35.5947 106.912 33.9422L102.795 37.2372L104.396 33.394C103.05 33.1886 101.688 33.1098 100.327 33.1587L96.6229 37.9233L98.1559 33.3219C82.2619 35.0293 72.8583 53.2838 81.1097 66.0596C82.3825 62.1461 83.9274 58.474 85.2002 54.5605C86.2006 54.697 87.2145 54.7019 88.2161 54.5752L89.7647 50.9601L90.1973 54.4223C94.9971 54.0039 102.116 53.0854 106.667 52.2438L106.224 49.5879L108.872 51.795C110.266 51.4738 111.093 51.1827 111.025 50.9601C114.409 56.4185 117.763 59.9049 121.147 65.3633C122.431 57.6641 124.699 51.2642 120.377 44.2408Z" fill="#2F2E41"/>
<path d="M463.121 239.389H366.871V285.068H463.121V239.389Z" fill="white"/>
<path d="M444.92 248.957H385.072V254.434H444.92V248.957Z" fill="#E6E6E6"/>
<path d="M444.92 259.49H385.072V264.967H444.92V259.49Z" fill="#E6E6E6"/>
<path d="M444.92 270.023H385.072V275.5H444.92V270.023Z" fill="#E6E6E6"/>
<path d="M283.053 250.239L279.923 244.814L276.792 239.389L273.661 244.814L270.53 250.239H273.894V265.949H279.689V250.239H283.053Z" fill="white"/>
<path d="M495.194 362.024C509.432 362.024 520.973 350.476 520.973 336.232C520.973 321.988 509.432 310.44 495.194 310.44C480.957 310.44 469.415 321.988 469.415 336.232C469.415 350.476 480.957 362.024 495.194 362.024Z" fill="#3F3D56"/>
<path d="M499.881 347.663C506.191 347.663 511.306 342.545 511.306 336.232C511.306 329.919 506.191 324.802 499.881 324.802C493.571 324.802 488.456 329.919 488.456 336.232C488.456 342.545 493.571 347.663 499.881 347.663Z" fill="#E6E6E6"/>
<path d="M478.936 354.257L535.182 377.704L533.424 383.273L501.053 379.609L446.272 355.283L476.738 358.8L478.936 354.257Z" fill="#3F3D56"/>
<path d="M528.654 376.647L598.607 147.066L615.643 116.799L615.703 116.506C615.758 116.239 617.008 109.913 613.932 105.332C613.156 104.193 612.154 103.226 610.989 102.491C609.824 101.757 608.519 101.27 607.158 101.062C597.756 99.2986 576.722 98.4297 575.832 98.3935L575.664 98.3866L575.497 98.4093C574.922 98.4878 561.48 100.454 558.441 112.197L543.817 138.827L543.759 139.016L477.553 356.78L481.197 357.889L547.345 140.314L562.019 113.595L562.078 113.35C564.227 104.512 574.5 102.445 575.866 102.208C578.015 102.3 597.784 103.18 606.456 104.807C607.317 104.925 608.144 105.22 608.885 105.673C609.627 106.127 610.266 106.73 610.762 107.444C612.658 110.253 612.184 114.389 612.017 115.476L595.086 145.558L595.025 145.756L525.011 375.536L528.654 376.647Z" fill="#3F3D56"/>
<path d="M538.882 160.844L538.205 164.593L588.727 173.722L589.404 169.973L538.882 160.844Z" fill="#3F3D56"/>
<path d="M529.446 192.026L528.685 195.759L578.847 206.002L579.608 202.268L529.446 192.026Z" fill="#3F3D56"/>
<path d="M512.645 247.793L511.598 251.456L560.571 265.476L561.619 261.813L512.645 247.793Z" fill="#3F3D56"/>
<path d="M545.765 355.885L547.154 352.336L499.619 333.714L497.284 308.428L541.651 325.007L556.025 345.814L559.158 343.648L544.104 321.856L492.935 302.734L496.043 336.405L545.765 355.885Z" fill="#3F3D56"/>
<path d="M562.279 386.643C576.516 386.643 588.058 375.096 588.058 360.851C588.058 346.607 576.516 335.06 562.279 335.06C548.041 335.06 536.5 346.607 536.5 360.851C536.5 375.096 548.041 386.643 562.279 386.643Z" fill="#3F3D56"/>
<path d="M569.017 373.454C575.326 373.454 580.442 368.336 580.442 362.024C580.442 355.711 575.326 350.593 569.017 350.593C562.707 350.593 557.592 355.711 557.592 362.024C557.592 368.336 562.707 373.454 569.017 373.454Z" fill="#E6E6E6"/>
</g>
<defs>
<clipPath id="clip0">
<rect width="616" height="388" fill="white"/>
</clipPath>
</defs>
</svg>
