<svg width="645" height="359" viewBox="0 0 645 359" fill="none" xmlns="http://www.w3.org/2000/svg">
<g clip-path="url(#clip0)">
<path opacity="0.15" d="M645 234.624C645.035 253.276 639.941 271.579 630.273 287.532C630.273 307.044 621.174 324.729 606.413 337.618C602.718 340.839 598.74 343.721 594.528 346.229C594.359 346.336 594.184 346.438 594.009 346.539C593.693 346.725 593.378 346.911 593.056 347.103L592.757 347.278C591.41 348.038 590.034 348.771 588.63 349.459C575.693 355.817 561.46 359.096 547.044 359.039H122.443C119.06 359.039 115.707 358.904 112.385 358.634C100.576 357.704 88.9732 355.018 77.9582 350.665C75.8082 349.816 73.6996 348.902 71.6323 347.926C70.6475 347.463 69.6721 346.988 68.7061 346.5C68.1028 346.195 67.4995 345.88 66.9019 345.564C63.2756 343.637 59.7629 341.503 56.3812 339.173C53.2905 337.059 50.3167 334.779 47.4729 332.343C28.2864 315.886 16.4182 293.112 16.4182 267.982C5.66385 251.429 -0.0406624 232.105 3.31216e-05 212.368C3.31216e-05 156.495 44.6764 111.2 99.7946 111.2C101.486 111.2 103.177 111.251 104.869 111.341C105.111 111.341 105.348 111.341 105.591 111.375C114.882 95.5436 127.303 80.9976 142.238 68.1931C182.968 33.3075 242.495 11.3167 308.805 11.3167C364.521 11.3167 415.45 26.8433 454.46 52.4974C469.242 44.1445 485.939 39.7658 502.92 39.7887C558.027 39.7887 602.714 85.0835 602.714 140.957C602.706 144.492 602.518 148.025 602.151 151.541C615.434 160.94 626.261 173.395 633.719 187.855C641.177 202.315 645.046 218.355 645 234.624Z" fill="#CB181E"/>
<path opacity="0.15" d="M513.457 154.404V148.357C518.189 146.436 522.106 142.931 524.537 138.442C526.968 133.953 527.762 128.758 526.784 123.748C525.805 118.737 523.114 114.223 519.172 110.978C515.23 107.732 510.282 105.958 505.175 105.958C500.068 105.958 495.12 107.732 491.178 110.978C487.236 114.223 484.545 118.737 483.566 123.748C482.587 128.758 483.382 133.953 485.813 138.442C488.244 142.931 492.161 146.436 496.892 148.357V154.404C491.376 155.937 486.392 158.966 482.493 163.156C478.363 156.962 472.144 152.458 464.969 150.464V144.412C469.701 142.491 473.618 138.986 476.049 134.497C478.48 130.007 479.275 124.813 478.296 119.803C477.317 114.792 474.626 110.278 470.684 107.033C466.742 103.787 461.794 102.013 456.687 102.013C451.58 102.013 446.632 103.787 442.69 107.033C438.748 110.278 436.057 114.792 435.078 119.803C434.1 124.813 434.894 130.007 437.325 134.497C439.756 138.986 443.673 142.491 448.405 144.412V150.459C443.5 151.82 439.005 154.367 435.319 157.875C431.205 152.355 425.372 148.358 418.737 146.514V140.466C423.469 138.546 427.386 135.041 429.817 130.552C432.248 126.062 433.042 120.868 432.063 115.858C431.085 110.847 428.394 106.333 424.452 103.088C420.51 99.8422 415.562 98.0675 410.455 98.0675C405.348 98.0675 400.399 99.8422 396.457 103.088C392.515 106.333 389.825 110.847 388.846 115.858C387.867 120.868 388.661 126.062 391.092 130.552C393.523 135.041 397.44 138.546 402.172 140.466V146.514C396.529 148.086 391.446 151.224 387.513 155.565C385.76 151.072 382.984 147.049 379.405 143.815C375.826 140.581 371.543 138.224 366.894 136.933V130.886C371.626 128.965 375.543 125.46 377.974 120.971C380.405 116.482 381.2 111.287 380.221 106.277C379.242 101.267 376.551 96.7522 372.609 93.5068C368.667 90.2613 363.719 88.4867 358.612 88.4867C353.505 88.4867 348.557 90.2613 344.615 93.5068C340.673 96.7522 337.982 101.267 337.003 106.277C336.025 111.287 336.819 116.482 339.25 120.971C341.681 125.46 345.598 128.965 350.33 130.886V136.933C344.288 138.614 338.898 142.088 334.872 146.894C330.846 151.7 328.372 157.614 327.777 163.855C324.932 161.881 321.773 160.4 318.435 159.476V153.429C323.167 151.508 327.084 148.004 329.515 143.514C331.946 139.025 332.74 133.83 331.761 128.82C330.783 123.81 328.092 119.295 324.15 116.05C320.208 112.805 315.259 111.03 310.152 111.03C305.046 111.03 300.097 112.805 296.155 116.05C292.213 119.295 289.522 123.81 288.544 128.82C287.565 133.83 288.359 139.025 290.79 143.514C293.221 148.004 297.138 151.508 301.87 153.429V159.476C297.659 160.648 293.742 162.695 290.375 165.482C287.008 168.269 284.266 171.734 282.328 175.651C279.716 173.973 276.865 172.7 273.871 171.875V165.828C278.603 163.907 282.52 160.402 284.951 155.913C287.382 151.424 288.176 146.229 287.198 141.219C286.219 136.208 283.528 131.694 279.586 128.449C275.644 125.203 270.696 123.429 265.589 123.429C260.482 123.429 255.534 125.203 251.592 128.449C247.65 131.694 244.959 136.208 243.98 141.219C243.001 146.229 243.796 151.424 246.227 155.913C248.658 160.402 252.575 163.907 257.306 165.828V171.875C254.482 172.654 251.784 173.834 249.295 175.38C247.344 171.527 244.611 168.123 241.271 165.385C237.93 162.646 234.056 160.634 229.894 159.476V153.429C234.626 151.508 238.543 148.004 240.974 143.514C243.405 139.025 244.199 133.83 243.22 128.82C242.242 123.81 239.551 119.295 235.609 116.05C231.667 112.805 226.719 111.03 221.612 111.03C216.505 111.03 211.556 112.805 207.614 116.05C203.672 119.295 200.982 123.81 200.003 128.82C199.024 133.83 199.818 139.025 202.249 143.514C204.681 148.004 208.597 151.508 213.329 153.429V159.476C208.85 160.722 204.708 162.956 201.207 166.015C197.707 169.074 194.938 172.879 193.105 177.15C189.952 174.73 186.363 172.94 182.534 171.875V165.828C187.266 163.907 191.182 160.402 193.614 155.913C196.045 151.424 196.839 146.229 195.86 141.219C194.881 136.208 192.191 131.694 188.249 128.449C184.307 125.203 179.358 123.429 174.251 123.429C169.144 123.429 164.196 125.203 160.254 128.449C156.312 131.694 153.621 136.208 152.643 141.219C151.664 146.229 152.458 151.424 154.889 155.913C157.32 160.402 161.237 163.907 165.969 165.828V171.875C159.435 173.685 153.674 177.586 149.569 182.981C145.465 188.376 143.242 194.967 143.242 201.744V341.512H205.227V329.113H234.545V341.512H296.565V329.113H341.106V306.57H379.445V316.151H425.677V320.096H474.165V324.041H536.184V184.274C536.184 177.496 533.962 170.905 529.857 165.51C525.752 160.115 519.991 156.214 513.457 154.404Z" fill="#CB181E"/>
<path d="M276.707 95.2449H328.257C340.865 95.2441 353.349 97.7258 364.998 102.548C376.647 107.371 387.231 114.439 396.146 123.351C405.062 132.262 412.134 142.842 416.959 154.485C421.784 166.129 424.268 178.608 424.268 191.211V321.24H180.701V191.211C180.701 165.759 190.816 141.35 208.821 123.353C226.825 105.356 251.245 95.2449 276.707 95.2449Z" fill="#2F2E41"/>
<path opacity="0.2" d="M282.345 100.475H322.618C335.227 100.474 347.711 102.956 359.36 107.778C371.009 112.601 381.593 119.669 390.508 128.581C399.424 137.492 406.496 148.072 411.321 159.715C416.146 171.359 418.63 183.838 418.63 196.441V316.004H186.34V196.441C186.34 170.989 196.454 146.58 214.459 128.583C232.464 110.586 256.883 100.475 282.345 100.475Z" fill="black"/>
<path d="M588.619 339.607V349.447C575.682 355.806 561.448 359.085 547.032 359.028H122.443C119.06 359.028 115.707 358.893 112.384 358.622C100.576 357.693 88.9731 355.007 77.9582 350.653C75.8082 349.804 73.6995 348.891 71.6322 347.914C70.6474 347.452 69.672 346.977 68.706 346.489C68.1027 346.184 67.4995 345.869 66.9018 345.553C63.2758 343.629 59.7632 341.499 56.3811 339.173V312.448C56.3811 308.129 58.0978 303.986 61.1535 300.931C64.2093 297.877 68.3538 296.161 72.6752 296.161H541.332C545.274 296.168 549.08 297.604 552.044 300.202L583.054 327.366C584.801 328.892 586.201 330.774 587.161 332.885C588.12 334.996 588.618 337.288 588.619 339.607Z" fill="#2F2E41"/>
<path d="M272.135 127.262C259.84 128.073 247.592 129.388 235.391 131.207C231.924 131.725 228.406 132.3 225.243 133.833C222.785 135.12 220.519 136.744 218.511 138.657C209.454 146.768 202.161 156.653 197.086 167.699C193.945 174.546 191.69 181.788 188.73 188.692C178.192 213.349 159.079 233.513 147.955 257.911C145.548 263.191 143.518 268.703 142.712 274.446C141.877 280.386 142.825 287.318 147.707 290.79C149.962 292.385 152.703 293.044 155.386 293.608C189.171 301.086 223.348 306.665 257.758 310.318C254.031 306.722 252.785 301.149 253.275 295.997C253.766 290.846 255.79 285.977 257.786 281.203C238.312 276.909 218.886 272.4 199.51 267.678C196.618 266.973 193.145 265.649 192.79 262.696C192.609 261.191 193.353 259.742 194.086 258.418C202.35 243.46 212.259 229.472 223.63 216.713C223.63 232.527 222.846 250.387 222.846 266.207H405.578C403.38 257.181 402.088 247.958 401.721 238.676C400.87 208.378 411.075 178.311 408.425 148.075C408.177 145.285 407.793 142.411 406.333 140.021C403.813 135.896 398.784 134.188 394.16 132.779C376.434 127.391 358.336 121.942 339.809 122.364C334.301 122.494 328.815 123.136 323.34 123.785C306.657 125.751 288.897 126.152 272.135 127.262Z" fill="#CB181E"/>
<path d="M186.554 309.022L199.86 351.589C199.945 351.859 200.114 352.094 200.342 352.261C200.57 352.429 200.845 352.519 201.128 352.519H258.226L244.694 302.924L187.715 307.303C187.517 307.319 187.325 307.38 187.153 307.481C186.981 307.581 186.834 307.719 186.722 307.884C186.611 308.049 186.538 308.237 186.509 308.434C186.48 308.631 186.495 308.832 186.554 309.022Z" fill="#656478"/>
<path d="M284.161 145.567C281.68 146.993 278.788 147.506 275.969 147.996L257.774 151.152C254.234 151.766 250.507 152.465 247.778 154.804C242.196 159.577 243.403 168.364 245.094 175.51L248.477 189.847C251.026 200.623 253.63 211.528 258.857 221.289C267.985 238.326 284.73 250.596 303.144 256.507C309.724 258.621 316.676 259.996 323.543 259.241C336.996 257.764 348.503 248.178 355.596 236.653C362.688 225.127 366.066 211.759 369.161 198.583C372.132 185.97 374.957 173.177 374.765 160.214C374.709 156.179 374.303 151.964 372.149 148.543C367.43 141.03 356.735 140.466 347.967 141.853C346.603 142.073 345.188 142.309 343.874 141.898C339.927 140.669 339.837 135.253 338.146 131.494C334.949 124.404 325.466 123.148 317.713 123.79C309.961 124.433 297.89 125.261 291.135 129.651C284.64 133.85 291.778 141.177 284.161 145.567Z" fill="#FBBEBE"/>
<path opacity="0.1" d="M284.161 145.567C281.68 146.993 278.788 147.506 275.969 147.996L257.774 151.152C254.234 151.766 250.507 152.465 247.778 154.804C242.196 159.577 243.403 168.364 245.094 175.51L248.477 189.847C251.026 200.623 253.63 211.528 258.857 221.289C267.985 238.326 284.73 250.596 303.144 256.507C309.724 258.621 316.676 259.996 323.543 259.241C336.996 257.764 348.503 248.178 355.596 236.653C362.688 225.127 366.066 211.759 369.161 198.583C372.132 185.97 374.957 173.177 374.765 160.214C374.709 156.179 374.303 151.964 372.149 148.543C367.43 141.03 356.735 140.466 347.967 141.853C346.603 142.073 345.188 142.309 343.874 141.898C339.927 140.669 339.837 135.253 338.146 131.494C334.949 124.404 325.466 123.148 317.713 123.79C309.961 124.433 297.89 125.261 291.135 129.651C284.64 133.85 291.778 141.177 284.161 145.567Z" fill="black"/>
<path d="M269.101 161.719C271.853 167.49 273.916 173.611 277.243 179.072C279.887 183.411 283.276 187.238 286.647 191.042C295.381 200.916 304.227 210.869 315.035 218.387C319.511 195.402 330.324 174.126 346.253 156.957C350.91 151.958 356.74 147.032 363.574 147.218C367.814 147.337 371.726 149.439 375.256 151.778C379.203 154.387 382.935 157.413 385.771 161.172C390.253 167.158 392.187 174.738 392.537 182.205C392.886 189.673 391.725 197.123 390.575 204.506L384.655 242.666C384.311 244.875 383.831 247.316 382.027 248.64C381.003 249.289 379.848 249.704 378.644 249.857C357.124 254.045 334.943 251.328 313.017 251.114C288.773 250.883 263.858 253.645 240.894 245.935C239.693 245.529 238.447 245.061 237.635 244.097C237.102 243.371 236.719 242.545 236.508 241.668C231.157 224.355 235.448 205.752 238.622 187.914C241.135 173.779 242.925 159.524 243.984 145.206C244.08 143.916 258.265 146.767 259.849 147.68C264.162 150.233 267.027 157.368 269.101 161.719Z" fill="#CB181E"/>
<g opacity="0.2">
<path opacity="0.2" d="M94.0831 302.524C94.0831 302.783 94.0549 303.037 94.0268 303.285C91.8767 302.435 89.7681 301.522 87.7008 300.546C86.5964 300.4 85.5693 299.9 84.7746 299.12C84.1713 298.815 83.568 298.5 82.9704 298.184C83.1057 297.901 83.2582 297.626 83.4271 297.361C84.5885 295.524 86.3533 294.374 88.2984 294.436C90.2436 294.498 91.9294 295.755 92.9724 297.654C93.7701 299.15 94.1536 300.831 94.0831 302.524Z" fill="#3F3D56"/>
<path opacity="0.2" d="M94.3876 292.875C94.3492 294.566 93.8607 296.215 92.9724 297.654C91.811 299.486 90.0463 300.636 88.1011 300.574L87.7008 300.546C86.5964 300.4 85.5693 299.9 84.7746 299.12C84.2357 298.608 83.781 298.015 83.4271 297.361C82.649 295.861 82.2685 294.187 82.3218 292.497C82.3751 290.808 82.8605 289.161 83.7316 287.713C84.893 285.876 86.6577 284.726 88.6029 284.788C90.548 284.85 92.2338 286.107 93.2769 288.006C94.0746 289.501 94.4581 291.182 94.3876 292.875Z" fill="#3F3D56"/>
<path opacity="0.2" d="M94.6919 283.241C94.8296 278.883 92.2417 275.264 88.9116 275.159C85.5814 275.054 82.7701 278.502 82.6323 282.86C82.4945 287.219 85.0824 290.838 88.4126 290.943C91.7427 291.048 94.5541 287.6 94.6919 283.241Z" fill="#3F3D56"/>
<path opacity="0.2" d="M94.9995 273.593C95.1372 269.234 92.5494 265.616 89.2192 265.511C85.889 265.405 83.0777 268.853 82.9399 273.212C82.8021 277.57 85.3901 281.189 88.7202 281.294C92.0504 281.399 94.8617 277.951 94.9995 273.593Z" fill="#3F3D56"/>
<path opacity="0.2" d="M95.3015 263.944C95.4393 259.586 92.8514 255.967 89.5212 255.862C86.1911 255.757 83.3798 259.205 83.242 263.563C83.1042 267.922 85.6921 271.54 89.0222 271.645C92.3524 271.751 95.1637 268.303 95.3015 263.944Z" fill="#3F3D56"/>
<path opacity="0.2" d="M68.7858 196.999C67.9918 195.925 67.2758 194.794 66.6433 193.618L82.5766 191.516L65.4029 191.11C63.8723 187.481 63.0984 183.578 63.1285 179.64C63.1585 175.702 63.9919 171.811 65.5777 168.206L88.1978 180.853L67.4777 164.599C69.5679 161.22 72.3328 158.307 75.5996 156.044C78.8663 153.781 82.5648 152.215 86.4641 151.445C90.3634 150.675 94.3797 150.717 98.2621 151.568C102.145 152.419 105.81 154.061 109.029 156.391C112.248 158.722 114.952 161.691 116.971 165.113C118.991 168.535 120.283 172.336 120.767 176.28C121.25 180.223 120.915 184.224 119.783 188.032C118.65 191.841 116.744 195.375 114.184 198.414C115.418 200.086 116.467 201.887 117.313 203.785L96.4125 213.839L118.587 207.172C119.984 211.776 120.211 216.656 119.246 221.369C118.281 226.083 116.156 230.481 113.062 234.167C116.282 238.534 118.208 243.719 118.619 249.129C119.029 254.538 117.909 259.954 115.384 264.757C112.86 269.56 109.034 273.555 104.345 276.286C99.6556 279.018 94.2918 280.374 88.8672 280.201C83.4425 280.028 78.1761 278.332 73.6705 275.308C69.1648 272.283 65.6018 268.052 63.3891 263.098C61.1764 258.144 60.4033 252.668 61.1582 247.296C61.9132 241.923 64.1657 236.872 67.6581 232.719C63.8119 227.501 61.8319 221.142 62.0364 214.664C62.2409 208.186 64.618 201.964 68.7858 196.999Z" fill="#CB181E"/>
<path opacity="0.1" d="M119.81 216.482C119.611 222.965 117.227 229.191 113.044 234.15C116.269 238.515 118.199 243.7 118.614 249.11C119.029 254.521 117.911 259.939 115.389 264.744C112.867 269.549 109.043 273.548 104.354 276.282C99.6648 279.016 94.3003 280.376 88.8744 280.204C83.4485 280.033 78.1804 278.339 73.673 275.314C69.1657 272.29 65.6011 268.059 63.3873 263.104C61.1735 258.149 60.3999 252.672 61.1551 247.298C61.9102 241.925 64.1636 236.872 67.6573 232.719C63.9193 227.68 119.911 213.242 119.81 216.482Z" fill="black"/>
</g>
<path opacity="0.1" d="M38.3504 91.7564C45.0857 91.7564 50.5457 86.2987 50.5457 79.5662C50.5457 72.8337 45.0857 67.376 38.3504 67.376C31.6152 67.376 26.1552 72.8337 26.1552 79.5662C26.1552 86.2987 31.6152 91.7564 38.3504 91.7564Z" fill="#CB181E"/>
<path opacity="0.1" d="M89.178 24.3804C95.9133 24.3804 101.373 18.9227 101.373 12.1902C101.373 5.45775 95.9133 0 89.178 0C82.4428 0 76.9828 5.45775 76.9828 12.1902C76.9828 18.9227 82.4428 24.3804 89.178 24.3804Z" fill="#CB181E"/>
<path opacity="0.1" d="M85.0452 78.9067C96.3329 78.9067 105.483 69.76 105.483 58.477C105.483 47.1939 96.3329 38.0472 85.0452 38.0472C73.7575 38.0472 64.6071 47.1939 64.6071 58.477C64.6071 69.76 73.7575 78.9067 85.0452 78.9067Z" fill="#CB181E"/>
<path d="M306.149 151.885C332.306 151.885 353.51 130.689 353.51 104.544C353.51 78.3984 332.306 57.2032 306.149 57.2032C279.993 57.2032 258.789 78.3984 258.789 104.544C258.789 130.689 279.993 151.885 306.149 151.885Z" fill="#FBBEBE"/>
<path d="M286.912 11.6492C274.277 13.2497 260.639 15.3632 251.708 24.4368C246.712 29.509 243.786 36.272 241.379 42.9673C237.646 53.3935 234.867 64.3833 235.741 75.4464C236.519 85.3428 240.184 95.4647 237.218 104.944C235.853 109.306 233.175 113.116 231.095 117.179C227.238 124.726 225.423 133.185 224.758 141.633C224.295 147.444 224.386 153.423 226.297 158.929C228.332 164.791 232.301 169.778 234.816 175.448C238.537 183.823 238.909 193.246 239.197 202.404C239.484 211.562 239.727 220.658 239.941 229.783C240.076 235.52 240.088 241.663 236.913 246.448C248.635 241.753 260.52 236.963 270.55 229.298C280.581 221.633 288.699 210.581 289.996 198.025C291.045 187.847 287.606 177.815 284.64 168.02C277.31 143.786 272.574 117.951 277.908 93.2047C279.831 84.2945 284.505 74.3474 293.475 72.7074C298.95 71.7098 304.413 74.2065 309.346 76.7877C321.006 82.8856 333.026 90.7757 337.368 103.191C341.314 114.418 337.993 126.924 332.857 137.643C327.721 148.362 320.73 158.219 316.738 169.423C310.609 186.612 312.334 206.738 322.517 221.881C332.699 237.025 351.514 246.34 369.606 243.895C368.191 237.785 363.754 232.848 361.375 227.044C357.05 216.499 359.965 204.371 364.617 193.967C369.268 183.563 375.617 173.864 378.526 162.818C380.578 155.041 380.826 146.914 380.815 138.872C380.815 126.214 380.189 113.55 378.971 100.948C377.753 88.3467 375.893 75.5872 371.879 63.4647C368.654 53.7429 363.957 44.3424 356.932 36.8863C349.456 28.9454 339.724 23.5632 330.168 18.2881C324.451 15.1434 318.61 11.9592 312.193 10.7813C307.119 9.85137 301.786 8.52695 296.61 8.44241C293.092 8.39169 289.393 9.15252 286.912 11.6492Z" fill="#434175"/>
<path d="M376.051 72.7519L345.581 66.8427C344.695 66.6707 343.837 67.2497 343.665 68.1358L329.067 143.346C328.895 144.232 329.474 145.09 330.36 145.262L360.83 151.171C361.716 151.343 362.574 150.764 362.746 149.878L377.345 74.6676C377.517 73.7815 376.937 72.9238 376.051 72.7519Z" fill="#656478"/>
<path d="M378.354 73.1985L347.884 67.2893C346.998 67.1174 346.14 67.6964 345.968 68.5825L331.37 143.793C331.198 144.679 331.777 145.537 332.663 145.709L363.133 151.618C364.019 151.79 364.878 151.211 365.05 150.325L379.648 75.1143C379.82 74.2282 379.241 73.3705 378.354 73.1985Z" fill="#3F3D56"/>
<path d="M362.083 87.6671C362.679 84.5962 362.134 81.9074 360.865 81.6614C359.597 81.4153 358.085 83.7053 357.489 86.7762C356.893 89.847 357.438 92.5359 358.707 92.7819C359.975 93.0279 361.487 90.738 362.083 87.6671Z" fill="#CB181E"/>
<path d="M369.296 113.279C367.808 110.647 366.218 107.925 363.709 106.24C362.267 105.356 360.717 104.661 359.097 104.172C353.634 102.261 348.08 100.334 342.301 100.03C341.36 99.9846 340.283 100.03 339.668 100.751C338.405 102.233 340.407 104.251 342.138 105.147L355.906 112.276L343.214 110.935C341.371 110.738 338.743 111.239 338.879 113.088C338.969 114.299 340.3 114.959 341.45 115.342C349.597 118.16 359.012 120.369 363.472 127.741C357.53 127.177 351.457 126.614 345.633 127.921C344.038 128.282 342.386 128.84 341.343 130.097C340.3 131.353 340.181 133.478 341.495 134.476C342.307 135.079 343.401 135.096 344.415 135.039C348.548 134.842 352.788 134.019 356.757 135.197C360.726 136.375 364.25 140.534 362.88 144.434C366.398 144.75 370.559 144.434 373.813 142.918C377.398 141.227 377.314 138.049 377.094 134.216C376.626 126.71 372.899 119.704 369.296 113.279Z" fill="#FBBEBE"/>
<path opacity="0.1" d="M365.739 236.134C362.584 213.956 358.255 191.961 352.771 170.24C349.952 158.969 346.75 147.506 347.556 135.907C359.204 137.389 369.64 138.488 380.375 133.732C380.55 139.824 384.97 145.003 386.577 150.893C387.654 154.838 387.248 159.014 387.671 163.077C388.094 167.141 389.362 171.08 390.451 175.031C395.85 194.608 397.123 215.093 394.189 235.187C384.226 236.371 375.679 237.673 365.739 236.134Z" fill="black"/>
<path d="M364.047 236.134C360.892 213.956 356.563 191.961 351.08 170.24C348.261 158.969 345.058 147.506 345.864 135.907C357.513 137.389 367.949 138.488 378.684 133.732C378.859 139.824 383.279 145.003 384.886 150.893C385.963 154.838 385.557 159.014 385.98 163.077C386.402 167.141 387.671 171.08 388.759 175.031C394.158 194.608 395.431 215.093 392.497 235.187C382.535 236.371 373.987 237.673 364.047 236.134Z" fill="#CB181E"/>
<path d="M201.072 345.908L206.592 209.032C206.68 206.856 207.612 204.8 209.19 203.3C210.769 201.799 212.871 200.973 215.049 200.995L432.973 203.08C434.128 203.092 435.268 203.342 436.321 203.816C437.374 204.289 438.318 204.974 439.094 205.83C439.87 206.685 440.46 207.691 440.828 208.785C441.196 209.879 441.334 211.038 441.233 212.188L429.72 343.316C429.539 345.378 428.601 347.3 427.086 348.711C425.571 350.122 423.587 350.922 421.517 350.958L209.591 354.621C208.45 354.64 207.317 354.427 206.262 353.993C205.207 353.559 204.251 352.915 203.453 352.099C202.656 351.284 202.033 350.314 201.624 349.249C201.214 348.185 201.027 347.048 201.072 345.908Z" fill="#3F3D56"/>
<path d="M322.782 274.463C328.075 274.463 332.367 269.417 332.367 263.191C332.367 256.966 328.075 251.92 322.782 251.92C317.488 251.92 313.197 256.966 313.197 263.191C313.197 269.417 317.488 274.463 322.782 274.463Z" fill="#CB181E"/>
<path d="M527.727 255.448L527.276 259.314L519.947 321.793C500.839 335.11 485.977 322.311 485.847 321.793L476.612 259.021L476.088 255.448H527.727Z" fill="#3F3D56"/>
<path opacity="0.1" d="M527.727 255.448L527.276 259.314C505.75 271.826 482.786 262.087 476.612 259.021L476.088 255.448H527.727Z" fill="black"/>
<path d="M475.011 252.055V257.691C475.011 257.691 503.483 274.238 529.137 257.691V252.055H475.011Z" fill="#CB181E"/>
<path d="M478.32 244.61C478.32 244.61 477.492 248.414 475.011 248.747V253.543H529.137V249.243C529.137 249.243 525.827 248.415 526.318 244.61H478.32Z" fill="#CB181E"/>
<path d="M501.91 252.055C515.393 252.055 526.323 248.906 526.323 245.022C526.323 241.137 515.393 237.988 501.91 237.988C488.427 237.988 477.497 241.137 477.497 245.022C477.497 248.906 488.427 252.055 501.91 252.055Z" fill="#CB181E"/>
<path opacity="0.1" d="M501.91 252.055C515.393 252.055 526.323 248.906 526.323 245.022C526.323 241.137 515.393 237.988 501.91 237.988C488.427 237.988 477.497 241.137 477.497 245.022C477.497 248.906 488.427 252.055 501.91 252.055Z" fill="black"/>
<path opacity="0.1" d="M523.341 244.61C523.341 247.428 514.083 249.739 502.655 249.739H502.046C494.372 249.683 487.742 248.612 484.359 247.011C482.831 246.29 481.963 245.473 481.963 244.61C481.963 243.179 484.331 241.883 488.165 240.953C492.928 239.911 497.796 239.418 502.672 239.482C514.083 239.482 523.341 241.776 523.341 244.61Z" fill="black"/>
<path opacity="0.1" d="M502.046 249.739C494.372 249.683 487.742 248.612 484.359 247.011L488.148 240.93L502.046 249.739Z" fill="black"/>
<path opacity="0.1" d="M480.424 245.005C480.13 244.943 479.741 245.044 479.685 245.337C479.678 245.487 479.717 245.634 479.798 245.76C480.444 246.782 481.383 247.585 482.493 248.065C482.682 248.172 482.891 248.239 483.107 248.262C483.22 248.276 483.334 248.255 483.434 248.203C483.535 248.151 483.617 248.069 483.671 247.969C483.702 247.884 483.715 247.793 483.708 247.703C483.701 247.613 483.675 247.525 483.632 247.445C483.459 247.14 483.22 246.878 482.933 246.679C482.177 246.087 481.405 245.168 480.424 245.005Z" fill="black"/>
<path d="M502.733 305.246C510.777 305.246 517.297 298.728 517.297 290.689C517.297 282.649 510.777 276.131 502.733 276.131C494.69 276.131 488.17 282.649 488.17 290.689C488.17 298.728 494.69 305.246 502.733 305.246Z" fill="#CB181E"/>
<path d="M106.183 290.722H113.01C116.749 290.722 120.334 292.207 122.977 294.849C125.621 297.491 127.106 301.075 127.106 304.812V325.749H92.0873V304.812C92.0873 301.075 93.5723 297.491 96.2157 294.849C98.8591 292.207 102.444 290.722 106.183 290.722Z" fill="#3F3D56"/>
<path opacity="0.1" d="M106.183 290.722H113.01C116.749 290.722 120.334 292.207 122.977 294.849C125.621 297.491 127.106 301.075 127.106 304.812V325.749H92.0873V304.812C92.0873 301.075 93.5723 297.491 96.2157 294.849C98.8591 292.207 102.444 290.722 106.183 290.722Z" fill="black"/>
<path d="M108.195 298.426C109.743 298.426 110.998 297.172 110.998 295.625C110.998 294.078 109.743 292.824 108.195 292.824C106.648 292.824 105.393 294.078 105.393 295.625C105.393 297.172 106.648 298.426 108.195 298.426Z" fill="#3F3D56"/>
<path d="M108.195 294.927C109.743 294.927 110.998 293.673 110.998 292.126C110.998 290.579 109.743 289.325 108.195 289.325C106.648 289.325 105.393 290.579 105.393 292.126C105.393 293.673 106.648 294.927 108.195 294.927Z" fill="#3F3D56"/>
<path d="M108.195 291.421C109.743 291.421 110.998 290.167 110.998 288.62C110.998 287.073 109.743 285.819 108.195 285.819C106.648 285.819 105.393 287.073 105.393 288.62C105.393 290.167 106.648 291.421 108.195 291.421Z" fill="#3F3D56"/>
<path d="M108.195 287.921C109.743 287.921 110.998 286.667 110.998 285.12C110.998 283.573 109.743 282.319 108.195 282.319C106.648 282.319 105.393 283.573 105.393 285.12C105.393 286.667 106.648 287.921 108.195 287.921Z" fill="#3F3D56"/>
<path d="M108.195 284.422C109.743 284.422 110.998 283.168 110.998 281.621C110.998 280.074 109.743 278.82 108.195 278.82C106.648 278.82 105.393 280.074 105.393 281.621C105.393 283.168 106.648 284.422 108.195 284.422Z" fill="#3F3D56"/>
<path d="M108.195 280.922C109.743 280.922 110.998 279.668 110.998 278.121C110.998 276.574 109.743 275.32 108.195 275.32C106.648 275.32 105.393 276.574 105.393 278.121C105.393 279.668 106.648 280.922 108.195 280.922Z" fill="#3F3D56"/>
<path d="M108.195 277.422C109.743 277.422 110.998 276.168 110.998 274.621C110.998 273.074 109.743 271.82 108.195 271.82C106.648 271.82 105.393 273.074 105.393 274.621C105.393 276.168 106.648 277.422 108.195 277.422Z" fill="#3F3D56"/>
<path d="M112.401 278.82C113.949 278.82 115.204 277.565 115.204 276.019C115.204 274.472 113.949 273.218 112.401 273.218C110.854 273.218 109.599 274.472 109.599 276.019C109.599 277.565 110.854 278.82 112.401 278.82Z" fill="#3F3D56"/>
<path d="M115.204 277.422C116.751 277.422 118.006 276.168 118.006 274.621C118.006 273.074 116.751 271.82 115.204 271.82C113.656 271.82 112.401 273.074 112.401 274.621C112.401 276.168 113.656 277.422 115.204 277.422Z" fill="#3F3D56"/>
<path d="M118.006 276.019C119.553 276.019 120.808 274.765 120.808 273.218C120.808 271.671 119.553 270.417 118.006 270.417C116.458 270.417 115.203 271.671 115.203 273.218C115.203 274.765 116.458 276.019 118.006 276.019Z" fill="#3F3D56"/>
<path d="M108.195 273.922C109.743 273.922 110.998 272.668 110.998 271.121C110.998 269.574 109.743 268.32 108.195 268.32C106.648 268.32 105.393 269.574 105.393 271.121C105.393 272.668 106.648 273.922 108.195 273.922Z" fill="#3F3D56"/>
<path d="M108.195 270.422C109.743 270.422 110.998 269.168 110.998 267.621C110.998 266.074 109.743 264.82 108.195 264.82C106.648 264.82 105.393 266.074 105.393 267.621C105.393 269.168 106.648 270.422 108.195 270.422Z" fill="#3F3D56"/>
<path d="M108.195 266.917C109.743 266.917 110.998 265.663 110.998 264.116C110.998 262.569 109.743 261.315 108.195 261.315C106.648 261.315 105.393 262.569 105.393 264.116C105.393 265.663 106.648 266.917 108.195 266.917Z" fill="#3F3D56"/>
<path d="M108.195 263.417C109.743 263.417 110.998 262.163 110.998 260.616C110.998 259.069 109.743 257.815 108.195 257.815C106.648 257.815 105.393 259.069 105.393 260.616C105.393 262.163 106.648 263.417 108.195 263.417Z" fill="#3F3D56"/>
<path d="M119.81 251.587C119.116 251.689 118.417 251.762 117.718 251.807C118.37 251.237 118.976 250.615 119.528 249.947C119.138 248.771 118.567 247.663 117.836 246.662C117.142 247.052 116.374 247.294 115.581 247.372C114.888 247.473 114.189 247.547 113.49 247.597C114.409 246.848 115.266 245.721 116.168 244.779C114.083 242.89 111.395 241.801 108.582 241.706C105.77 241.61 103.015 242.516 100.807 244.26C98.5991 246.004 97.0818 248.475 96.5249 251.232C95.9679 253.99 96.4074 256.855 97.7653 259.319C99.1231 261.783 101.311 263.686 103.94 264.689C106.57 265.692 109.469 265.731 112.124 264.798C114.779 263.865 117.017 262.021 118.44 259.593C119.863 257.166 120.378 254.314 119.894 251.542L119.81 251.587Z" fill="#991F23"/>
<path d="M129.175 265.502C128.46 265.941 127.653 266.209 126.818 266.286C126.125 266.387 125.425 266.466 124.726 266.511C125.469 265.845 126.163 265.125 126.801 264.358C125.112 263.918 123.319 264.123 121.773 264.934C120.227 265.745 119.039 267.103 118.441 268.743C117.844 270.383 117.88 272.187 118.542 273.801C119.204 275.416 120.445 276.726 122.022 277.475C123.599 278.224 125.399 278.358 127.069 277.851C128.74 277.344 130.161 276.232 131.056 274.733C131.95 273.234 132.253 271.456 131.905 269.746C131.557 268.035 130.583 266.516 129.175 265.485V265.502Z" fill="#991F23"/>
<path d="M103.995 278.82C105.543 278.82 106.797 277.565 106.797 276.019C106.797 274.472 105.543 273.218 103.995 273.218C102.447 273.218 101.193 274.472 101.193 276.019C101.193 277.565 102.447 278.82 103.995 278.82Z" fill="#3F3D56"/>
<path d="M101.193 277.422C102.74 277.422 103.995 276.168 103.995 274.621C103.995 273.074 102.74 271.82 101.193 271.82C99.6452 271.82 98.3907 273.074 98.3907 274.621C98.3907 276.168 99.6452 277.422 101.193 277.422Z" fill="#3F3D56"/>
<path d="M98.3906 276.019C99.9382 276.019 101.193 274.765 101.193 273.218C101.193 271.671 99.9382 270.417 98.3906 270.417C96.8431 270.417 95.5885 271.671 95.5885 273.218C95.5885 274.765 96.8431 276.019 98.3906 276.019Z" fill="#3F3D56"/>
<path d="M87.2216 265.502C87.9362 265.942 88.7428 266.21 89.5783 266.286C90.2718 266.387 90.971 266.466 91.6701 266.511C90.9256 265.846 90.2321 265.127 89.5953 264.358C91.2847 263.918 93.0777 264.123 94.6237 264.934C96.1698 265.745 97.3576 267.103 97.9551 268.743C98.5526 270.383 98.5167 272.187 97.8545 273.801C97.1924 275.416 95.9514 276.726 94.3744 277.475C92.7974 278.224 90.9976 278.358 89.327 277.851C87.6564 277.344 86.235 276.232 85.3408 274.733C84.4465 273.234 84.1437 271.456 84.4916 269.746C84.8394 268.035 85.8128 266.516 87.2216 265.485V265.502Z" fill="#991F23"/>
<path d="M106.183 292.824H113.01C116.749 292.824 120.334 294.309 122.977 296.951C125.621 299.593 127.106 303.177 127.106 306.914V325.439C127.106 326.073 126.854 326.68 126.405 327.128C125.957 327.577 125.349 327.828 124.715 327.828H94.4778C93.8438 327.828 93.2358 327.577 92.7875 327.128C92.3391 326.68 92.0873 326.073 92.0873 325.439V306.914C92.0873 303.177 93.5723 299.593 96.2157 296.951C98.8591 294.309 102.444 292.824 106.183 292.824Z" fill="#3F3D56"/>
<g opacity="0.1">
<path opacity="0.1" d="M120.024 252.354C119.74 252.657 119.439 252.943 119.122 253.211C119.443 253.211 119.759 253.16 120.08 253.126C120.092 252.867 120.052 252.608 120.024 252.354Z" fill="black"/>
<path opacity="0.1" d="M114.916 249.006C115.621 248.961 116.314 248.888 117.013 248.786C117.641 248.707 118.254 248.54 118.834 248.29C118.551 247.726 118.223 247.185 117.853 246.673C117.503 246.886 117.123 247.048 116.726 247.152C116.173 247.817 115.568 248.437 114.916 249.006Z" fill="black"/>
<path opacity="0.1" d="M97.6915 255.02C97.6873 252.883 98.2597 250.785 99.3483 248.946C100.437 247.107 102.002 245.596 103.877 244.571C105.753 243.546 107.871 243.046 110.007 243.124C112.143 243.201 114.219 243.853 116.015 245.01L116.196 244.819C115.023 243.776 113.656 242.975 112.172 242.463C110.689 241.951 109.118 241.737 107.552 241.834C105.985 241.931 104.453 242.337 103.045 243.029C101.636 243.72 100.378 244.683 99.3429 245.863C98.3081 247.043 97.5171 248.416 97.0155 249.902C96.5139 251.389 96.3115 252.96 96.42 254.525C96.5286 256.09 96.9459 257.619 97.6479 259.022C98.35 260.425 99.3229 261.675 100.511 262.701C98.6872 260.557 97.6877 257.834 97.6915 255.02Z" fill="black"/>
</g>
<g opacity="0.1">
<path opacity="0.1" d="M124.726 267.909C125.425 267.864 126.125 267.79 126.818 267.689C127.654 267.61 128.46 267.34 129.175 266.9C129.966 267.483 130.626 268.225 131.112 269.08C131.598 269.934 131.898 270.881 131.994 271.859C132.021 271.614 132.034 271.368 132.033 271.121C132.039 270.026 131.786 268.946 131.297 267.967C130.807 266.988 130.093 266.138 129.214 265.485C128.499 265.924 127.693 266.192 126.858 266.269L126.294 266.342C125.813 266.904 125.289 267.428 124.726 267.909Z" fill="black"/>
<path opacity="0.1" d="M125.008 265.519C125.242 265.522 125.476 265.539 125.707 265.57C126.074 265.181 126.435 264.764 126.801 264.358C125.765 264.081 124.678 264.047 123.626 264.257C122.574 264.467 121.585 264.917 120.734 265.571C119.884 266.224 119.195 267.065 118.722 268.028C118.249 268.99 118.004 270.049 118.006 271.121C118.006 271.358 118.006 271.589 118.04 271.82C118.213 270.093 119.022 268.492 120.31 267.328C121.597 266.163 123.272 265.519 125.008 265.519Z" fill="black"/>
</g>
<g opacity="0.1">
<path opacity="0.1" d="M91.67 267.909C90.9709 267.864 90.2718 267.79 89.5783 267.689C88.7423 267.611 87.9357 267.341 87.2216 266.9C86.43 267.483 85.7699 268.225 85.2842 269.08C84.7985 269.934 84.4981 270.881 84.4025 271.859C84.3752 271.614 84.362 271.368 84.3631 271.121C84.3577 270.026 84.6101 268.946 85.0999 267.967C85.5896 266.988 86.3029 266.138 87.1821 265.485C87.8967 265.925 88.7033 266.193 89.5388 266.269L90.1026 266.342C90.5807 266.907 91.105 267.431 91.67 267.909Z" fill="black"/>
<path opacity="0.1" d="M91.3881 265.519C91.1523 265.522 90.917 265.539 90.6833 265.57C90.3225 265.181 89.9616 264.764 89.5952 264.358C90.6317 264.081 91.718 264.047 92.7701 264.257C93.8221 264.467 94.8116 264.917 95.662 265.571C96.5124 266.224 97.2008 267.065 97.674 268.028C98.1471 268.99 98.3923 270.049 98.3906 271.121C98.3906 271.358 98.3906 271.589 98.3568 271.82C98.1834 270.093 97.3744 268.492 96.0867 267.328C94.799 266.163 93.1244 265.519 91.3881 265.519Z" fill="black"/>
</g>
</g>
<defs>
<clipPath id="clip0">
<rect width="645" height="359" fill="white"/>
</clipPath>
</defs>
</svg>
