<svg width="258" height="31" viewBox="0 0 258 31" fill="none" xmlns="http://www.w3.org/2000/svg">
<g clip-path="url(#clip0)">
<path fill-rule="evenodd" clip-rule="evenodd" d="M217.518 7.92681C217.833 5.4886 218.141 3.13836 218.459 0.703676C219.883 0.246293 221.38 -0.0879481 222.916 0.351843C223.57 0.509329 224.151 0.887502 224.562 1.42335C224.972 1.9592 225.188 2.62036 225.173 3.29668C225.177 4.94937 225.025 6.5987 224.718 8.22235C224.494 9.55931 224.403 10.9209 224.214 12.2684C224.036 13.5597 223.787 14.8403 223.609 16.1386C223.43 17.4368 223.29 18.8371 223.109 20.1811C222.986 21.0889 222.811 21.9825 222.685 22.8938C222.559 23.805 222.447 24.755 222.335 25.7084C222.227 26.5634 222.111 27.4148 221.985 28.2733C221.947 28.5548 221.881 28.8398 221.86 29.1177C221.8 30.0114 221.646 30.1732 220.775 30.1732C220.093 30.1191 219.408 30.1285 218.728 30.2013C217.777 30.3878 216.864 30.1591 215.929 30.1521C215.443 30.1521 214.88 30.1908 214.53 29.663C214.467 29.5751 214.18 29.5751 214.037 29.6103C212.987 29.8566 211.969 30.1345 210.93 30.3667C210.495 30.4503 210.054 30.4916 209.611 30.4899C208.799 30.4899 207.981 30.4899 207.162 30.4899C205.174 30.5357 203.22 29.9658 201.564 28.8573C200.734 28.278 200.163 27.3934 199.976 26.3945C199.95 25.9518 199.987 25.5076 200.084 25.0751C200.203 24.1709 200.315 23.2597 200.434 22.352C200.578 21.2965 200.725 20.241 200.872 19.1855L201.221 16.6241C201.312 15.9556 201.379 15.2766 201.498 14.6116C201.729 13.3274 201.676 12.0045 202.229 10.7802C202.522 10.1584 202.97 9.6237 203.53 9.22859C204.939 8.17591 206.573 7.47087 208.303 7.17036C209.733 6.91705 211.171 7.01204 212.609 6.98741C214.127 6.95338 215.632 7.26742 217.011 7.9057C217.175 7.94893 217.344 7.96905 217.514 7.96551L217.518 7.92681ZM211.014 26.6127C211.847 26.5317 212.658 26.4965 213.463 26.3699C213.886 26.3269 214.283 26.1435 214.591 25.8485C214.899 25.5535 215.1 25.1638 215.163 24.7409C215.261 24.2624 215.307 23.7593 215.37 23.2667C215.496 22.3379 215.608 21.402 215.72 20.4697C215.831 19.5373 216.01 18.6155 216.139 17.6867C216.269 16.7578 216.405 15.8747 216.517 14.967C216.615 14.1402 216.703 13.3063 216.762 12.4725C216.783 12.2659 216.732 12.0584 216.619 11.8849C216.319 11.4437 215.872 11.1243 215.359 10.9842C214.258 10.7466 213.126 10.6908 212.008 10.8189C211.45 10.8831 210.905 11.0314 210.391 11.2587C210.007 11.397 209.674 11.6506 209.437 11.9854C209.201 12.3201 209.072 12.7198 209.069 13.1304C209.027 13.6511 208.957 14.1859 208.88 14.6926C208.687 16.0084 208.484 17.3207 208.285 18.6366C208.142 19.5654 207.988 20.4943 207.851 21.4231C207.676 22.5595 207.501 23.6924 207.344 24.8359C207.316 25.0608 207.356 25.289 207.458 25.4909C207.56 25.6929 207.72 25.8593 207.918 25.9688C208.153 26.1404 208.421 26.2603 208.705 26.3206C209.475 26.4297 210.258 26.486 211.017 26.5669" fill="#F5F5F5"/>
<path fill-rule="evenodd" clip-rule="evenodd" d="M247.91 29.554C247.245 29.7475 246.479 29.9832 245.706 30.1838C245.261 30.3244 244.8 30.4094 244.334 30.4371C242.501 30.4371 240.668 30.4371 238.835 30.3667C237.609 30.2757 236.422 29.8973 235.368 29.2619C234.318 28.692 233.433 27.9707 233.184 26.7252C233.093 26.3204 233.07 25.9027 233.118 25.4903C233.279 24.2237 233.489 22.9677 233.692 21.7011C233.776 21.082 233.893 20.4678 234.042 19.861C234.356 18.8977 234.986 18.0703 235.829 17.5142C237.229 16.4587 238.87 15.938 240.556 15.5932C241.328 15.4619 242.11 15.4031 242.893 15.4173C244.523 15.3892 246.147 15.4173 247.791 15.4173C248.214 15.4284 248.634 15.3452 249.021 15.1737C249.408 15.0021 249.753 14.7465 250.03 14.4252C250.296 14.1197 250.479 13.7502 250.562 13.3525C250.644 12.9549 250.622 12.5426 250.499 12.1558C250.272 11.3994 249.607 11.0124 248.809 10.9455C247.957 10.8491 247.099 10.8032 246.241 10.8083C245.568 10.8682 244.905 11.0076 244.264 11.2235C243.939 11.3348 243.645 11.5244 243.408 11.7758C243.172 12.0271 243 12.3327 242.907 12.666H235.805C235.536 11.5683 235.987 10.7204 236.659 9.9428C237.563 8.94364 238.7 8.1867 239.968 7.74033C241.587 7.14437 243.304 6.86493 245.027 6.91704C247.364 6.93463 249.701 6.91704 252.024 6.98037C252.62 6.99955 253.209 7.10745 253.774 7.30054C255.173 7.76496 256.513 8.30326 257.409 9.60504C257.847 10.2018 258.043 10.9439 257.958 11.6809C257.853 12.5886 257.685 13.4893 257.552 14.3935C257.419 15.2977 257.307 16.2617 257.181 17.187C257.003 18.6471 256.796 20.0545 256.604 21.4618C256.475 22.3907 256.373 23.33 256.254 24.2765C256.135 25.2229 256.009 26.0919 255.887 26.9997C255.799 27.6154 255.708 28.2346 255.624 28.8573C255.624 28.984 255.624 29.1177 255.593 29.2479C255.421 30.0817 255.369 30.0958 254.515 30.1591C253.662 30.2225 252.805 30.335 251.951 30.423C250.962 30.5597 249.957 30.5084 248.988 30.2717C248.638 30.1697 248.326 29.8284 247.91 29.5399V29.554ZM249.659 18.4396C249.455 18.4728 249.252 18.5198 249.054 18.5803C247.606 19.1819 246.084 19.3192 244.541 19.3579C244.229 19.3579 243.911 19.3579 243.596 19.3579C242.025 19.488 240.822 20.2093 240.773 22.1725C240.74 22.8241 240.651 23.4715 240.507 24.1076C240.283 25.2511 240.608 25.9512 241.627 26.2784C242.049 26.4081 242.487 26.4791 242.928 26.4895C243.901 26.5177 244.873 26.5141 245.849 26.4895C246.316 26.5044 246.783 26.445 247.231 26.3136C247.878 26.0743 248.631 25.8738 248.82 25.0505C248.907 24.6705 248.932 24.2765 248.988 23.8895C249.134 22.8832 249.288 21.877 249.418 20.8672C249.512 20.0932 249.575 19.3192 249.659 18.4361" fill="#F5F5F5"/>
<path fill-rule="evenodd" clip-rule="evenodd" d="M160.988 12.666H153.938C153.641 11.6105 154.064 10.752 154.718 10.0026C156.013 8.5249 157.706 7.75791 159.571 7.28293C160.769 7.01217 161.996 6.89397 163.223 6.9311C165.515 6.9311 167.799 6.90647 170.084 6.99091C171.849 7.04574 173.542 7.70765 174.881 8.86618C175.385 9.25335 175.761 9.78599 175.957 10.3932C176.153 11.0003 176.161 11.6532 175.979 12.2649C175.817 13.1365 175.7 14.0161 175.629 14.9001C175.489 15.9134 175.321 16.9126 175.185 17.9224C175.055 18.8547 174.961 19.7906 174.835 20.737C174.709 21.6835 174.583 22.6017 174.45 23.5517C174.317 24.5016 174.188 25.5184 174.044 26.5C173.901 27.4817 173.712 28.5583 173.593 29.5891C173.594 29.6681 173.579 29.7464 173.549 29.8192C173.518 29.892 173.473 29.9578 173.416 30.0123C173.36 30.0668 173.292 30.1089 173.218 30.136C173.145 30.163 173.066 30.1745 172.988 30.1697C171.609 30.2787 170.234 30.4124 168.852 30.4758C168.281 30.5028 167.709 30.4423 167.156 30.2963C166.785 30.1441 166.439 29.9365 166.131 29.6806L166.162 29.5047C165.749 29.6314 165.326 29.7439 164.91 29.8812C163.701 30.2953 162.432 30.5011 161.156 30.4898C160.207 30.4898 159.263 30.4898 158.311 30.4898C156.475 30.5363 154.665 30.0475 153.098 29.0825C151.951 28.3542 151.08 27.3585 151.181 25.8667C151.23 25.0646 151.398 24.2659 151.531 23.4672C151.664 22.6158 151.881 21.7749 151.947 20.92C152.066 19.5654 152.762 18.5627 153.746 17.7183C155.145 16.501 156.873 15.9591 158.644 15.6073C159.391 15.4806 160.149 15.4206 160.907 15.4279C162.513 15.3997 164.115 15.4279 165.718 15.4103C166.135 15.4078 166.55 15.3498 166.953 15.2379C167.56 15.0549 168.076 14.6459 168.394 14.0943C168.713 13.5427 168.81 12.8898 168.667 12.2684C168.536 11.9377 168.324 11.6461 168.049 11.4213C167.775 11.1966 167.448 11.0461 167.1 10.9842C166.242 10.9033 165.378 10.8294 164.525 10.8294C163.977 10.8443 163.432 10.921 162.901 11.0581C162.47 11.134 162.067 11.3225 161.731 11.6047C161.395 11.8869 161.139 12.2529 160.988 12.666ZM167.771 18.3833C167.18 18.5873 166.771 18.7632 166.347 18.8723C164.878 19.2382 163.366 19.4038 161.852 19.3649C161.46 19.3447 161.069 19.4045 160.701 19.5408C159.84 19.8926 159.084 20.3993 158.969 21.4794C158.853 22.5595 158.672 23.5482 158.588 24.5896C158.507 25.5149 158.742 25.8773 159.609 26.2186C160.047 26.3796 160.508 26.4699 160.974 26.486C161.943 26.5212 162.919 26.5106 163.888 26.486C164.36 26.4956 164.831 26.4387 165.287 26.3171C165.987 26.106 166.75 25.8773 166.935 25.0294C167.1 24.2941 167.166 23.5411 167.285 22.7917C167.38 22.1444 167.478 21.5005 167.554 20.8531C167.642 20.0791 167.708 19.3015 167.799 18.3903" fill="#F5F5F5"/>
<path fill-rule="evenodd" clip-rule="evenodd" d="M128.654 30.4617C127.52 30.4617 126.39 30.4617 125.26 30.4617C123.555 30.4763 121.873 30.0679 120.362 29.2725C119.539 28.8594 118.857 28.209 118.403 27.4043C118.177 26.9888 118.067 26.5195 118.084 26.0462C118.13 25.135 118.315 24.2343 118.434 23.3266C118.553 22.4188 118.676 21.4583 118.784 20.5119C118.928 19.4564 119.082 18.4009 119.225 17.3454C119.347 16.4377 119.459 15.5299 119.575 14.6187C119.69 13.7074 119.75 12.7434 119.925 11.804C120.044 11.2072 120.283 10.6412 120.628 10.1409C120.973 9.6405 121.416 9.21631 121.929 8.89437C122.847 8.23911 123.873 7.75196 124.959 7.45538C125.963 7.15735 127.002 6.99293 128.048 6.96633C130.148 6.99799 132.247 6.92059 134.346 6.93818C135.34 6.93724 136.333 7.00897 137.316 7.1528C138.801 7.35686 140.186 8.0195 141.28 9.04918C141.706 9.44396 142.023 9.94338 142.2 10.4985C142.377 11.0536 142.407 11.6453 142.288 12.2157C142.113 13.1903 141.997 14.1754 141.85 15.157C141.703 16.1386 141.549 17.0147 141.42 17.9435C141.291 18.8724 141.189 19.8117 141.07 20.7582C140.951 21.7046 140.797 22.6686 140.654 23.6256C140.531 24.4278 140.447 25.2335 140.279 26.0251C140.065 26.8681 139.571 27.6125 138.88 28.1361C137.612 29.2008 136.086 29.9074 134.458 30.1838C133.746 30.3389 133.023 30.4331 132.296 30.4652C131.092 30.5145 129.878 30.4652 128.671 30.4652L128.654 30.4617ZM129.133 26.574C130.074 26.4895 131.005 26.5423 131.932 26.2221C132.333 26.1039 132.687 25.8614 132.943 25.5292C133.2 25.1969 133.345 24.7918 133.359 24.3715C133.45 23.4673 133.594 22.5631 133.709 21.6554C133.825 20.7476 133.992 19.7484 134.132 18.795C134.272 17.8415 134.419 16.9373 134.545 16.0049C134.682 14.9494 134.783 13.8939 134.927 12.8138C135.039 11.994 134.577 11.5507 133.954 11.1918C133.365 10.9094 132.716 10.7776 132.065 10.8083C131.15 10.8085 130.235 10.8579 129.325 10.9561C128.75 11.0195 128.217 11.2897 127.824 11.717C127.431 12.1444 127.205 12.7001 127.188 13.2817C127.17 13.4906 127.142 13.6985 127.104 13.9045C126.922 15.0409 126.729 16.1703 126.565 17.3067C126.38 18.6014 126.215 19.9032 126.044 21.1769C125.865 22.3907 125.641 23.5975 125.459 24.8078C125.428 25.0329 125.465 25.2623 125.564 25.4666C125.663 25.6709 125.82 25.8408 126.016 25.9548C126.275 26.1343 126.57 26.2544 126.88 26.3066C127.625 26.4227 128.377 26.479 129.129 26.5529" fill="#F5F5F5"/>
<path fill-rule="evenodd" clip-rule="evenodd" d="M182.854 29.941H175.472C175.454 29.6669 175.454 29.3919 175.472 29.1177C176.512 21.87 177.562 14.6222 178.62 7.37445C180.438 7.01475 182.292 6.88122 184.141 6.97688C184.416 6.97851 184.688 7.03643 184.94 7.14713C185.192 7.25782 185.419 7.41896 185.607 7.62073C185.702 7.75472 185.843 7.84865 186.002 7.88438C186.162 7.92012 186.329 7.89513 186.471 7.81424C187.231 7.54977 188.004 7.32662 188.787 7.14575C190.155 6.83966 191.548 6.93466 192.937 6.94873C193.928 6.94454 194.916 7.0627 195.879 7.30056C197.408 7.70517 198.769 8.4018 199.686 9.73173C199.926 10.0587 200.092 10.4353 200.171 10.8344C200.249 11.2335 200.239 11.6452 200.14 12.0398C199.962 12.9876 199.838 13.945 199.769 14.9072C199.654 15.8114 199.528 16.7191 199.42 17.6269L199 20.6491C198.874 21.5322 198.755 22.4083 198.65 23.2914C198.503 24.3469 198.37 25.4024 198.216 26.4579C198.045 27.6435 197.866 28.8222 197.681 30.0993C196.873 30.3048 196.056 30.4692 195.232 30.5919C194.21 30.6944 193.185 30.4464 192.321 29.8882C191.373 29.3007 191.006 28.4457 190.946 27.3867C190.926 26.4195 191.012 25.453 191.205 24.5052C191.359 23.6256 191.453 22.746 191.579 21.8664C191.719 20.8848 191.873 19.9032 192.01 18.9216C192.139 18.0174 192.244 17.1061 192.359 16.1984C192.475 15.2907 192.625 14.3443 192.779 13.4189C192.972 12.2649 192.779 11.3783 191.401 11.0054C189.884 10.5718 188.273 10.6048 186.776 11.1004C185.499 11.5401 185.184 11.8814 185.086 13.3275C185.023 14.2387 184.838 15.1394 184.736 16.0471C184.593 17.0252 184.46 18.0104 184.323 18.992C184.187 19.9736 184.043 21.0115 183.907 22.0177C183.781 22.9255 183.662 23.8332 183.54 24.7374C183.389 25.8246 183.221 26.9117 183.081 27.9919C182.997 28.6216 182.948 29.2444 182.882 29.9093" fill="#F5F5F5"/>
<path fill-rule="evenodd" clip-rule="evenodd" d="M20.8621 26.1623C20.7256 27.4887 20.5997 28.6814 20.4772 29.941C20.2428 29.9586 20.0189 29.9903 19.7775 29.9903C14.8795 29.9903 9.99897 30.036 5.10794 29.9621C3.63853 29.9375 2.12364 29.6595 0.976106 28.5548C0.58336 28.224 0.290153 27.7897 0.129458 27.3005C-0.0312382 26.8113 -0.0530505 26.2868 0.0664732 25.7859C0.279887 24.85 0.318372 23.8719 0.458315 22.9149C0.654236 21.6166 0.860653 20.3043 1.04958 18.999C1.18602 18.042 1.29098 17.078 1.42043 16.1245C1.54988 15.1711 1.71431 14.1085 1.85425 13.1023C1.9802 12.2192 2.08516 11.3431 2.20411 10.46C2.34755 9.47841 2.50149 8.50031 2.64144 7.52573C2.76389 6.61801 2.87584 5.70676 2.99129 4.79903C3.14873 3.5465 3.30967 2.30102 3.4671 1.05553C3.51608 0.675548 3.77148 0.598145 4.08635 0.601663C4.84904 0.601663 5.61174 0.622773 6.37093 0.622773L20.5577 0.598145C21.8697 0.598145 23.1817 0.598145 24.4621 0.598145C24.8365 1.81197 24.5986 2.35731 23.6435 3.06098C22.5939 3.84908 21.3869 4.11647 20.1449 4.26424C17.241 4.63719 14.3232 4.34165 11.3984 4.42609C11.1885 4.42609 10.9821 4.42609 10.7687 4.42609C10.4188 4.42609 10.2684 4.63719 10.2264 4.97495C10.02 6.68485 9.81004 8.39828 9.58264 10.1082C9.50567 10.7028 9.38671 11.2868 9.26077 11.9975C12.8993 12.2403 16.5028 11.9061 20.1519 12.0996C19.9699 13.4013 19.802 14.6363 19.6166 15.9697C17.8498 16.0788 16.069 16.0049 14.2952 16.019C12.5215 16.0331 10.7232 16.019 8.9214 16.019C8.81105 16.209 8.72523 16.4123 8.66601 16.6241C8.27766 19.7801 7.76687 22.9149 7.34704 26.1623H20.8621Z" fill="#F5F5F5"/>
<path fill-rule="evenodd" clip-rule="evenodd" d="M23.2551 22.5596H30.4377C30.3607 23.1507 30.3223 23.7136 30.2103 24.2554C29.9899 25.3109 30.3013 25.9301 31.2984 26.282L31.4488 26.3277C33.0697 26.6162 34.7293 26.6067 36.3468 26.2996C36.7545 26.2479 37.1329 26.0593 37.4206 25.7642C37.7083 25.4692 37.8884 25.085 37.9317 24.6741C38.0716 23.6186 38.1871 22.5631 38.334 21.5076C38.3671 21.2699 38.3225 21.0279 38.2071 20.8179C38.0916 20.6079 37.9115 20.4413 37.6938 20.343C37.1835 20.0194 36.5932 19.8463 35.99 19.8434C34.4646 19.8645 32.9427 19.8821 31.4173 19.8434C29.716 19.8528 28.0397 19.4305 26.5438 18.6155C25.4942 18.0069 24.665 17.2082 24.3886 15.9592C24.3319 15.7864 24.3001 15.6063 24.2942 15.4244C24.3397 14.6609 24.4061 13.9045 24.4726 13.1516C24.5031 12.6545 24.5638 12.1599 24.6545 11.6703C24.9182 10.5854 25.584 9.64278 26.5158 9.03511C27.8701 8.03979 29.4482 7.39678 31.1094 7.16336C32.0149 7.03675 32.9277 6.96976 33.8418 6.96282C36.0215 6.96282 38.2081 6.89597 40.3807 7.02263C41.9314 7.09361 43.4202 7.65508 44.635 8.62699C45.5551 9.37639 46.3038 10.2841 46.2199 11.614C46.2369 11.9563 46.1441 12.2949 45.9551 12.58C45.7661 12.8651 45.4909 13.0815 45.1703 13.1973C44.2827 13.5261 43.3251 13.6158 42.3924 13.4577C41.3638 13.3169 40.3527 13.0566 39.3381 12.8736C39.0827 12.8279 38.8238 12.7786 38.8343 12.4901C38.8343 11.5683 38.1801 11.2376 37.5049 11.0511C36.095 10.6249 34.5826 10.6969 33.2191 11.2552C32.2255 11.6739 31.4348 13.2219 31.7427 14.2387C31.8591 14.5005 32.0441 14.7255 32.278 14.8896C33.0092 15.4807 33.9363 15.4807 34.8074 15.5124C36.4588 15.5898 38.1206 15.4525 39.7684 15.5757C41.4163 15.6988 42.9522 16.1386 44.2292 17.261C44.5901 17.556 44.9153 17.8925 45.1983 18.2637C45.4684 18.6675 45.6502 19.1244 45.7316 19.6042C45.8131 20.0839 45.7922 20.5756 45.6706 21.0467C45.4886 21.9966 45.4292 22.9677 45.2717 23.9176C45.0933 24.9731 45.1633 26.0744 44.509 27.0067C43.9738 27.7874 43.2661 28.4329 42.4414 28.8926C41.1333 29.6649 39.6751 30.1448 38.1661 30.2999C37.5398 30.3456 36.9171 30.4371 36.2943 30.4441C34.0343 30.4617 31.7707 30.4793 29.5106 30.4441C27.7005 30.4361 25.9336 29.8875 24.4341 28.8679C23.9943 28.6049 23.6173 28.248 23.3295 27.8225C23.0418 27.3969 22.8504 26.9131 22.7688 26.4051C22.7327 25.8325 22.7715 25.2576 22.8843 24.6952C22.9787 23.9915 23.1222 23.309 23.2551 22.5525" fill="#F5F5F5"/>
<path fill-rule="evenodd" clip-rule="evenodd" d="M62.1629 22.563H69.4085C69.356 23.0275 69.3035 23.4567 69.2615 23.8824C69.1286 25.3566 68.7752 26.7287 67.5577 27.728C66.7581 28.3632 65.8598 28.8613 64.8988 29.2021C63.5066 29.7519 62.0211 30.0232 60.5256 30.0008C58.213 29.9515 55.8969 30.0008 53.5844 30.0008C51.9657 29.9994 50.3765 29.5647 48.9802 28.7412C48.0219 28.2283 47.2984 27.362 46.9615 26.3241C46.8485 25.8641 46.8212 25.3869 46.8811 24.9168C46.9825 23.9845 47.168 23.0591 47.2974 22.1268C47.4268 21.1944 47.5388 20.2093 47.6473 19.2523C47.7557 18.3657 47.8677 17.4931 47.9971 16.603C48.1406 15.5932 48.2945 14.594 48.4414 13.5843C48.5499 12.8349 48.6059 12.0714 48.7913 11.3396C49.0572 10.4179 49.6399 9.62116 50.4356 9.09137C51.8201 8.04687 53.4472 7.37588 55.1622 7.14221C56.1717 7.01155 57.1882 6.94223 58.206 6.93463C60.4941 6.93463 62.7857 6.85723 65.0667 7.005C67.0959 7.13869 68.9642 7.81069 70.4056 9.41857C71.2487 10.3615 71.2068 12.2332 70.4056 13.1304C70.1351 13.3997 69.8129 13.6106 69.4585 13.7503C69.1042 13.8901 68.7253 13.9557 68.3449 13.9431C67.7144 13.9451 67.086 13.8707 66.4732 13.7215C65.8854 13.6019 65.3326 13.3697 64.7554 13.2008C64.4884 13.1643 64.238 13.0494 64.0357 12.8703C63.8334 12.6913 63.6882 12.4562 63.6183 12.1945C63.5091 11.8782 63.3157 11.598 63.059 11.3846C62.8024 11.1712 62.4924 11.0327 62.1629 10.9842C60.9842 10.7318 59.7687 10.7055 58.5804 10.9068C58.0704 11.0005 57.5703 11.1419 57.0865 11.329C56.8006 11.4285 56.5482 11.6064 56.3578 11.8427C56.1673 12.079 56.0465 12.3642 56.0089 12.666C55.7465 14.5096 55.4876 16.3426 55.2112 18.1792C55.0328 19.3578 54.7984 20.54 54.6199 21.7292C54.4835 22.658 54.382 23.5974 54.2701 24.5439C54.2308 24.7547 54.2651 24.9728 54.367 25.1612C54.469 25.3496 54.6325 25.4969 54.8299 25.5783C55.3721 25.8069 55.9319 26.1342 56.5022 26.1623C57.6707 26.2256 58.8567 26.3101 60.0218 26.0321C60.6075 25.8907 61.1532 25.6163 61.6171 25.2299C62.1279 24.8183 62.0684 24.1991 62.1454 23.6502C62.1703 23.293 62.1703 22.9344 62.1454 22.5771" fill="#F5F5F5"/>
<path fill-rule="evenodd" clip-rule="evenodd" d="M105.969 11.2587H103.334C103.516 9.91467 103.684 8.66214 103.887 7.30759H106.641C106.752 4.84476 107.484 2.73376 109.684 1.48827C111.224 0.62628 112.833 -0.0316474 114.743 0.538322C114.586 2.76894 114.044 4.92216 113.82 7.22315C114.677 7.38147 115.59 7.22315 116.556 7.3287C116.367 8.63048 116.181 9.91467 115.989 11.2516H113.228C113.137 11.8075 113.046 12.286 112.98 12.7716C112.763 14.2704 112.55 15.7727 112.354 17.2785C112.179 18.6507 112.039 20.0299 111.864 21.402C111.748 22.2851 111.626 23.1612 111.462 24.0372C111.297 24.9133 111.525 25.5396 112.406 25.8316C112.974 26.0117 113.561 26.1204 114.155 26.1553C114.827 26.2151 115.513 26.1553 116.293 26.1553C116.108 27.3867 115.943 28.5372 115.761 29.7721C115.17 29.839 114.61 29.9445 114.044 29.9551C113.022 29.9832 111.993 29.9164 110.972 29.9727C109.529 30.0186 108.098 29.7094 106.801 29.072C105.486 28.4739 104.412 27.5485 104.066 26.0251C103.987 25.7199 103.963 25.4029 103.996 25.0892C104.233 23.3828 104.499 21.6835 104.769 19.9841C105.014 18.4325 105.287 16.895 105.528 15.3505C105.71 14.1894 105.878 13.0249 106.014 11.8603C106.018 11.655 106 11.4498 105.962 11.2481" fill="#F5F5F5"/>
<path fill-rule="evenodd" clip-rule="evenodd" d="M77.7002 29.9375H70.2867C70.8115 26.1483 71.2908 22.3801 71.8646 18.6226C72.4383 14.865 72.8581 11.0898 73.5229 7.27595C74.9468 7.18447 76.2658 7.0367 77.5917 7.02967C78.3824 7.02967 79.2991 6.94874 79.9358 7.46594C80.667 8.06757 81.2758 7.86703 82 7.57853C83.3284 7.09537 84.7379 6.87785 86.1493 6.93819C87.0939 6.93819 88.0455 6.89949 88.9797 6.998C90.3558 7.15683 91.6886 7.5809 92.9051 8.24701C92.9993 8.28032 93.0828 8.33869 93.1467 8.41591C93.2106 8.49313 93.2524 8.58632 93.2679 8.68556C93.2833 8.7848 93.2717 8.88639 93.2343 8.97954C93.1969 9.07268 93.1351 9.1539 93.0555 9.21455C92.7361 9.56115 92.3767 9.86823 91.985 10.1293C90.9331 10.831 89.7536 11.3165 88.5143 11.5578C88.0595 11.6352 87.5347 11.709 87.1464 11.3783C86.5097 10.8435 85.747 10.833 85.0018 10.8084C84.0376 10.7496 83.0698 10.8063 82.1189 10.9772C80.7195 11.2798 80.0198 11.8111 79.9568 13.1445C79.8707 14.0797 79.7364 15.0098 79.5545 15.931C79.4215 16.8564 79.3166 17.7958 79.2046 18.7281C79.0612 19.7836 78.9072 20.8391 78.7708 21.9122C78.6448 22.8692 78.5329 23.8297 78.4209 24.7937C78.3183 25.6006 78.2098 26.4028 78.0955 27.2002C77.9766 28.0834 77.8436 28.9594 77.7037 29.9375" fill="#F5F5F5"/>
<path fill-rule="evenodd" clip-rule="evenodd" d="M145.657 0.703687C146.965 0.0703873 148.232 -0.263854 149.617 0.256859C150.221 0.466659 150.763 0.824126 151.194 1.29705C151.626 1.76998 151.934 2.34351 152.091 2.96597C152.341 3.93399 152.361 4.94798 152.147 5.92489C151.979 6.87484 151.912 7.84238 151.797 8.80288C151.685 9.65784 151.555 10.5058 151.426 11.3642C151.342 11.9272 151.255 12.4971 151.167 13.0671C151.02 14.1226 150.863 15.1781 150.723 16.2336C150.597 17.1695 150.506 18.1053 150.373 19.0483C150.24 19.9912 150.075 20.9552 149.95 21.9122C149.824 22.8692 149.712 23.8297 149.6 24.7866C149.488 25.7436 149.341 26.5951 149.215 27.5028C149.108 28.093 149.032 28.6884 148.987 29.2866C148.992 29.5602 148.909 29.8281 148.752 30.0514C148.595 30.2747 148.371 30.4419 148.113 30.5286C147.103 30.9923 145.972 31.1157 144.887 30.8804C143.488 30.5813 142.438 29.2866 142.186 27.8969C141.966 26.6373 142.263 25.4059 142.407 24.1674C142.473 23.5693 142.578 22.9782 142.662 22.3836C142.805 21.3774 142.949 20.3711 143.082 19.3614C143.208 18.4325 143.32 17.4967 143.432 16.5678C143.617 15.252 143.823 13.9396 144.005 12.6203C144.142 11.6633 144.25 10.7028 144.38 9.74931C144.565 8.42994 144.768 7.1176 144.957 5.79823C145.086 4.86939 145.198 3.93703 145.328 3.00467C145.433 2.23064 145.548 1.45661 145.66 0.707205" fill="#F5F5F5"/>
<path fill-rule="evenodd" clip-rule="evenodd" d="M91.6071 30.0853C92.6881 22.4505 93.7622 14.9107 94.8258 7.42019C96.2252 6.83263 97.5861 6.91355 98.9296 7.00855C100.329 7.11058 101.162 8.14849 101.491 9.56637C101.686 10.4178 101.442 11.1848 101.386 11.9764C101.319 12.9334 101.12 13.8869 100.98 14.8403C100.836 15.8712 100.686 16.9091 100.546 17.94C100.42 18.8477 100.319 19.7555 100.196 20.6667C100.074 21.5779 99.9127 22.5209 99.7798 23.4532C99.6468 24.3856 99.5279 25.2652 99.4124 26.1694C99.248 27.3339 99.0835 28.4985 98.9366 29.6631C98.8981 29.9656 98.7547 30.0606 98.4783 30.0677C97.964 30.0677 97.4497 30.131 96.9319 30.1345C95.354 30.1345 93.7832 30.1345 92.2123 30.1345C92.0619 30.1345 91.9079 30.1064 91.6106 30.0782" fill="#F5F5F5"/>
<path fill-rule="evenodd" clip-rule="evenodd" d="M223.476 29.9586C223.626 28.9031 223.766 27.9145 223.906 26.9364C224.046 25.9583 224.19 25.0224 224.326 24.0689C224.452 23.1894 224.571 22.3098 224.697 21.4267C224.84 20.4451 224.987 19.467 225.124 18.4853C225.26 17.5037 225.358 16.6171 225.474 15.6707C225.589 14.7243 225.725 13.9115 225.855 13.0319L226.264 10.2454C226.376 9.39047 226.464 8.53199 226.614 7.68056C226.639 7.5955 226.684 7.51764 226.745 7.45341C226.806 7.38917 226.881 7.34041 226.964 7.31113C227.325 7.16823 227.704 7.07589 228.091 7.0367C229.14 6.94875 230.19 6.80801 231.208 7.12114C231.86 7.29134 232.431 7.68585 232.824 8.23608C233.216 8.78631 233.405 9.45746 233.356 10.1328C233.331 10.9983 233.188 11.8498 233.09 12.7118C232.978 13.6688 232.861 14.6281 232.74 15.5898C232.618 16.494 232.481 17.3982 232.355 18.3024C232.229 19.2066 232.082 20.2199 231.953 21.1734C231.824 22.1268 231.715 23.0416 231.603 23.988C231.491 24.9344 231.313 25.8914 231.187 26.8555C231.064 27.735 230.97 28.6146 230.837 29.4977C230.837 29.5704 230.822 29.6423 230.792 29.7086C230.762 29.7749 230.719 29.834 230.664 29.882C230.61 29.9299 230.546 29.9657 230.477 29.9868C230.408 30.0079 230.335 30.0139 230.263 30.0044C228.244 30.029 226.222 30.0782 224.204 30.0994C223.958 30.0772 223.714 30.0336 223.476 29.9692" fill="#F5F5F5"/>
<path fill-rule="evenodd" clip-rule="evenodd" d="M234.832 0.679077C234.636 2.13918 234.444 3.52892 234.255 4.92218C233.695 5.11569 228.899 5.17198 227.223 5.0031C227.006 4.43665 227.202 2.3151 227.629 0.679077H234.832Z" fill="#F5F5F5"/>
<path fill-rule="evenodd" clip-rule="evenodd" d="M102.369 5.03829C100.004 5.03829 97.7051 5.03829 95.4031 5.03829L95.2001 4.91163C95.3576 3.5043 95.515 2.1216 95.6794 0.689636H103.002C102.792 2.13567 102.582 3.56411 102.369 5.04181" fill="#F5F5F5"/>
<path fill-rule="evenodd" clip-rule="evenodd" d="M166.249 0.197021C168.314 2.04063 170.357 3.8596 172.393 5.6821L172.337 5.85449C171.287 5.85449 170.192 5.98115 169.164 5.80172C168.59 5.70321 168.083 5.1262 167.575 4.71456C166.974 4.21847 166.41 3.65906 165.809 3.13483C164.815 3.88071 163.849 4.58438 162.919 5.31971C162.487 5.70561 161.922 5.90637 161.344 5.87912C160.519 5.82987 159.683 5.87912 158.822 5.78765C161.211 3.78924 163.779 2.08636 166.249 0.197021Z" fill="#F5F5F5"/>
</g>
<defs>
<clipPath id="clip0">
<rect width="258" height="31" fill="white"/>
</clipPath>
</defs>
</svg>
