<svg width="1366" height="768" viewBox="0 0 1366 768" fill="none" xmlns="http://www.w3.org/2000/svg">
<path d="M1247.5 181.5C1312.3 163.1 1364.17 26.1667 1378 -27.5L1425.5 1629C923.001 1626 -243.5 1754.5 -152.5 1664C-145.021 1656.56 -265 928.5 -221.5 844C-178 759.5 137 761.5 207.5 736C278 710.5 314.524 666.115 407 605.5C466.5 566.5 549.5 596.5 636 573C722.5 549.5 716.5 503 776 447C835.5 391 937.501 416 982.501 376C1027.5 336 1044 288.5 1067 252.5C1090 216.5 1166.5 204.5 1247.5 181.5Z" fill="#EE2222"/>
<path d="M1247.5 181.5C1312.3 163.1 1364.17 26.1667 1378 -27.5L1425.5 1629C923.001 1626 -243.5 1754.5 -152.5 1664C-145.021 1656.56 -265 928.5 -221.5 844C-178 759.5 137 761.5 207.5 736C278 710.5 314.524 666.115 407 605.5C466.5 566.5 549.5 596.5 636 573C722.5 549.5 716.5 503 776 447C835.5 391 937.501 416 982.501 376C1027.5 336 1044 288.5 1067 252.5C1090 216.5 1166.5 204.5 1247.5 181.5Z" fill="url(#paint0_linear)"/>
<defs>
<linearGradient id="paint0_linear" x1="1448.5" y1="235.5" x2="-147" y2="734.5" gradientUnits="userSpaceOnUse">
<stop stop-color="#C62828"/>
<stop offset="1" stop-color="#EE2222" stop-opacity="0"/>
</linearGradient>
</defs>
</svg>
